<svg width="22" height="16" viewBox="0 0 22 16" fill="none" xmlns="http://www.w3.org/2000/svg">
<path fill-rule="evenodd" clip-rule="evenodd" d="M6 0C5.44772 0 5 0.447715 5 1C5 1.55228 5.44772 2 6 2L8.70835 2L9 2C9.55228 2 10 2.44772 10 3C10 3.55228 9.55228 4 9 4L7.07026 4L5 4L4.5 4C3.94772 4 3.5 4.44772 3.5 5C3.5 5.55229 3.94772 6 4.5 6H4.99901L5 6L6.25204 6L7 6C7.55228 6 8 6.44772 8 7C8 7.55228 7.55228 8 7 8H6H5C4.44772 8 4 8.44772 4 9C4 9.55229 4.44772 10 5 10H6.25204C7.14012 13.4505 10.2723 16 14 16C18.4183 16 22 12.4183 22 8C22 3.58172 18.4183 0 14 0H6ZM14 12C16.2091 12 18 10.2091 18 8C18 5.79086 16.2091 4 14 4C11.7909 4 10 5.79086 10 8C10 10.2091 11.7909 12 14 12ZM14 10C15.1046 10 16 9.10457 16 8C16 6.89543 15.1046 6 14 6C12.8954 6 12 6.89543 12 8C12 9.10457 12.8954 10 14 10ZM1.5 6C2.05228 6 2.5 5.55228 2.5 5C2.5 4.44772 2.05228 4 1.5 4H1C0.447715 4 0 4.44772 0 5C0 5.55228 0.447715 6 1 6H1.5Z" fill="#5865F2"/>
</svg>
