<svg width="289" height="197" viewBox="0 0 289 197" fill="none" xmlns="http://www.w3.org/2000/svg">
<g clip-path="url(#clip0_626_243941)">
<path d="M218.899 74.9188C217.285 79.3513 214.001 82.8917 209.647 84.8919C207.367 85.9343 204.946 86.4602 202.441 86.4696C195.61 86.479 189.38 82.5254 186.583 76.3932C186.049 75.2193 185.645 73.9422 185.392 72.6274H184.012C182.089 72.6274 180.512 71.0686 180.512 69.1434C180.512 68.0729 180.991 67.1056 181.751 66.467H176.149C174.226 66.4764 172.649 64.9175 172.649 62.9924C172.649 61.0673 174.207 59.4896 176.14 59.4896L184.66 59.4708C184.5 59.3582 184.341 59.2267 184.191 59.0858C183.337 58.2688 182.868 57.1607 182.868 55.9587C182.868 54.8224 183.29 53.7518 184.069 52.9348C184.885 52.0802 185.992 51.6107 187.193 51.6107L203.032 51.5825C203.032 51.5825 203.098 51.5825 203.126 51.5825C209.731 51.9018 215.53 55.7615 218.27 61.6589C220.259 65.8472 220.475 70.5615 218.889 74.9282L218.899 74.9188Z" fill="white"/>
<path d="M176.993 64.5137H176.149C175.304 64.5137 174.61 63.8188 174.601 62.9736C174.591 62.1284 175.295 61.4335 176.14 61.4241H176.984C177.828 61.4241 178.523 62.1191 178.532 62.9642C178.542 63.8094 177.838 64.5043 176.993 64.5137ZM208.84 83.1076C201.136 86.6292 191.884 83.2861 188.366 75.5762C187.662 74.0361 187.249 72.3551 187.099 70.6647H184.012C183.167 70.6647 182.473 69.9698 182.464 69.134C182.464 68.2982 183.158 67.5939 184.003 67.5845H188.488C189.323 67.5845 190.017 66.8802 190.027 66.0351C190.027 65.1899 189.313 64.4949 188.478 64.4949H181.328C180.484 64.5137 179.79 63.8094 179.78 62.9642C179.78 62.1191 180.475 61.4241 181.319 61.4147L191.274 61.396C192.11 61.396 192.804 60.6916 192.813 59.8465C192.813 59.1234 192.288 58.5036 191.603 58.3439C191.5 58.3158 191.387 58.3064 191.265 58.3064H187.202C185.935 58.3064 184.819 57.3391 184.81 55.9305C184.81 54.6721 185.795 53.5452 187.183 53.5452L203.022 53.517C208.633 53.7894 213.963 57.001 216.496 62.4759C220.156 70.1858 216.806 79.4452 208.821 83.1076H208.84ZM210.519 65.2838C208.474 60.8513 203.229 58.9168 198.8 60.964C194.371 63.0018 192.438 68.2513 194.484 72.6932C196.52 77.1257 201.765 79.0602 206.203 77.013C210.622 74.9752 212.565 69.7257 210.519 65.2838ZM205.302 63.6216H199.832C199.691 63.631 199.41 63.631 199.269 63.9127L196.473 68.6833C196.332 68.965 196.332 69.1059 196.473 69.3876L199.288 74.1488C199.428 74.2896 199.569 74.4305 199.851 74.4305H205.321C205.462 74.4211 205.743 74.4211 205.884 74.1394L208.68 69.3688C208.821 69.0871 208.821 68.9462 208.68 68.6645L205.865 63.9033C205.724 63.6216 205.593 63.6216 205.302 63.6216Z" fill="url(#paint0_linear_626_243941)"/>
<path d="M235.019 44.6896C232.551 43.1026 230.891 40.5201 230.459 37.6183L229.718 32.6787C229.68 32.4345 229.474 32.2561 229.23 32.2561C228.986 32.2561 228.779 32.4345 228.742 32.6787L228.001 37.6183C227.569 40.5201 225.908 43.1026 223.44 44.6896L222.802 45.1028C222.662 45.1967 222.577 45.3564 222.577 45.5254V45.5536C222.577 45.7226 222.662 45.8822 222.802 45.9762L223.44 46.3894C225.908 47.9764 227.569 50.5589 228.001 53.4607L228.742 58.4003C228.779 58.6444 228.986 58.8229 229.23 58.8229C229.474 58.8229 229.68 58.6444 229.718 58.4003L230.459 53.4607C230.891 50.5589 232.551 47.9764 235.019 46.3894L235.657 45.9762C235.798 45.8822 235.882 45.7226 235.882 45.5536V45.5254C235.882 45.3564 235.798 45.1967 235.657 45.1028L235.019 44.6896Z" fill="#FFE75C"/>
<path d="M237.196 74.036C236.211 73.3974 235.545 72.3738 235.376 71.2188L235.085 69.2467C235.066 69.1528 234.991 69.0776 234.888 69.0776C234.794 69.0776 234.71 69.1528 234.691 69.2467L234.4 71.2188C234.231 72.3738 233.565 73.4068 232.58 74.036L232.326 74.205C232.27 74.2426 232.232 74.3083 232.232 74.3741C232.232 74.4492 232.27 74.5149 232.326 74.5525L232.58 74.7215C233.565 75.3601 234.231 76.3837 234.4 77.5388L234.691 79.5109C234.71 79.6048 234.785 79.6799 234.888 79.6799C234.982 79.6799 235.066 79.6048 235.085 79.5109L235.376 77.5388C235.545 76.3837 236.211 75.3507 237.196 74.7215L237.449 74.5525C237.506 74.5149 237.543 74.4492 237.543 74.3835C237.543 74.3083 237.506 74.2426 237.449 74.205L237.196 74.036Z" fill="#91FFAD"/>
<path opacity="0.15" d="M289.366 197C289.366 197 227.081 119.723 183.815 119.723C154.315 119.723 116.529 155.84 116.529 155.84C116.529 155.84 69.679 90.3294 43.3688 82.6195C17.0491 74.9003 0 94.3769 0 94.3769V197H289.366Z" fill="white"/>
<path opacity="0.3" d="M18.9351 123.254C31.7525 114.558 40.4225 113.985 52.8926 121.357C64.6028 128.278 76.4912 129.405 88.1638 120.211C73.4886 103.448 56.0454 86.3099 43.3594 82.6005C17.0491 74.9 0 94.3767 0 94.3767V126.559C4.63526 127.818 11.6163 128.221 18.9351 123.254Z" fill="white"/>
<path opacity="0.15" d="M203.82 149.473C216.591 155.089 233.621 159.164 244.759 151.191C225.345 134.532 202.76 119.723 183.815 119.723C164.871 119.723 142.192 134.832 128.643 145.501C133.888 148.759 148.694 156.347 165.218 150.478C185.851 143.153 190.177 143.481 203.82 149.482V149.473Z" fill="white"/>
<path opacity="0.85" d="M39.3245 93.2028C37.9264 92.3013 36.9787 90.8363 36.7347 89.1929L36.3125 86.385C36.2937 86.2442 36.1718 86.1409 36.031 86.1409C35.8903 86.1409 35.7777 86.2442 35.7495 86.385L35.3273 89.1929C35.0833 90.8363 34.1356 92.3013 32.7375 93.2028L32.3716 93.4376C32.2871 93.4939 32.2402 93.5784 32.2402 93.6723V93.6911C32.2402 93.785 32.2871 93.8789 32.3716 93.9259L32.7375 94.1607C34.1356 95.0622 35.0833 96.5272 35.3273 98.1706L35.7495 100.978C35.7683 101.119 35.8903 101.223 36.031 101.223C36.1718 101.223 36.2844 101.119 36.3125 100.978L36.7347 98.1706C36.9787 96.5272 37.9264 95.0622 39.3245 94.1607L39.6904 93.9259C39.7749 93.8696 39.8218 93.785 39.8218 93.6911V93.6723C39.8218 93.5784 39.7749 93.4845 39.6904 93.4376L39.3245 93.2028Z" fill="#66BCFF"/>
<g clip-path="url(#clip1_626_243941)">
<g clip-path="url(#clip2_626_243941)">
<path d="M244.46 177.46H251.21L238.02 158.44L224.84 177.46H231.59L225.15 186.47L208.47 163.11H220.22L197.26 130L174.3 163.11H186.05L162 196.8H217.77H232.52H258.27L244.46 177.46Z" fill="#5865F2"/>
</g>
<path opacity="0.5" d="M244.46 177.46H251.21L238.02 158.44L224.84 177.46H231.59L225.15 186.47L208.47 163.11H220.22L197.26 130L174.3 163.11H186.05L162 196.8H217.77H232.52H258.27L244.46 177.46Z" fill="#3442D9"/>
</g>
<path opacity="0.85" d="M9.44871 68.5252C11.1226 68.5252 12.4795 67.1671 12.4795 65.4919C12.4795 63.8167 11.1226 62.4587 9.44871 62.4587C7.77488 62.4587 6.41797 63.8167 6.41797 65.4919C6.41797 67.1671 7.77488 68.5252 9.44871 68.5252Z" fill="white"/>
<path opacity="0.85" d="M78.1802 68.5252C79.854 68.5252 81.2109 67.1671 81.2109 65.4919C81.2109 63.8167 79.854 62.4587 78.1802 62.4587C76.5063 62.4587 75.1494 63.8167 75.1494 65.4919C75.1494 67.1671 76.5063 68.5252 78.1802 68.5252Z" fill="white"/>
<path opacity="0.85" d="M137.519 68.5252C139.193 68.5252 140.55 67.1671 140.55 65.4919C140.55 63.8167 139.193 62.4587 137.519 62.4587C135.845 62.4587 134.488 63.8167 134.488 65.4919C134.488 67.1671 135.845 68.5252 137.519 68.5252Z" fill="white"/>
<path opacity="0.85" d="M164.139 89.8424C165.274 89.8424 166.194 88.9217 166.194 87.7858C166.194 86.65 165.274 85.7292 164.139 85.7292C163.004 85.7292 162.084 86.65 162.084 87.7858C162.084 88.9217 163.004 89.8424 164.139 89.8424Z" fill="white"/>
<path opacity="0.85" d="M108.084 89.8424C109.219 89.8424 110.139 88.9217 110.139 87.7858C110.139 86.65 109.219 85.7292 108.084 85.7292C106.949 85.7292 106.029 86.65 106.029 87.7858C106.029 88.9217 106.949 89.8424 108.084 89.8424Z" fill="white"/>
<path opacity="0.85" d="M78.1802 110.183C79.854 110.183 81.2109 108.825 81.2109 107.15C81.2109 105.475 79.854 104.117 78.1802 104.117C76.5063 104.117 75.1494 105.475 75.1494 107.15C75.1494 108.825 76.5063 110.183 78.1802 110.183Z" fill="white"/>
<path opacity="0.85" d="M137.519 110.183C139.193 110.183 140.55 108.825 140.55 107.15C140.55 105.475 139.193 104.117 137.519 104.117C135.845 104.117 134.488 105.475 134.488 107.15C134.488 108.825 135.845 110.183 137.519 110.183Z" fill="white"/>
<path opacity="0.85" d="M164.139 131.5C165.274 131.5 166.194 130.58 166.194 129.444C166.194 128.308 165.274 127.387 164.139 127.387C163.004 127.387 162.084 128.308 162.084 129.444C162.084 130.58 163.004 131.5 164.139 131.5Z" fill="white"/>
<path opacity="0.85" d="M108.084 131.5C109.219 131.5 110.139 130.58 110.139 129.444C110.139 128.308 109.219 127.387 108.084 127.387C106.949 127.387 106.029 128.308 106.029 129.444C106.029 130.58 106.949 131.5 108.084 131.5Z" fill="white"/>
<path opacity="0.85" d="M42.3088 131.5C43.4437 131.5 44.3637 130.58 44.3637 129.444C44.3637 128.308 43.4437 127.387 42.3088 127.387C41.1739 127.387 40.2539 128.308 40.2539 129.444C40.2539 130.58 41.1739 131.5 42.3088 131.5Z" fill="white"/>
<path opacity="0.85" d="M163.041 11.4945C164.166 11.4945 165.077 10.6157 165.077 9.53178C165.077 8.44782 164.166 7.56909 163.041 7.56909C161.916 7.56909 161.005 8.44782 161.005 9.53178C161.005 10.6157 161.916 11.4945 163.041 11.4945Z" fill="white"/>
<path opacity="0.85" d="M19.0361 103.925C20.1607 103.925 21.0723 103.047 21.0723 101.963C21.0723 100.879 20.1607 100 19.0361 100C17.9116 100 17 100.879 17 101.963C17 103.047 17.9116 103.925 19.0361 103.925Z" fill="white"/>
<path opacity="0.85" d="M107.277 11.4945C108.402 11.4945 109.313 10.6157 109.313 9.53178C109.313 8.44782 108.402 7.56909 107.277 7.56909C106.153 7.56909 105.241 8.44782 105.241 9.53178C105.241 10.6157 106.153 11.4945 107.277 11.4945Z" fill="white"/>
<path opacity="0.85" d="M41.8584 11.4945C42.9829 11.4945 43.8945 10.6157 43.8945 9.53178C43.8945 8.44782 42.9829 7.56909 41.8584 7.56909C40.7339 7.56909 39.8223 8.44782 39.8223 9.53178C39.8223 10.6157 40.7339 11.4945 41.8584 11.4945Z" fill="white"/>
<path opacity="0.85" d="M18.513 30.943C20.1764 30.943 21.5249 29.6438 21.5249 28.0412C21.5249 26.4386 20.1764 25.1394 18.513 25.1394C16.8495 25.1394 15.501 26.4386 15.501 28.0412C15.501 29.6438 16.8495 30.943 18.513 30.943Z" fill="white"/>
<path opacity="0.85" d="M136.562 30.943C138.225 30.943 139.574 29.6438 139.574 28.0412C139.574 26.4386 138.225 25.1394 136.562 25.1394C134.898 25.1394 133.55 26.4386 133.55 28.0412C133.55 29.6438 134.898 30.943 136.562 30.943Z" fill="white"/>
<path opacity="0.85" d="M196.012 30.943C197.675 30.943 199.024 29.6438 199.024 28.0412C199.024 26.4386 197.675 25.1394 196.012 25.1394C194.349 25.1394 193 26.4386 193 28.0412C193 29.6438 194.349 30.943 196.012 30.943Z" fill="white"/>
<path opacity="0.85" d="M207.012 106.804C208.675 106.804 210.024 105.504 210.024 103.902C210.024 102.299 208.675 101 207.012 101C205.349 101 204 102.299 204 103.902C204 105.504 205.349 106.804 207.012 106.804Z" fill="white"/>
<path opacity="0.85" d="M85.012 30.943C86.6754 30.943 88.024 29.6438 88.024 28.0412C88.024 26.4386 86.6754 25.1394 85.012 25.1394C83.3485 25.1394 82 26.4386 82 28.0412C82 29.6438 83.3485 30.943 85.012 30.943Z" fill="white"/>
<path opacity="0.85" d="M163.041 51.3211C164.166 51.3211 165.077 50.4424 165.077 49.3584C165.077 48.2745 164.166 47.3958 163.041 47.3958C161.916 47.3958 161.005 48.2745 161.005 49.3584C161.005 50.4424 161.916 51.3211 163.041 51.3211Z" fill="white"/>
<path opacity="0.85" d="M227.036 125.925C228.161 125.925 229.072 125.047 229.072 123.963C229.072 122.879 228.161 122 227.036 122C225.912 122 225 122.879 225 123.963C225 125.047 225.912 125.925 227.036 125.925Z" fill="white"/>
<path opacity="0.85" d="M107.277 51.3211C108.402 51.3211 109.313 50.4424 109.313 49.3584C109.313 48.2745 108.402 47.3958 107.277 47.3958C106.153 47.3958 105.241 48.2745 105.241 49.3584C105.241 50.4424 106.153 51.3211 107.277 51.3211Z" fill="white"/>
<path opacity="0.85" d="M41.8584 51.3211C42.9829 51.3211 43.8945 50.4424 43.8945 49.3584C43.8945 48.2745 42.9829 47.3958 41.8584 47.3958C40.7339 47.3958 39.8223 48.2745 39.8223 49.3584C39.8223 50.4424 40.7339 51.3211 41.8584 51.3211Z" fill="white"/>
<path d="M37.6261 146.242C48.5397 146.242 57.3869 137.388 57.3869 126.465C57.3869 115.543 48.5397 106.688 37.6261 106.688C26.7125 106.688 17.8652 115.543 17.8652 126.465C17.8652 137.388 26.7125 146.242 37.6261 146.242Z" fill="url(#paint1_linear_626_243941)"/>
<path d="M22.6323 158.601C32.9189 158.601 41.2578 150.255 41.2578 139.96C41.2578 129.665 32.9189 121.319 22.6323 121.319C12.3458 121.319 4.00684 129.665 4.00684 139.96C4.00684 150.255 12.3458 158.601 22.6323 158.601Z" fill="url(#paint2_linear_626_243941)"/>
<path d="M60.5776 148.346C70.8642 148.346 79.2031 140 79.2031 129.705C79.2031 119.41 70.8642 111.064 60.5776 111.064C50.2911 111.064 41.9521 119.41 41.9521 129.705C41.9521 140 50.2911 148.346 60.5776 148.346Z" fill="#65E6A5"/>
<path d="M-9.44824 197H104.482L143.065 135.903H29.1351L-9.44824 197Z" fill="url(#paint3_linear_626_243941)"/>
<path d="M29.4445 135.978H143.656L138.214 120.596H24.0117L24.6685 131.208L29.4445 135.978Z" fill="#FF78B9"/>
<path d="M-9.44842 196.972L29.5197 135.978L24.0868 120.596L-14.8906 181.599L-9.44842 196.972Z" fill="url(#paint4_linear_626_243941)"/>
<path d="M2.00879 155.06L9.04613 143.96L14.4977 159.587L7.46038 170.677L2.00879 155.06Z" fill="url(#paint5_linear_626_243941)"/>
<path d="M79.7383 120.399H102.624L107.841 136.016H84.9459L79.7383 120.399Z" fill="#34F4CF"/>
<path d="M78.8836 102.735L129.299 100.246C129.299 100.246 146.658 91.4091 161.962 84.6665C170.012 81.1261 173.55 80.882 175.52 83.981C176.243 85.1079 176.102 86.817 175.867 88.3477C175.633 89.8784 176.093 90.1883 177.359 90.6485C178.898 91.2119 186.667 93.5221 185.748 100.077C185.335 103.044 182.529 105.862 178.392 106.857C171.73 108.463 166.785 107.777 164.026 109.158C161.267 110.538 148.45 118.568 134.497 128.822C134.497 128.822 127.723 146.994 122.506 160.056H54.084C60.746 131.705 78.8836 102.744 78.8836 102.744V102.735Z" fill="url(#paint6_linear_626_243941)"/>
<path d="M131.711 101.927L83.5566 102.406C91.4009 110.501 106.039 115.037 117.683 112.801C129.628 110.51 131.72 101.927 131.72 101.927H131.711Z" fill="#4664F4"/>
<path d="M151.819 65.0208C149.277 64.8518 147.306 64.7673 144.763 64.7766C144.135 64.7766 143.628 65.2744 143.628 65.8848L143.684 93.231C143.684 93.8414 144.2 94.3297 144.829 94.3297C147.372 94.3297 149.342 94.2358 151.885 94.048C156.267 93.7381 159.711 90.3386 160.039 86.1221C160.377 81.7178 160.367 77.3134 160.011 72.9185C159.673 68.702 156.211 65.3213 151.829 65.0302L151.819 65.0208Z" fill="#698EFF"/>
<path d="M150.458 69.6599C148.572 69.5378 147.934 69.4721 145.335 69.4627C144.387 69.4627 143.618 70.1013 143.627 70.8901L143.655 85.5117C143.655 86.3005 144.425 86.9391 145.372 86.9297C147.981 86.9109 148.619 86.8452 150.495 86.7043C152.569 86.5541 154.239 85.2863 154.436 83.6993C154.802 80.7693 154.793 75.5668 154.418 72.6462C154.211 71.0592 152.541 69.8008 150.467 69.6599H150.458Z" fill="#B7CCFF"/>
<path d="M61.0752 76.6561C61.0752 70.3454 61.3285 67.6503 62.1636 62.5792C63.3271 55.5173 68.7694 50.1269 76.0131 48.7371C81.8776 47.6101 96.2994 47.1218 106.349 47.1218C116.398 47.1218 130.82 47.6195 136.684 48.7371C143.928 50.1269 149.37 55.5173 150.534 62.5792C151.369 67.6503 151.622 70.3454 151.622 76.6561C151.622 82.9667 151.369 85.6619 150.534 90.733C149.37 97.7949 143.928 103.185 136.684 104.575C130.82 105.702 116.398 106.19 106.349 106.19C96.2994 106.19 81.8776 105.693 76.0131 104.575C68.7694 103.185 63.3271 97.7949 62.1636 90.733C61.3285 85.6619 61.0752 82.9667 61.0752 76.6561Z" fill="#698EFF"/>
<path d="M109.463 87.4744L123.219 87.4932C130.012 87.5025 134.441 83.8119 135.53 78.9662C136.552 74.3741 136.43 71.2376 135.952 66.1665C135.558 62.0721 132.471 60.316 128.849 60.3066L105.504 60.269C101.882 60.269 98.9449 63.1896 98.9355 66.8145V76.1208C98.9355 83.502 102.661 87.465 109.454 87.4838L109.463 87.4744Z" fill="#B7CCFF"/>
<path d="M125.208 75.8015H128.173C129.75 75.8109 131.035 76.9566 131.026 78.3652C131.026 79.7738 129.74 80.9195 128.154 80.9101H125.189C123.613 80.9007 122.328 79.7551 122.337 78.3464C122.346 76.9378 123.622 75.7921 125.208 75.8015Z" fill="#698EFF"/>
<path d="M111.283 75.7734H114.248C115.825 75.7828 117.11 76.9284 117.101 78.3371C117.101 79.7457 115.815 80.8914 114.23 80.882H111.265C109.688 80.8726 108.403 79.7269 108.412 78.3183C108.412 76.9097 109.698 75.764 111.283 75.7734Z" fill="#698EFF"/>
<path d="M93.7843 97.7667C96.4022 98.518 99.067 97.9639 101.009 96.8746C102.923 95.8134 104.143 94.2264 103.946 92.8459C103.618 90.517 92.0485 86.5165 89.4963 87.3335C88.5204 87.6528 87.9762 88.6482 87.8824 89.9254C87.6853 92.6205 89.5338 96.5459 93.7843 97.7573V97.7667Z" fill="#E9459D"/>
<path d="M58.7942 65.0208C61.3371 64.8518 63.3075 64.7673 65.8503 64.7766C66.479 64.7766 66.9857 65.2744 66.9857 65.8848L66.9294 93.231C66.9294 93.8414 66.4133 94.3297 65.7847 94.3297C63.2418 94.3297 61.2714 94.2358 58.7285 94.048C54.3466 93.7381 50.903 90.3386 50.5746 86.1221C50.2368 81.7178 50.2462 77.3134 50.6028 72.9185C50.9406 68.702 54.4029 65.3213 58.7848 65.0302L58.7942 65.0208Z" fill="#698EFF"/>
<path d="M60.1553 69.6599C62.0413 69.5378 62.6794 69.4721 65.2785 69.4627C66.2262 69.4627 66.9956 70.1013 66.9862 70.8901L66.9581 85.5117C66.9581 86.3005 66.1887 86.9391 65.241 86.9297C62.6325 86.9109 61.9944 86.8452 60.1178 86.7043C58.0441 86.5541 56.3739 85.2863 56.1769 83.6993C55.811 80.7693 55.8203 75.5668 56.1957 72.6462C56.4021 71.0592 58.0723 69.8008 60.146 69.6599H60.1553Z" fill="#B7CCFF"/>
<path d="M55.323 116.802C52.9396 120.051 50.988 124.099 49.3271 128.437V160.207H57.4154C65.6538 145.961 73.4511 130.992 73.4511 130.992L81.1828 103.796C71.5276 103.796 59.9676 110.463 55.3136 116.802H55.323Z" fill="#698EFF"/>
<path d="M93.7843 97.7667C96.4022 98.518 99.067 97.9639 101.009 96.8746C99.4048 94.9776 96.9371 93.137 93.9157 91.766C91.842 90.8175 89.7778 90.2165 87.8824 89.9348C87.6853 92.6299 89.5338 96.5553 93.7843 97.7667Z" fill="#FFADD6"/>
<path d="M147.916 69.0589C147.972 69.5096 147.475 69.8289 147.09 69.5847C146.387 69.134 145.589 68.7865 144.735 68.5893C143.337 68.2606 141.779 68.2794 140.541 68.3921C139.828 68.4578 139.387 67.6502 139.79 67.0586C140.804 65.5936 142.633 64.8142 144.482 65.2368C146.33 65.6594 147.681 67.237 147.907 69.0495L147.916 69.0589Z" fill="black"/>
<path d="M95.8118 67.7347C96.0276 68.2043 95.6054 68.7114 95.1081 68.5799C94.1979 68.3358 93.2315 68.2325 92.2369 68.3076C90.623 68.4297 88.9528 68.9837 87.6673 69.519C86.926 69.8289 86.1754 69.1152 86.41 68.3358C87.0011 66.42 88.7088 64.9551 90.8388 64.786C92.9687 64.617 94.958 65.8566 95.8118 67.7254V67.7347Z" fill="black"/>
<path d="M99.4794 125.554C100.587 125.808 104.471 127.038 106.273 128.052C107.849 128.944 109.031 129.743 107.84 131.809C106.648 133.875 102.585 135.978 98.8039 135.011C95.0225 134.034 92.9769 130.522 92.855 128.325C92.855 128.325 92.6016 126.54 93.6807 125.526C94.7597 124.512 97.6685 125.141 99.4794 125.564V125.554Z" fill="#E9459C"/>
<path d="M105.692 133.865C105.692 133.865 100.85 128.343 92.8179 127.724C92.8179 127.724 92.3112 131.752 97.1623 134.438C101.338 136.748 105.692 133.865 105.692 133.865Z" fill="#FFACD6"/>
<path d="M46.6432 197L196.116 197V116.182L46.6432 116.182V197Z" fill="#FF78B9"/>
<path d="M46.6437 197H82.6279L82.6279 116.182H46.6437L46.6437 197Z" fill="url(#paint7_linear_626_243941)"/>
<path d="M129.177 197H150.242V116.182H129.177V197Z" fill="url(#paint8_linear_626_243941)"/>
<path d="M57.1905 197H67.0146L67.0146 116.182H57.1905L57.1905 197Z" fill="url(#paint9_linear_626_243941)"/>
<path d="M73.0473 40.3041C74.9595 40.3041 76.5097 38.7527 76.5097 36.8389C76.5097 34.9251 74.9595 33.3737 73.0473 33.3737C71.1351 33.3737 69.585 34.9251 69.585 36.8389C69.585 38.7527 71.1351 40.3041 73.0473 40.3041Z" fill="url(#paint10_linear_626_243941)"/>
<path d="M93.5681 41.8629C98.4567 41.5342 98.7757 41.4591 99.0854 47.1124L92.3577 48.2487C82.2427 57.4236 73.5821 62.3632 63.0636 59.2548C62.5851 60.5601 62.2379 62.0063 62.2379 62.0063C59.301 61.5086 59.2353 60.1469 60.0141 55.4139C60.502 52.4746 60.8867 51.3007 64.0864 51.3289C65.2123 41.7784 69.3972 39.9566 76.0592 37.9094C82.7212 35.8622 86.5214 37.4398 93.5587 41.8723L93.5681 41.8629Z" fill="url(#paint11_linear_626_243941)"/>
<path d="M67.3055 51.8923C66.7988 51.8923 66.2828 51.8923 65.7573 51.8736C65.1474 51.8548 64.6595 51.3477 64.6783 50.7373C64.697 50.1269 65.2037 49.6198 65.8136 49.6573C75.3187 49.8921 81.3051 47.9012 86.4752 42.7738C86.9162 42.3418 87.6106 42.3418 88.0516 42.7738C88.4832 43.2058 88.4832 43.9101 88.0516 44.3515C82.6938 49.6573 76.6136 51.8923 67.3149 51.8923H67.3055Z" fill="#29CC7A"/>
</g>
<defs>
<linearGradient id="paint0_linear_626_243941" x1="174.634" y1="62.6558" x2="217.594" y2="72.4631" gradientUnits="userSpaceOnUse">
<stop stop-color="#B473F5"/>
<stop offset="1" stop-color="#FF78B9"/>
</linearGradient>
<linearGradient id="paint1_linear_626_243941" x1="37.6261" y1="111.984" x2="37.6261" y2="150.29" gradientUnits="userSpaceOnUse">
<stop stop-color="#57F287"/>
<stop offset="1" stop-color="#29CC7A"/>
</linearGradient>
<linearGradient id="paint2_linear_626_243941" x1="22.6323" y1="111.985" x2="22.6323" y2="150.29" gradientUnits="userSpaceOnUse">
<stop stop-color="#57F287"/>
<stop offset="1" stop-color="#29CC7A"/>
</linearGradient>
<linearGradient id="paint3_linear_626_243941" x1="66.8084" y1="304" x2="66.8084" y2="146.374" gradientUnits="userSpaceOnUse">
<stop stop-color="#EB459F"/>
<stop offset="1" stop-color="#B00B6C"/>
</linearGradient>
<linearGradient id="paint4_linear_626_243941" x1="22.792" y1="136.852" x2="-13.7861" y2="188.623" gradientUnits="userSpaceOnUse">
<stop stop-color="#EB459F"/>
<stop offset="1" stop-color="#FF78B9"/>
</linearGradient>
<linearGradient id="paint5_linear_626_243941" x1="4.45778" y1="151.539" x2="13.2129" y2="164.858" gradientUnits="userSpaceOnUse">
<stop stop-color="#57F287"/>
<stop offset="1" stop-color="#29CC7A"/>
</linearGradient>
<linearGradient id="paint6_linear_626_243941" x1="94.1874" y1="134.401" x2="183.015" y2="93.2493" gradientUnits="userSpaceOnUse">
<stop offset="0.09" stop-color="#698EFF"/>
<stop offset="1" stop-color="#396DFF"/>
</linearGradient>
<linearGradient id="paint7_linear_626_243941" x1="64.6311" y1="133.593" x2="64.6311" y2="205.677" gradientUnits="userSpaceOnUse">
<stop stop-color="#EB459F"/>
<stop offset="1" stop-color="#FF78B9"/>
</linearGradient>
<linearGradient id="paint8_linear_626_243941" x1="139.714" y1="134.832" x2="139.714" y2="217.801" gradientUnits="userSpaceOnUse">
<stop stop-color="#57F287"/>
<stop offset="1" stop-color="#29CC7A"/>
</linearGradient>
<linearGradient id="paint9_linear_626_243941" x1="62.1073" y1="136.861" x2="62.1073" y2="200.888" gradientUnits="userSpaceOnUse">
<stop stop-color="#57F287"/>
<stop offset="1" stop-color="#29CC7A"/>
</linearGradient>
<linearGradient id="paint10_linear_626_243941" x1="72.672" y1="35.1391" x2="73.9783" y2="40.9986" gradientUnits="userSpaceOnUse">
<stop stop-color="#57F287"/>
<stop offset="1" stop-color="#29CC7A"/>
</linearGradient>
<linearGradient id="paint11_linear_626_243941" x1="79.3433" y1="44.0416" x2="79.3433" y2="65.866" gradientUnits="userSpaceOnUse">
<stop stop-color="#57F287"/>
<stop offset="1" stop-color="#29CC7A"/>
</linearGradient>
<clipPath id="clip0_626_243941">
<rect width="289" height="197" fill="white"/>
</clipPath>
<clipPath id="clip1_626_243941">
<rect width="96.27" height="66.8" fill="white" transform="translate(162 130)"/>
</clipPath>
<clipPath id="clip2_626_243941">
<rect width="96.27" height="66.8" fill="white" transform="translate(162 130)"/>
</clipPath>
</defs>
</svg>
