<svg width="815" height="435" viewBox="0 0 815 435" fill="none" xmlns="http://www.w3.org/2000/svg">
<g clip-path="url(#clip0_867_90017)">
<rect x="2" y="3" width="810.5" height="430" rx="44" fill="white"/>
<g clip-path="url(#clip1_867_90017)">
<mask id="mask0_867_90017" style="mask-type:luminance" maskUnits="userSpaceOnUse" x="-43" y="-167" width="900" height="600">
<path d="M857 -167H-43V433H857V-167Z" fill="white"/>
</mask>
<g mask="url(#mask0_867_90017)">
<path d="M606.406 231.375C606.406 231.375 559.741 231.375 513.077 231.375C495.517 231.375 483.363 237.017 475.034 244.055C464.02 253.362 457.929 267.247 457.929 281.667V378.74C457.929 406.298 480.269 428.638 507.827 428.638H655.696C683.254 428.638 705.594 406.298 705.594 378.74V281.628C705.594 267.816 700.024 254.454 689.783 245.187C681.434 237.632 668.938 231.375 650.445 231.375C603.781 231.375 557.117 231.375 557.117 231.375" fill="#698EFF"/>
<path d="M455.472 363.084C455.472 363.084 499.425 350.746 499.425 319.131C499.425 287.516 499.425 249.591 499.425 249.591H528.349V285.203C528.349 285.203 529.891 296.769 539.915 296.769C549.939 296.769 589.644 296.769 589.644 296.769L590.893 432.429H506.704C506.704 432.429 447.529 436.081 455.472 363.084Z" fill="white"/>
<path d="M703.331 363.084C703.331 363.084 659.378 350.746 659.378 319.131C659.378 287.516 659.378 249.591 659.378 249.591H630.454V285.203C630.454 285.203 628.911 296.769 618.887 296.769C608.863 296.769 569.159 296.769 569.159 296.769L567.91 432.429H652.099C652.099 432.429 711.274 436.081 703.331 363.084Z" fill="white"/>
<path d="M770.657 433H43.6779C20.7169 433 1.93091 414.214 1.93091 391.253V42.8042C1.93091 19.8432 20.7169 1.05615 43.6779 1.05615H770.657C793.618 1.05615 812.404 19.8432 812.404 42.8042V391.253C812.404 414.214 793.618 433 770.657 433Z" fill="url(#paint0_linear_867_90017)"/>
<path d="M109.476 313.337H426.333V131.202H109.476V313.337Z" fill="#7F005B"/>
<path d="M132.66 199.74H135.455V141.895H132.66V199.74Z" fill="white"/>
<path d="M134.963 199.198C134.963 199.198 137.274 199.198 137.604 201.037C137.934 202.876 136.614 204.29 136.614 204.29C136.614 204.29 137.536 205.858 137.745 207.638C138.028 210.043 137.085 211.221 135.246 211.221C133.407 211.221 132.795 211.174 132.795 211.174L133.172 198.538L134.963 199.198Z" fill="white"/>
<path d="M133.363 199.198C133.363 199.198 131.052 199.198 130.722 201.037C130.392 202.876 131.713 204.29 131.713 204.29C131.713 204.29 130.79 205.858 130.581 207.638C130.298 210.043 131.241 211.221 133.08 211.221C134.919 211.221 135.532 211.174 135.532 211.174L135.154 198.538L133.363 199.198Z" fill="white"/>
<path d="M101.454 142.869H439.075V116.457H101.454V142.869Z" fill="#D80090"/>
<path d="M101.454 330.982H439.075V297.109H101.454V330.982Z" fill="#D80090"/>
<path d="M107.383 298.642H116.546V129.932H107.383V298.642Z" fill="#D80090"/>
<path d="M423.443 298.642H432.606V129.932H423.443V298.642Z" fill="#D80090"/>
<g opacity="0.6">
<path d="M336.486 206.974C344.064 206.798 349.05 207.103 354.251 203.793C359.176 200.659 364.1 199.116 367.118 199.463C370.136 199.116 375.059 200.659 379.984 203.793C385.185 207.103 390.171 206.798 397.749 206.974C406.063 207.167 407.29 211.122 407.29 211.122H365.362H359.469H326.946C326.946 211.122 328.172 207.167 336.486 206.974Z" stroke="#E557C4" stroke-miterlimit="10"/>
</g>
<g opacity="0.6">
<path d="M156.134 177.368C168.222 176.317 171.088 177.459 179.414 172.161C187.297 167.144 193.863 165.984 198.694 166.539C203.525 165.984 209.604 166.792 219.268 172.538C222.638 174.542 230.265 178.497 239.064 178.724C248.985 178.98 260.345 176.405 268.495 176.606C271.312 176.675 275.227 177.128 278.129 178.115C287.665 181.357 282.644 185.202 282.644 185.202H195.884H186.45H140.818C140.818 185.202 142.043 178.593 156.134 177.368Z" stroke="#E557C4" stroke-miterlimit="10"/>
</g>
<g opacity="0.32">
<path d="M117.923 296.531C117.923 296.531 145.869 269.433 160.547 268.868C175.225 268.303 173.532 277.336 173.532 277.336C173.532 277.336 225.753 231.324 261.32 235.276C296.887 239.228 293.5 255.601 293.5 255.601C293.5 255.601 345.157 232.736 366.892 248.826C388.627 264.916 379.313 280.441 379.313 280.441C379.313 280.441 428.994 262.375 419.961 296.531C419.961 296.531 117.358 295.966 117.923 296.531Z" fill="#7F005B"/>
</g>
<g opacity="0.32">
<path d="M812.145 371.456H1.59595V351.172H812.145V371.456Z" fill="#7F005B"/>
</g>
<path d="M36.51 371.824V432.36" stroke="white" stroke-miterlimit="10"/>
<path d="M73.708 371.824V432.36" stroke="white" stroke-miterlimit="10"/>
<path d="M110.907 371.824V432.36" stroke="white" stroke-miterlimit="10"/>
<path d="M148.106 371.824V432.36" stroke="white" stroke-miterlimit="10"/>
<path d="M185.304 371.824V432.36" stroke="white" stroke-miterlimit="10"/>
<path d="M222.503 371.824V432.36" stroke="white" stroke-miterlimit="10"/>
<path d="M259.701 371.824V432.36" stroke="white" stroke-miterlimit="10"/>
<path d="M296.9 371.824V432.36" stroke="white" stroke-miterlimit="10"/>
<path d="M334.099 371.824V432.36" stroke="white" stroke-miterlimit="10"/>
<path d="M371.297 371.824V432.36" stroke="white" stroke-miterlimit="10"/>
<path d="M408.496 371.824V432.36" stroke="white" stroke-miterlimit="10"/>
<path d="M445.694 371.824V432.36" stroke="white" stroke-miterlimit="10"/>
<path d="M482.893 371.824V432.36" stroke="white" stroke-miterlimit="10"/>
<path d="M520.092 371.824V432.36" stroke="white" stroke-miterlimit="10"/>
<path d="M557.29 371.824V432.36" stroke="white" stroke-miterlimit="10"/>
<path d="M594.489 371.824V432.36" stroke="white" stroke-miterlimit="10"/>
<path d="M631.687 371.824V432.36" stroke="white" stroke-miterlimit="10"/>
<path d="M668.886 371.824V432.36" stroke="white" stroke-miterlimit="10"/>
<path d="M706.085 371.824V432.36" stroke="white" stroke-miterlimit="10"/>
<path d="M743.283 371.824V432.36" stroke="white" stroke-miterlimit="10"/>
<path d="M780.482 371.824V432.36" stroke="white" stroke-miterlimit="10"/>
<path d="M812.49 367.944C812.49 367.944 413.541 367.944 342.137 367.944C270.733 367.944 263.346 428.679 263.346 428.679V433.645C263.346 433.645 687.144 433.645 758.548 433.645C777.54 433.645 784.782 432.806 793.076 427.027C815 411.75 812.49 391.585 812.49 391.585V367.944Z" fill="#443995"/>
<path d="M649.41 251.408C653.289 274.146 628.521 297.341 594.089 303.215C559.656 309.089 528.599 295.418 524.72 272.68C520.84 249.942 545.608 226.747 580.041 220.872C614.474 214.998 645.531 228.67 649.41 251.408Z" fill="#4B67EC"/>
<path d="M617.466 52.5669H542.657V113.547H617.466V52.5669Z" fill="#F3DC2C"/>
<path d="M618.409 46.2802C618.409 67.4594 601.241 84.6278 580.062 84.6278C558.883 84.6278 541.714 67.4594 541.714 46.2802C541.714 25.101 558.883 7.93262 580.062 7.93262C601.241 7.93262 618.409 25.101 618.409 46.2802Z" fill="#F3DC2C"/>
<path d="M563.431 73.5054C563.431 88.6754 550.049 100.974 533.542 100.974C517.035 100.974 503.652 88.6754 503.652 73.5054C503.652 58.3354 517.035 46.0371 533.542 46.0371C550.049 46.0371 563.431 58.3354 563.431 73.5054Z" fill="#F3DC2C"/>
<path d="M656.471 73.5054C656.471 88.6754 643.089 100.974 626.582 100.974C610.075 100.974 596.693 88.6754 596.693 73.5054C596.693 58.3354 610.075 46.0371 626.582 46.0371C643.089 46.0371 656.471 58.3354 656.471 73.5054Z" fill="#F3DC2C"/>
<path d="M618.409 46.2803C618.409 53.7904 616.25 60.7963 612.519 66.7111" stroke="#D80090" stroke-width="4.96699" stroke-linecap="round" stroke-linejoin="round"/>
<path d="M543.196 46.2803C543.196 53.7904 545.355 60.7963 549.086 66.7111" stroke="#D80090" stroke-width="4.96699" stroke-linecap="round" stroke-linejoin="round"/>
<path d="M563.094 112.989V92.6196" stroke="#D80090" stroke-width="4.96699" stroke-linecap="round" stroke-linejoin="round"/>
<path d="M597.043 112.989V92.6196" stroke="#D80090" stroke-width="4.96699" stroke-linecap="round" stroke-linejoin="round"/>
<path d="M709.481 240.216L695.989 240.386C679.548 240.593 665.927 227.311 665.72 210.87L665.356 182.019C665.149 165.579 678.431 151.957 694.872 151.75L708.366 151.58C724.806 151.373 738.427 164.656 738.634 181.096L738.998 209.947C739.205 226.388 725.922 240.009 709.481 240.216Z" fill="#698EFF"/>
<path d="M710.361 219.868L694.508 220.068C691.713 220.104 689.398 217.845 689.362 215.05L688.849 174.28C688.813 171.477 691.078 169.155 693.881 169.12L709.719 168.92C716.273 168.838 721.702 174.132 721.784 180.685L722.126 207.804C722.209 214.357 716.914 219.786 710.361 219.868Z" fill="#B7CDFF"/>
<path d="M441.758 241.292L455.253 241.353C471.695 241.428 485.209 228.037 485.284 211.595L485.416 182.742C485.491 166.299 472.099 152.786 455.657 152.71L442.163 152.649C425.721 152.574 412.207 165.965 412.132 182.407L412 211.261C411.925 227.703 425.316 241.216 441.758 241.292Z" fill="#698EFF"/>
<path d="M440.716 220.952L456.57 221.024C459.365 221.036 461.663 218.76 461.675 215.965L461.862 175.192C461.874 172.389 459.591 170.084 456.788 170.072L440.948 170C434.394 169.97 429.008 175.308 428.978 181.861L428.854 208.981C428.825 215.534 434.162 220.922 440.716 220.952Z" fill="#B7CDFF"/>
<path d="M639.64 276.547C608.29 278.381 536.64 279.357 509.144 276.543C481.796 273.745 451.976 251.263 452.539 219.508L451.682 170.187C452.176 123.616 475.127 110.968 516.552 107.706C560.8 104.222 630.566 105.492 645.39 106.021C686.046 107.473 705.855 132.326 705.292 164.081L705.422 220.456C704.8 255.514 678.731 274.261 639.64 276.547Z" fill="#698EFF"/>
<path d="M604.689 225.923L556.586 226.234C538.506 226.351 523.616 211.653 523.5 193.573L523.324 166.447C523.255 155.821 531.894 147.07 542.52 147.001L613.099 146.544C623.301 146.478 631.702 154.771 631.768 164.974L631.984 198.272C632.081 213.382 619.799 225.825 604.689 225.923Z" fill="#B7CDFF"/>
<path d="M604.46 206.509L593.199 206.651C589.335 206.7 586.136 203.579 586.087 199.716L586.083 199.417C586.034 195.553 589.155 192.353 593.018 192.304L604.28 192.163C608.143 192.114 611.344 195.235 611.393 199.098L611.396 199.397C611.445 203.261 608.324 206.46 604.46 206.509Z" fill="#698EFF"/>
<path d="M563.372 207.027L552.11 207.169C548.247 207.218 545.047 204.097 544.998 200.233L544.994 199.935C544.945 196.071 548.066 192.871 551.93 192.823L563.192 192.68C567.055 192.631 570.255 195.752 570.303 199.616L570.308 199.915C570.356 203.778 567.236 206.979 563.372 207.027Z" fill="#698EFF"/>
<path d="M625.918 228.365C622.551 229.323 610.768 233.744 605.392 237.155C600.667 240.153 597.163 242.793 601.16 248.968C605.158 255.143 618.027 260.976 629.511 257.372C640.995 253.769 646.734 242.63 646.764 235.827C646.764 235.827 647.271 230.287 643.775 227.334C640.279 224.38 631.432 226.797 625.918 228.365Z" fill="#E9459C"/>
<path d="M608.105 254.962C608.105 254.962 622.151 237.191 646.78 233.989C646.78 233.989 648.974 246.318 634.472 255.353C621.983 263.135 608.105 254.962 608.105 254.962Z" fill="#FFACD6"/>
<path d="M666.048 183.673C666.136 190.661 660.542 196.398 653.555 196.486C646.567 196.573 640.83 190.98 640.742 183.992C640.655 177.004 646.248 171.267 653.236 171.18C660.224 171.092 665.96 176.686 666.048 183.673Z" fill="#080201"/>
<path d="M514.396 184.281C514.484 191.268 508.89 197.005 501.902 197.093C494.914 197.181 489.178 191.587 489.09 184.599C489.002 177.612 494.596 171.875 501.583 171.787C508.571 171.699 514.308 177.293 514.396 184.281Z" fill="#080201"/>
<path d="M524.436 263.286C531.655 263.171 537.272 262.177 543.454 259.129L543.808 258.953C549.965 255.856 554.142 251.972 558.584 246.28C565.645 237.23 575.478 232.798 584.044 231.23L576.813 216.709C575.193 213.456 571.208 212.121 567.955 213.741L488.728 253.197C485.476 254.817 484.141 258.802 485.76 262.054L493.707 278.011C499.904 270.839 510.735 263.504 524.436 263.286Z" fill="white"/>
<path d="M614.941 293.27L584.044 231.23C575.478 232.798 565.645 237.23 558.584 246.28C554.142 251.972 549.965 255.855 543.808 258.953L543.454 259.129C537.272 262.177 531.655 263.171 524.436 263.286C510.735 263.504 499.904 270.839 493.707 278.011L523.606 338.047C531.275 325.388 545.117 312.953 562.958 304.068C581.269 294.949 600.023 291.45 614.941 293.27Z" fill="#FF78B9"/>
<path d="M548.49 373.197L627.717 333.741C630.97 332.121 632.305 328.136 630.685 324.883L614.941 293.27C600.023 291.45 581.269 294.949 562.958 304.068C545.117 312.953 531.275 325.388 523.606 338.047L539.633 370.229C541.253 373.481 545.238 374.817 548.49 373.197Z" fill="#F3DC2C"/>
<path d="M662.999 274.006L664.98 274.763C664.98 274.763 669.374 276.441 670.839 272.605C672.305 268.769 673.298 266.17 673.298 266.17C673.298 266.17 674.433 263.199 670.039 261.521C668.059 260.764 663.532 259.035 659.155 257.362C653.816 255.322 648.701 253.368 648.701 253.368C644.323 251.695 639.796 249.966 637.817 249.21C633.423 247.531 632.288 250.501 632.288 250.501C632.288 250.501 631.295 253.1 629.829 256.937C628.363 260.773 632.757 262.452 632.757 262.452L634.737 263.208" fill="#E0E0E0"/>
<path d="M634.737 263.208C632.224 264.588 633.249 267.072 633.249 267.072C633.249 267.072 631.787 271.7 627.066 274.473C622.346 277.245 608.655 285.132 603.163 299.508C597.67 313.884 584.781 347.621 584.781 347.621C584.781 347.621 582.198 355.055 592.888 359.139C596.416 360.487 600.603 362.087 604.562 363.599C604.562 363.599 611.155 366.118 618.548 368.943C622.506 370.455 626.693 372.055 630.221 373.403C640.91 377.487 643.944 370.225 643.944 370.225C643.944 370.225 656.833 336.488 662.326 322.112C667.818 307.736 662.874 292.73 661.205 287.516C659.536 282.302 661.531 277.878 661.531 277.878C661.531 277.878 663.952 276.71 662.999 274.006" fill="#AAD7F4"/>
<path d="M608.589 301.583C604.104 313.321 591.578 346.106 591.578 346.106C591.578 346.106 589.47 352.176 598.198 355.51C601.079 356.611 604.499 357.917 607.731 359.152C607.731 359.152 613.115 361.209 619.151 363.516C622.384 364.751 625.803 366.057 628.683 367.157C637.411 370.492 639.888 364.563 639.888 364.563C639.888 364.563 652.414 331.778 656.898 320.04L608.589 301.583Z" fill="white"/>
<path d="M633.779 247.831L664.792 259.679" stroke="#6996AF" stroke-width="4.13915" stroke-linecap="round" stroke-linejoin="round"/>
<path d="M591.96 316.924C593.227 331.082 585.395 342.372 567.663 341.347C552.213 340.454 542.935 328.072 546.342 314.288C549.982 299.558 560.554 286.403 570.821 286.706C581.863 287.031 590.56 301.279 591.96 316.924Z" fill="white"/>
<path d="M591.96 316.924C593.227 331.082 585.395 342.372 567.663 341.347C552.213 340.454 542.935 328.072 546.342 314.288C549.982 299.558 560.554 286.403 570.821 286.706C581.863 287.031 590.56 301.279 591.96 316.924Z" stroke="#C1C1C1" stroke-width="3.31132" stroke-linecap="round" stroke-linejoin="round"/>
<path d="M626.602 336.435C625.867 350.63 616.526 360.707 599.114 357.202C583.943 354.147 576.497 340.585 581.806 327.416C587.479 313.344 599.795 301.804 609.918 303.546C620.804 305.42 627.413 320.748 626.602 336.435Z" fill="white"/>
<path d="M626.602 336.435C625.867 350.63 616.526 360.707 599.114 357.202C583.943 354.147 576.497 340.585 581.806 327.416C587.479 313.344 599.795 301.804 609.918 303.546C620.804 305.42 627.413 320.748 626.602 336.435Z" stroke="#C1C1C1" stroke-width="3.31132" stroke-linecap="round" stroke-linejoin="round"/>
<path d="M552.362 317.475C558.501 330.295 555.113 343.611 538.143 348.853C523.356 353.421 510.334 345.067 508.703 330.961C506.961 315.889 512.264 299.867 521.989 296.559C532.447 293.002 545.578 303.308 552.362 317.475Z" fill="white"/>
<path d="M552.362 317.475C558.501 330.295 555.113 343.611 538.143 348.853C523.356 353.421 510.334 345.067 508.703 330.961C506.961 315.889 512.264 299.867 521.989 296.559C532.447 293.002 545.578 303.308 552.362 317.475Z" stroke="#C1C1C1" stroke-width="3.31132" stroke-linecap="round" stroke-linejoin="round"/>
<path d="M522.559 323.79C522.559 323.79 530.565 322.136 539.853 320.616C549.141 319.095 573.083 320.299 579.567 344C586.052 367.702 568.969 382.412 545.119 388.173C517.033 394.957 459.162 388.07 442.491 358.65C408.7 299.02 491.826 279.132 491.826 279.132L506.654 325.617" fill="#698EFF"/>
<path d="M641.399 323.79C641.399 323.79 633.393 322.136 624.105 320.616C614.816 319.095 590.875 320.299 584.39 344C577.906 367.702 594.988 382.412 618.838 388.173C646.925 394.957 704.795 388.07 721.467 358.65C755.257 299.02 672.131 279.132 672.131 279.132L657.303 325.617" fill="#698EFF"/>
<path d="M564.706 426.687H599.682C633.853 426.687 663.168 404.831 674.337 374.409H490.052C501.221 404.831 530.535 426.687 564.706 426.687Z" fill="#D11583"/>
<path d="M679.16 347.209C679.16 341.444 674.443 336.727 668.677 336.727H495.71C489.945 336.727 485.228 341.444 485.228 347.209C485.228 350.391 485.423 353.53 485.791 356.617H678.596C678.965 353.53 679.16 350.391 679.16 347.209Z" fill="#D11583"/>
<path d="M485.792 356.617C486.528 362.787 487.972 368.747 490.051 374.409H674.337C676.416 368.747 677.86 362.787 678.597 356.617H485.792Z" fill="white"/>
<mask id="mask1_867_90017" style="mask-type:luminance" maskUnits="userSpaceOnUse" x="-43" y="-167" width="900" height="600">
<path d="M-43 -167H857V433H-43V-167Z" fill="white"/>
</mask>
<g mask="url(#mask1_867_90017)">
<path d="M105.91 38.0098H118.204C121.168 38.0098 123.699 38.4224 125.719 39.3347C127.598 40.1057 129.194 41.4524 130.345 43.1357C131.355 44.819 131.931 46.7086 131.855 48.6091C131.855 50.5748 131.355 52.4753 130.269 54.1586C129.118 55.9179 127.38 57.2428 125.426 58.0899C123.254 59.0782 120.517 59.556 117.335 59.556H105.91V38.0098ZM117.259 54.0174C119.279 54.0174 120.799 53.5287 121.885 52.5404C122.971 51.487 123.547 50.0752 123.471 48.5331C123.547 47.1322 123.036 45.8072 122.026 44.819C121.082 43.9067 119.648 43.4072 117.693 43.4072H113.86V53.9414H117.259V54.0174Z" fill="white"/>
<path d="M150.361 59.4802C148.775 59.0567 147.179 58.4376 145.734 57.5906V52.4646C146.962 53.3769 148.406 54.0068 149.85 54.3543C151.512 54.843 153.173 55.0602 154.911 55.1253C155.487 55.1253 156.073 55.0602 156.649 54.8538C157.007 54.6475 157.224 54.4303 157.224 54.1479C157.224 53.8656 157.148 53.5832 156.931 53.3769C156.573 53.0945 156.138 52.9533 155.704 52.8882L151.946 52.0411C149.774 51.5524 148.265 50.8465 147.32 49.9994C146.375 49.0872 145.876 47.8274 145.952 46.5677C145.952 45.4491 146.386 44.3196 147.179 43.4726C148.124 42.4843 149.275 41.7893 150.578 41.4417C152.24 40.953 153.977 40.6707 155.78 40.7358C157.441 40.7358 159.038 40.877 160.623 41.3006C161.927 41.5829 163.143 42.0716 164.305 42.7015V47.5451C163.219 46.9152 162.068 46.4916 160.917 46.2093C159.613 45.8618 158.234 45.7206 156.931 45.7206C154.976 45.7206 153.977 46.079 153.977 46.7088C153.977 46.9912 154.107 47.2627 154.401 47.4039C154.911 47.6102 155.498 47.7623 156.073 47.9034L159.244 48.4573C161.264 48.8048 162.861 49.4347 163.871 50.2818C164.881 51.1289 165.391 52.4646 165.391 54.1479C165.391 55.9724 164.446 57.6557 162.861 58.568C161.199 59.6214 158.81 60.1861 155.704 60.1861C153.901 60.1209 152.098 59.9037 150.361 59.4802Z" fill="white"/>
<path d="M172.775 58.8611C171.114 58.09 169.659 56.8954 168.649 55.3533C167.704 53.8764 167.28 52.117 167.28 50.3577C167.28 48.5984 167.715 46.926 168.725 45.449C169.735 43.9069 171.179 42.7774 172.917 42.0064C175.013 41.1593 177.261 40.6815 179.498 40.7466C182.68 40.7466 185.275 41.3765 187.371 42.7123V48.3269C186.578 47.8382 185.721 47.4147 184.776 47.1323C183.766 46.8499 182.68 46.6436 181.594 46.6436C179.639 46.6436 178.129 46.9911 176.967 47.697C175.382 48.5441 174.871 50.4337 175.74 51.9759C176.033 52.4646 176.457 52.8881 176.967 53.1705C178.053 53.8764 179.563 54.2239 181.659 54.2239C182.745 54.2239 183.766 54.0827 184.776 53.8003C185.721 53.518 186.578 53.1705 187.371 52.6818V58.09C184.917 59.491 182.169 60.186 179.346 60.1209C177.109 60.186 174.795 59.7733 172.775 58.8611Z" fill="white"/>
<path d="M195.255 58.8502C193.518 58.0792 192.074 56.8846 191.064 55.3424C190.119 53.8655 189.619 52.117 189.619 50.3577C189.619 48.5984 190.054 46.9151 191.064 45.4381C192.074 43.9612 193.518 42.7774 195.255 42.0715C199.371 40.4534 204.074 40.4534 208.19 42.0715C209.851 42.7774 211.296 43.9612 212.306 45.4381C213.251 46.9151 213.75 48.6744 213.75 50.3577C213.75 52.117 213.251 53.8655 212.306 55.3424C211.296 56.8846 209.851 58.0792 208.19 58.8502C203.998 60.5335 199.371 60.5335 195.255 58.8502ZM204.791 53.3768C205.583 52.6057 206.029 51.4763 205.953 50.4229C206.029 49.3043 205.583 48.2509 204.791 47.4798C203.922 46.7087 202.771 46.3504 201.609 46.3504C200.447 46.2852 199.306 46.7087 198.437 47.4798C197.645 48.2509 197.199 49.3043 197.275 50.4229C197.199 51.5414 197.645 52.6057 198.437 53.3768C199.306 54.1478 200.447 54.5605 201.609 54.4954C202.836 54.5605 203.998 54.1478 204.791 53.3768Z" fill="white"/>
<path d="M232.69 41.8544V48.5333C231.745 47.9685 230.67 47.697 229.584 47.7622C227.922 47.7622 226.63 48.24 225.685 49.2283C224.816 50.2166 224.306 51.7587 224.306 53.8655V59.4801H216.574V41.5068H224.165V47.1975C224.599 45.0906 225.24 43.5485 226.185 42.5603C227.13 41.572 228.433 41.0181 229.801 41.0833C230.811 41.0833 231.821 41.3657 232.69 41.8544Z" fill="white"/>
<path d="M258.407 37.3691V59.491H250.674V55.4836C250.099 56.8846 249.013 58.1552 247.71 58.9262C246.189 59.7733 244.538 60.186 242.801 60.1208C241.215 60.186 239.619 59.7082 238.25 58.8611C236.947 58.014 235.861 56.8194 235.21 55.4185C234.493 53.8763 234.124 52.1822 234.124 50.4989C234.048 48.7396 234.493 46.9911 235.21 45.449C235.937 43.972 237.099 42.7883 238.468 41.9412C239.912 41.0941 241.574 40.6706 243.235 40.6706C246.917 40.6706 249.371 42.2236 250.674 45.3078V37.3691H258.407ZM249.523 53.2356C250.316 52.4645 250.75 51.4111 250.674 50.3577C250.674 49.3043 250.24 48.2617 249.523 47.5558C247.72 46.0789 245.114 46.0789 243.235 47.5558C242.442 48.3269 241.997 49.3043 242.073 50.3577C241.997 51.4111 242.442 52.4645 243.235 53.2356C244.104 54.0067 245.179 54.365 246.341 54.365C247.568 54.4302 248.654 54.0067 249.523 53.2356Z" fill="white"/>
<path d="M77.4465 32.667C73.6889 31.0488 69.7033 29.8651 65.5874 29.1592C65.0118 30.1474 64.5122 31.1248 64.0778 32.1783C59.7447 31.5484 55.2486 31.5484 50.9155 32.1783C50.4811 31.1248 49.9815 30.1474 49.406 29.1592C45.3552 29.8651 41.3804 31.0597 37.5468 32.743C30.1077 43.4835 28.0769 53.9417 29.0869 64.3347C33.4961 67.495 38.4156 69.8842 43.6176 71.4263C44.7687 69.8842 45.8547 68.266 46.7235 66.5827C45.062 65.9529 43.4004 65.1818 41.8148 64.3347C42.2492 64.0524 42.6076 63.77 43.042 63.4876C52.2187 67.7013 62.8398 67.7013 72.0925 63.4876C72.4509 63.77 72.8853 64.1284 73.3197 64.3347C71.7341 65.247 70.1486 66.018 68.411 66.5827C69.2798 68.266 70.3658 69.8842 71.5169 71.4263C76.7189 69.8842 81.6384 67.495 86.0476 64.3347C87.1988 52.3236 83.9516 41.9305 77.4465 32.667ZM47.9507 57.949C45.1271 57.949 42.7488 55.4187 42.7488 52.3996C42.7488 49.3805 44.9968 46.785 47.8856 46.785C50.7743 46.785 53.0875 49.3153 53.0875 52.3996C53.0875 55.4838 50.8395 57.949 47.9507 57.949ZM67.0317 57.949C64.2081 57.949 61.9058 55.4187 61.9058 52.3996C61.9058 49.3805 64.143 46.785 67.0317 46.785C69.9205 46.785 72.2445 49.3153 72.1685 52.3996C72.1685 55.4838 69.9205 57.949 67.0317 57.949Z" fill="white"/>
<path d="M138.436 43.4725C140.554 43.4725 142.27 41.9629 142.27 40.1059C142.27 38.2488 140.554 36.7393 138.436 36.7393C136.318 36.7393 134.603 38.2488 134.603 40.1059C134.603 41.9629 136.318 43.4725 138.436 43.4725Z" fill="white"/>
<path d="M134.614 45.7969C137.068 46.7851 139.892 46.7851 142.346 45.7969V59.6325H134.614V45.7969Z" fill="white"/>
</g>
</g>
</g>
</g>
<defs>
<linearGradient id="paint0_linear_867_90017" x1="34.2909" y1="-100.075" x2="802.093" y2="531.113" gradientUnits="userSpaceOnUse">
<stop stop-color="#FF16A6"/>
<stop offset="0.42" stop-color="#FE4B72"/>
<stop offset="0.64" stop-color="#FE803F"/>
<stop offset="0.82" stop-color="#FEB44E"/>
<stop offset="1" stop-color="#FEE75C"/>
</linearGradient>
<clipPath id="clip0_867_90017">
<rect x="2" y="3" width="810.5" height="430" rx="44" fill="white"/>
</clipPath>
<clipPath id="clip1_867_90017">
<rect width="900" height="600" fill="white" transform="translate(-43 -167)"/>
</clipPath>
</defs>
</svg>
