<svg width="815" height="435" viewBox="0 0 815 435" fill="none" xmlns="http://www.w3.org/2000/svg">
<g clip-path="url(#clip0_867_89609)">
<rect x="2" y="3" width="810.5" height="430" rx="44" fill="white"/>
<mask id="mask0_867_89609" style="mask-type:luminance" maskUnits="userSpaceOnUse" x="-44" y="-167" width="900" height="600">
<path d="M856 -167H-44V433H856V-167Z" fill="white"/>
</mask>
<g mask="url(#mask0_867_89609)">
<path d="M43.737 2.66016C20.776 2.66016 1.98999 21.4472 1.98999 44.4082V392.857C1.98999 415.818 20.776 434.605 43.737 434.605H770.716C793.677 434.605 812.464 415.818 812.464 392.857V44.4082C812.464 21.4472 793.677 2.66016 770.716 2.66016H43.737Z" fill="url(#paint0_linear_867_89609)"/>
<g opacity="0.2">
<path d="M206.876 144.43H318.288C319.05 144.43 319.697 143.865 319.788 143.108C320.266 139.119 320.225 126.613 304.499 112.737C288.175 98.333 254.083 104.669 243.818 129.123C243.543 129.779 242.843 130.146 242.145 130.014C236.888 129.018 215.889 126.194 205.615 142.081C204.96 143.094 205.67 144.43 206.876 144.43Z" fill="white"/>
</g>
<g opacity="0.2">
<path d="M42.155 434.372H769.133C792.095 434.372 810.881 415.586 810.881 392.624V293.471C688.029 292.289 628.06 400.513 628.06 400.513C628.06 400.513 551.81 278.807 427.17 277.341C302.531 275.874 265.872 340.392 265.872 340.392C265.872 340.392 158.829 190.825 98.709 173.229C38.589 155.633 0.463989 198.158 0.463989 198.158V394.786C1.59799 416.753 19.919 434.372 42.155 434.372Z" fill="white"/>
</g>
<path d="M1.98402 395.523C1.98402 395.523 -1.38798 371.916 21.57 364.372C41.859 357.705 56.787 372.029 56.787 372.029C56.787 372.029 50.1 325.223 84.368 309.284C125.802 290.013 162.417 316.029 161.891 370.072C161.891 370.072 197.191 354.39 230.61 377.543C256.711 395.625 254.994 425.763 251.811 434.089" stroke="#3B47D9" stroke-width="1.245" stroke-miterlimit="10"/>
<path d="M262.782 213.932C263.051 216.262 264.961 229.77 272.945 230.982C264.956 232.184 263.051 245.715 262.782 248.03C262.508 245.715 260.602 232.184 252.613 230.982C260.597 229.77 262.508 216.262 262.782 213.932Z" fill="#4EADF4"/>
<path d="M786.603 125.65C786.803 127.377 788.218 137.389 794.136 138.288C788.215 139.179 786.803 149.208 786.603 150.924C786.4 149.208 784.987 139.179 779.066 138.288C784.984 137.389 786.4 127.377 786.603 125.65Z" fill="#D3E3EF"/>
<path d="M148.393 126.45C148.766 129.682 151.416 148.423 162.494 150.105C151.409 151.773 148.766 170.545 148.393 173.758C148.013 170.545 145.37 151.773 134.286 150.105C145.364 148.423 148.013 129.682 148.393 126.45Z" fill="#97FFBA"/>
<path d="M693.553 130.978C693.553 170.138 661.808 201.883 622.648 201.883C583.488 201.882 551.743 170.137 551.743 130.977C551.743 91.8173 583.488 60.0724 622.648 60.0725C661.808 60.0727 693.553 91.8178 693.553 130.978Z" fill="#57F287"/>
<path d="M619.889 83.1375C619.889 119.7 590.25 149.339 553.688 149.339C517.125 149.339 487.485 119.7 487.485 83.137C487.485 46.574 517.304 17.9991 553.867 17.9993C590.429 17.9994 619.889 46.5745 619.889 83.1375Z" fill="#57F287"/>
<path d="M537.747 133.37C537.747 170.509 507.64 200.616 470.501 200.616C433.362 200.616 403.255 170.509 403.255 133.37C403.255 96.2305 433.362 66.1236 470.501 66.1238C507.64 66.1239 537.747 96.231 537.747 133.37Z" fill="#57F287"/>
<path d="M784.782 183.305L434.365 183.259L294.417 183.074L295.707 156.833L661.96 156.826L785.057 157.6L784.782 183.305Z" fill="black"/>
<path d="M294.899 183.842L294.899 130.11L663.42 130.112L663.42 183.844L294.899 183.842Z" fill="#EA449E"/>
<path d="M643.417 142.211C651.253 142.211 657.808 136.797 659.593 129.511L627.241 129.511C629.025 136.797 635.581 142.211 643.417 142.211Z" fill="#E5AAD8"/>
<path d="M595.133 163.974C583.336 163.974 573.295 171.477 569.511 181.97L620.755 181.97C616.971 171.477 606.93 163.974 595.133 163.974Z" fill="#E5AAD8"/>
<path d="M552.077 142.211C559.913 142.211 566.469 136.797 568.253 129.511L535.901 129.511C537.685 136.797 544.241 142.211 552.077 142.211Z" fill="#E5AAD8"/>
<path d="M412.001 142.211C419.837 142.211 426.393 136.797 428.177 129.511L395.825 129.511C397.609 136.797 404.165 142.211 412.001 142.211Z" fill="#E5AAD8"/>
<path d="M343.698 163.973C331.901 163.973 321.86 171.476 318.076 181.969L369.32 181.969C365.536 171.476 355.495 163.973 343.698 163.973Z" fill="#E5AAD8"/>
<path d="M518.138 129.26L446.04 129.26L446.04 181.914L518.138 181.914L518.138 129.26Z" fill="#56F186"/>
<path d="M785.344 182.984L662 182.984L662 129.477L785.344 129.477L785.344 182.984Z" fill="#D01482"/>
<path d="M689.341 168.617C682.073 168.617 673.876 174.803 673.556 182.869L705.126 182.869C704.126 174.19 696.609 168.617 689.341 168.617Z" fill="#E5AAD8"/>
<path d="M768.116 172.319C762.736 172.319 756.668 176.898 756.431 182.869L779.802 182.869C779.061 176.444 773.496 172.319 768.116 172.319Z" fill="#E5AAD8"/>
<path d="M750.556 142.977C757.265 142.978 765.626 137.72 765.126 129.493L735.985 129.493C736.001 138.211 743.847 142.977 750.556 142.977Z" fill="#E5AAD8"/>
<path d="M742.001 129.63L710.751 129.63L710.751 183L742.001 183L742.001 129.63Z" fill="#28CB79"/>
<path d="M304.479 183.178L662.001 183.179L775.344 183.18" stroke="#8E286F" stroke-width="5" stroke-linecap="round" stroke-linejoin="round"/>
<path d="M773.532 225.629L304.5 228.565L304.143 178.232L434.715 157.096L774.633 156.749L773.532 225.629Z" fill="black"/>
<path d="M462.67 400.379C462.67 400.379 389.029 481.72 394.351 489.584C407.072 508.379 403.099 485.579 445.221 483.385" stroke="#688DFF" stroke-width="80.0023" stroke-linecap="round"/>
<path d="M688.276 402.546C690.654 424.019 697.254 442.423 701.329 457.19" stroke="#3C57D8" stroke-width="85.0024" stroke-linecap="round"/>
<path d="M688.276 409.69C691.079 435.006 699.752 456.055 703.235 471.909C705.51 482.265 696.3 439.674 676.888 382.678" stroke="#688DFF" stroke-width="85.0024" stroke-linecap="round"/>
<path d="M579.391 367.75L486.063 367.75C468.502 367.75 456.348 373.393 448.019 380.431C437.004 389.738 430.913 403.623 430.913 418.043L430.913 515.116C430.913 542.673 453.253 565.014 480.811 565.014L628.681 565.014C656.239 565.014 678.579 542.673 678.579 515.116L678.579 418.004C678.579 404.192 673.008 390.83 662.767 381.563C654.419 374.008 641.923 367.75 623.43 367.75L530.102 367.75" fill="#698EFF"/>
<path d="M674.957 405.91C672.959 425.218 620.782 435.64 558.414 429.187C496.047 422.734 447.107 401.85 449.105 382.542C451.103 363.234 503.282 352.812 565.648 359.265C628.016 365.718 676.955 386.602 674.957 405.91Z" fill="#4B67EC"/>
<path d="M396.671 305.857L412.188 309.173C431.096 313.211 449.87 301.044 453.908 282.136L460.995 248.958C465.032 230.051 452.867 211.275 433.959 207.237L418.441 203.924C399.533 199.885 380.76 212.05 376.722 230.958L369.635 264.138C365.597 283.046 377.763 301.819 396.671 305.857Z" fill="#698EFF"/>
<path d="M400.811 279.984L419.044 283.879C422.257 284.565 425.449 282.496 426.135 279.282L436.149 232.394C436.838 229.171 434.764 225.97 431.54 225.282L413.324 221.392C405.788 219.783 398.305 224.631 396.696 232.167L390.035 263.355C388.425 270.892 393.275 278.375 400.811 279.984Z" fill="#B7CDFF"/>
<path d="M727.988 364.301L712.349 361.622C693.292 358.357 680.371 340.095 683.636 321.038L689.365 287.597C692.629 268.541 710.892 255.621 729.949 258.885L745.588 261.565C764.645 264.829 777.566 283.092 774.301 302.148L768.572 335.588C765.308 354.644 747.045 367.565 727.988 364.301Z" fill="#698EFF"/>
<path d="M733.743 338.737L715.366 335.59C712.127 335.035 709.931 331.931 710.486 328.692L718.581 281.435C719.137 278.186 722.251 275.983 725.5 276.54L743.859 279.684C751.454 280.985 756.605 288.266 755.304 295.861L749.918 327.294C748.617 334.89 741.339 340.038 733.743 338.737Z" fill="#B7CDFF"/>
<path d="M627.14 415.472C590.428 411.495 492.173 396.224 460.835 387.608C429.666 379.039 399.464 347.162 406.299 310.447L418.515 253.676C428.155 199.766 457.235 189.568 505.908 193.849C557.897 198.424 649.918 215.341 667.007 218.842C713.87 228.44 732.004 261.117 725.169 297.832L714.343 363.232C706.797 403.767 672.917 420.43 627.14 415.472Z" fill="#698EFF"/>
<path d="M591.985 424.205C586.847 426.706 579.566 433.018 591.778 442.609C596.887 446.62 632.867 435.266 634.047 428.422C634.047 428.422 635.237 423.526 632.294 420.803C624.021 413.15 598.387 421.089 591.985 424.205Z" fill="#E9459C"/>
<path d="M591.707 442.594C591.707 442.594 608.676 427.476 634.017 428.415C634.017 428.415 630.821 446.221 613.061 449.617C601.877 451.757 591.707 442.594 591.707 442.594Z" fill="#FFACD6"/>
<path d="M651.434 356.386C650.367 363.253 643.936 367.963 637.057 366.894C630.188 365.838 625.48 359.397 626.547 352.529C627.605 345.648 634.046 340.94 640.914 342.008C647.793 343.076 652.503 349.507 651.434 356.386ZM476.098 329.34C475.017 336.322 468.475 341.1 461.493 340.019C454.51 338.939 449.731 332.408 450.813 325.414C451.894 318.432 458.425 313.653 465.418 314.735C472.4 315.815 477.178 322.358 476.098 329.34Z" stroke="#070100" stroke-width="5.75839"/>
<path d="M651.437 356.38C650.371 363.255 643.936 367.965 637.061 366.899C630.187 365.833 625.476 359.397 626.542 352.522C627.608 345.648 634.044 340.939 640.919 342.004C647.794 343.07 652.503 349.505 651.437 356.38Z" fill="#080201"/>
<path d="M476.099 329.338C475.016 336.321 468.479 341.106 461.496 340.023C454.513 338.94 449.727 332.403 450.81 325.42C451.893 318.437 458.431 313.651 465.414 314.734C472.397 315.817 477.182 322.355 476.099 329.338Z" fill="#080201"/>
<path d="M568.462 407.772L512.618 398.767C491.628 395.382 477.224 375.44 480.608 354.45L485.685 322.959C487.674 310.624 499.396 302.157 511.733 304.146L593.668 317.358C605.512 319.268 613.639 330.52 611.73 342.364L605.497 381.021C602.668 398.562 586.004 410.6 568.462 407.772Z" fill="#B7CDFF"/>
<path d="M562.729 383.774L549.643 381.746C545.153 381.05 542.049 376.808 542.744 372.318L542.798 371.97C543.494 367.482 547.736 364.378 552.226 365.073L565.313 367.101C569.803 367.797 572.907 372.039 572.211 376.529L572.157 376.877C571.461 381.365 567.219 384.469 562.729 383.774Z" fill="#698EFF"/>
<path d="M514.98 376.375L501.893 374.347C497.403 373.652 494.3 369.409 494.995 364.919L495.049 364.572C495.744 360.083 499.987 356.979 504.477 357.675L517.564 359.703C522.054 360.398 525.157 364.641 524.462 369.131L524.408 369.478C523.711 373.967 519.47 377.071 514.98 376.375Z" fill="#698EFF"/>
<path d="M665.492 433.914L304.628 433.913L304.629 179.519L662.378 179.374L665.492 433.914Z" fill="#EB459F"/>
<path d="M775.626 433.732L662.381 433.732L662.382 179.338L775.602 156.838L775.626 433.732Z" fill="#D11583"/>
<path d="M525.804 252.937C511.45 252.937 499.814 264.573 499.814 278.927C499.814 293.281 511.45 304.917 525.804 304.917C540.158 304.917 551.794 293.281 551.794 278.927C551.794 264.573 540.158 252.937 525.804 252.937Z" fill="#E5AAD8"/>
<path d="M743.241 285.568C757.587 285.079 768.82 273.054 768.331 258.708C767.842 244.362 755.817 233.129 741.471 233.618C734.273 233.863 727.86 237.014 723.317 241.904L724.565 278.537C729.43 283.106 736.043 285.813 743.241 285.568Z" fill="#EA449E"/>
<path d="M388.507 245.136C370.594 245.136 356.072 259.657 356.072 277.57C356.072 295.484 370.593 310.005 388.507 310.005C406.42 310.005 420.941 295.484 420.941 277.571C420.941 259.658 406.42 245.136 388.507 245.136Z" fill="#E5AAD8"/>
<path d="M619.353 269.509C602.777 269.509 589.341 282.945 589.341 299.52C589.341 316.096 602.777 329.532 619.352 329.532C635.928 329.532 649.364 316.096 649.364 299.521C649.364 282.946 635.928 269.509 619.353 269.509Z" fill="#E5AAD8"/>
<path d="M519.387 197.607C531.11 197.607 541.017 189.844 544.256 179.179L494.518 179.179C497.757 189.844 507.664 197.607 519.387 197.607Z" fill="#E5AAD8"/>
<path d="M399.191 197.607C410.914 197.607 420.821 189.844 424.06 179.179L374.322 179.179C377.561 189.844 387.468 197.607 399.191 197.607Z" fill="#E5AAD8"/>
<path d="M566.277 337.542C557.489 337.542 550.365 344.666 550.365 353.454C550.365 362.241 557.489 369.365 566.277 369.365C575.065 369.365 582.189 362.241 582.189 353.454C582.189 344.666 575.065 337.542 566.277 337.542Z" fill="#E5AAD8"/>
<path d="M446.478 306.457C437.69 306.457 430.566 313.581 430.565 322.369C430.565 331.156 437.689 338.28 446.477 338.28C455.265 338.28 462.389 331.156 462.389 322.369C462.39 313.581 455.266 306.457 446.478 306.457Z" fill="#E5AAD8"/>
<path d="M339.223 332.013C330.435 332.013 323.311 339.137 323.311 347.925C323.311 356.712 330.435 363.836 339.223 363.836C348.011 363.836 355.135 356.712 355.135 347.925C355.135 339.137 348.011 332.013 339.223 332.013Z" fill="#E5AAD8"/>
<path d="M683.671 322.963C674.883 322.963 667.759 330.087 667.759 338.875C667.759 347.662 674.883 354.786 683.671 354.786C692.459 354.786 699.583 347.662 699.583 338.875C699.583 330.087 692.459 322.963 683.671 322.963Z" fill="#EA449E"/>
<path d="M584.767 217.303C575.979 217.303 568.855 224.428 568.855 233.216C568.855 242.003 575.979 249.127 584.767 249.127C593.555 249.127 600.679 242.003 600.679 233.216C600.679 224.428 593.555 217.303 584.767 217.303Z" fill="#E5AAD8"/>
<path d="M351.262 201.311C342.474 201.311 335.35 208.436 335.35 217.224C335.35 226.011 342.474 233.135 351.262 233.135C360.05 233.135 367.174 226.011 367.174 217.224C367.174 208.436 360.05 201.311 351.262 201.311Z" fill="#E5AAD8"/>
<path d="M706.672 195.307C697.884 195.307 690.76 202.432 690.76 211.22C690.76 220.007 697.884 227.131 706.672 227.131C715.46 227.131 722.584 220.007 722.584 211.22C722.584 202.432 715.46 195.307 706.672 195.307Z" fill="#EA449E"/>
<path d="M505.705 362.426C487.337 362.426 472.447 377.316 472.447 395.684C472.447 414.052 487.337 428.943 505.705 428.943C524.073 428.943 538.963 414.053 538.964 395.684C538.964 377.316 524.074 362.426 505.705 362.426Z" fill="#E5AAD8"/>
<path d="M756.917 348.019C742.563 348.019 730.927 359.655 730.927 374.009C730.927 388.363 742.563 399.999 756.917 399.999C764.119 399.999 770.636 397.068 775.343 392.336L775.343 355.682C770.636 350.95 764.119 348.019 756.917 348.019Z" fill="#EA449E"/>
<path d="M383.386 373.8C369.032 373.8 357.396 385.436 357.396 399.79C357.396 414.144 369.032 425.78 383.386 425.78C397.74 425.78 409.376 414.144 409.376 399.79C409.376 385.436 397.74 373.8 383.386 373.8Z" fill="#E5AAD8"/>
<path d="M623.346 373.001C612.303 373.001 603.352 381.953 603.352 392.996C603.352 404.038 612.303 412.99 623.346 412.99C634.389 412.99 643.341 404.039 643.341 392.996C643.341 381.953 634.389 373.001 623.346 373.001Z" fill="#E5AAD8"/>
<path d="M515.346 433.573L448.974 433.573L448.975 179.179L515.347 179.179L515.346 433.573Z" fill="#57F287"/>
<path d="M742.097 433.574L711.157 433.574L711.166 168.993L742.046 163.055L742.097 433.574Z" fill="#29CC7A"/>
<path d="M294.479 183.207L294.479 129.475L663 129.476L663 183.208L294.479 183.207Z" fill="#EA449E"/>
<path d="M643.417 142.211C651.253 142.211 657.808 136.797 659.593 129.511L627.241 129.511C629.025 136.797 635.581 142.211 643.417 142.211Z" fill="#E5AAD8"/>
<path d="M595.133 163.974C583.336 163.974 573.295 171.477 569.511 181.97L620.755 181.97C616.971 171.477 606.93 163.974 595.133 163.974Z" fill="#E5AAD8"/>
<path d="M552.077 142.211C559.913 142.211 566.469 136.797 568.253 129.511L535.901 129.511C537.685 136.797 544.241 142.211 552.077 142.211Z" fill="#E5AAD8"/>
<path d="M412.001 142.211C419.837 142.211 426.393 136.797 428.177 129.511L395.825 129.511C397.609 136.797 404.165 142.211 412.001 142.211Z" fill="#E5AAD8"/>
<path d="M343.698 163.973C331.901 163.973 321.86 171.476 318.076 181.969L369.32 181.969C365.536 171.476 355.495 163.973 343.698 163.973Z" fill="#E5AAD8"/>
<path d="M518.138 129.26L446.04 129.26L446.04 181.914L518.138 181.914L518.138 129.26Z" fill="#57F287"/>
<path d="M785.344 182.984L662 182.984L662 129.477L785.344 129.477L785.344 182.984Z" fill="#D01482"/>
<path d="M689.341 168.617C682.073 168.617 673.876 174.803 673.556 182.869L705.126 182.869C704.126 174.19 696.609 168.617 689.341 168.617Z" fill="#EA449E"/>
<path d="M768.116 172.319C762.736 172.319 756.668 176.898 756.431 182.869L779.802 182.869C779.061 176.444 773.496 172.319 768.116 172.319Z" fill="#EA449E"/>
<path d="M750.556 142.977C757.265 142.978 765.626 137.72 765.126 129.493L735.985 129.493C736.001 138.211 743.847 142.977 750.556 142.977Z" fill="#EA449E"/>
<path d="M742.001 129.63L710.751 129.63L710.751 183L742.001 183L742.001 129.63Z" fill="#29CC7A"/>
<path d="M304.479 183.178L662.001 183.179L775.344 183.18" stroke="#8E286F" stroke-width="5" stroke-linecap="round" stroke-linejoin="round"/>
<mask id="mask1_867_89609" style="mask-type:luminance" maskUnits="userSpaceOnUse" x="-44" y="-167" width="900" height="600">
<path d="M-44 -167H856V433H-44V-167Z" fill="white"/>
</mask>
<g mask="url(#mask1_867_89609)">
<path d="M104.91 38.0098H117.204C120.168 38.0098 122.699 38.4224 124.719 39.3347C126.598 40.1057 128.194 41.4524 129.345 43.1357C130.355 44.819 130.931 46.7086 130.855 48.6091C130.855 50.5748 130.355 52.4753 129.269 54.1586C128.118 55.9179 126.38 57.2428 124.426 58.0899C122.254 59.0782 119.517 59.556 116.335 59.556H104.91V38.0098ZM116.259 54.0174C118.279 54.0174 119.799 53.5287 120.885 52.5404C121.971 51.487 122.547 50.0752 122.471 48.5331C122.547 47.1322 122.036 45.8072 121.026 44.819C120.082 43.9067 118.648 43.4072 116.693 43.4072H112.86V53.9414H116.259V54.0174Z" fill="white"/>
<path d="M149.361 59.4802C147.775 59.0567 146.179 58.4376 144.734 57.5906V52.4646C145.962 53.3769 147.406 54.0068 148.85 54.3543C150.512 54.843 152.173 55.0602 153.911 55.1253C154.487 55.1253 155.073 55.0602 155.649 54.8538C156.007 54.6475 156.224 54.4303 156.224 54.1479C156.224 53.8656 156.148 53.5832 155.931 53.3769C155.573 53.0945 155.138 52.9533 154.704 52.8882L150.946 52.0411C148.774 51.5524 147.265 50.8465 146.32 49.9994C145.375 49.0872 144.876 47.8274 144.952 46.5677C144.952 45.4491 145.386 44.3196 146.179 43.4726C147.124 42.4843 148.275 41.7893 149.578 41.4417C151.24 40.953 152.977 40.6707 154.78 40.7358C156.441 40.7358 158.038 40.877 159.623 41.3006C160.927 41.5829 162.143 42.0716 163.305 42.7015V47.5451C162.219 46.9152 161.068 46.4916 159.917 46.2093C158.613 45.8618 157.234 45.7206 155.931 45.7206C153.976 45.7206 152.977 46.079 152.977 46.7088C152.977 46.9912 153.107 47.2627 153.401 47.4039C153.911 47.6102 154.498 47.7623 155.073 47.9034L158.244 48.4573C160.264 48.8048 161.861 49.4347 162.871 50.2818C163.881 51.1289 164.391 52.4646 164.391 54.1479C164.391 55.9724 163.446 57.6557 161.861 58.568C160.199 59.6214 157.81 60.1861 154.704 60.1861C152.901 60.1209 151.098 59.9037 149.361 59.4802Z" fill="white"/>
<path d="M171.775 58.8611C170.114 58.09 168.659 56.8954 167.649 55.3533C166.704 53.8764 166.28 52.117 166.28 50.3577C166.28 48.5984 166.715 46.926 167.725 45.449C168.735 43.9069 170.179 42.7774 171.917 42.0064C174.013 41.1593 176.261 40.6815 178.498 40.7466C181.68 40.7466 184.275 41.3765 186.371 42.7123V48.3269C185.578 47.8382 184.721 47.4147 183.776 47.1323C182.766 46.8499 181.68 46.6436 180.594 46.6436C178.639 46.6436 177.129 46.9911 175.967 47.697C174.382 48.5441 173.871 50.4337 174.74 51.9759C175.033 52.4646 175.457 52.8881 175.967 53.1705C177.053 53.8764 178.563 54.2239 180.659 54.2239C181.745 54.2239 182.766 54.0827 183.776 53.8003C184.721 53.518 185.578 53.1705 186.371 52.6818V58.09C183.917 59.491 181.169 60.186 178.346 60.1209C176.109 60.186 173.795 59.7733 171.775 58.8611Z" fill="white"/>
<path d="M194.255 58.8502C192.518 58.0792 191.074 56.8846 190.064 55.3424C189.119 53.8655 188.619 52.117 188.619 50.3577C188.619 48.5984 189.054 46.9151 190.064 45.4381C191.074 43.9612 192.518 42.7774 194.255 42.0715C198.371 40.4534 203.074 40.4534 207.19 42.0715C208.851 42.7774 210.296 43.9612 211.306 45.4381C212.251 46.9151 212.75 48.6744 212.75 50.3577C212.75 52.117 212.251 53.8655 211.306 55.3424C210.296 56.8846 208.851 58.0792 207.19 58.8502C202.998 60.5335 198.371 60.5335 194.255 58.8502ZM203.791 53.3768C204.583 52.6057 205.029 51.4763 204.953 50.4229C205.029 49.3043 204.583 48.2509 203.791 47.4798C202.922 46.7087 201.771 46.3504 200.609 46.3504C199.447 46.2852 198.306 46.7087 197.437 47.4798C196.645 48.2509 196.199 49.3043 196.275 50.4229C196.199 51.5414 196.645 52.6057 197.437 53.3768C198.306 54.1478 199.447 54.5605 200.609 54.4954C201.836 54.5605 202.998 54.1478 203.791 53.3768Z" fill="white"/>
<path d="M231.69 41.8544V48.5333C230.745 47.9685 229.67 47.697 228.584 47.7622C226.922 47.7622 225.63 48.24 224.685 49.2283C223.816 50.2166 223.306 51.7587 223.306 53.8655V59.4801H215.574V41.5068H223.165V47.1975C223.599 45.0906 224.24 43.5485 225.185 42.5603C226.13 41.572 227.433 41.0181 228.801 41.0833C229.811 41.0833 230.821 41.3657 231.69 41.8544Z" fill="white"/>
<path d="M257.407 37.3691V59.491H249.674V55.4836C249.099 56.8846 248.013 58.1552 246.71 58.9262C245.189 59.7733 243.538 60.186 241.801 60.1208C240.215 60.186 238.619 59.7082 237.25 58.8611C235.947 58.014 234.861 56.8194 234.21 55.4185C233.493 53.8763 233.124 52.1822 233.124 50.4989C233.048 48.7396 233.493 46.9911 234.21 45.449C234.937 43.972 236.099 42.7883 237.468 41.9412C238.912 41.0941 240.574 40.6706 242.235 40.6706C245.917 40.6706 248.371 42.2236 249.674 45.3078V37.3691H257.407ZM248.523 53.2356C249.316 52.4645 249.75 51.4111 249.674 50.3577C249.674 49.3043 249.24 48.2617 248.523 47.5558C246.72 46.0789 244.114 46.0789 242.235 47.5558C241.442 48.3269 240.997 49.3043 241.073 50.3577C240.997 51.4111 241.442 52.4645 242.235 53.2356C243.104 54.0067 244.179 54.365 245.341 54.365C246.568 54.4302 247.654 54.0067 248.523 53.2356Z" fill="white"/>
<path d="M76.4465 32.667C72.6889 31.0488 68.7033 29.8651 64.5874 29.1592C64.0118 30.1474 63.5122 31.1248 63.0778 32.1783C58.7447 31.5484 54.2486 31.5484 49.9155 32.1783C49.4811 31.1248 48.9815 30.1474 48.406 29.1592C44.3552 29.8651 40.3804 31.0597 36.5468 32.743C29.1077 43.4835 27.0769 53.9417 28.0869 64.3347C32.4961 67.495 37.4156 69.8842 42.6176 71.4263C43.7687 69.8842 44.8547 68.266 45.7235 66.5827C44.062 65.9529 42.4004 65.1818 40.8148 64.3347C41.2492 64.0524 41.6076 63.77 42.042 63.4876C51.2187 67.7013 61.8398 67.7013 71.0925 63.4876C71.4509 63.77 71.8853 64.1284 72.3197 64.3347C70.7341 65.247 69.1486 66.018 67.411 66.5827C68.2798 68.266 69.3658 69.8842 70.5169 71.4263C75.7189 69.8842 80.6384 67.495 85.0476 64.3347C86.1988 52.3236 82.9516 41.9305 76.4465 32.667ZM46.9507 57.949C44.1271 57.949 41.7488 55.4187 41.7488 52.3996C41.7488 49.3805 43.9968 46.785 46.8856 46.785C49.7743 46.785 52.0875 49.3153 52.0875 52.3996C52.0875 55.4838 49.8395 57.949 46.9507 57.949ZM66.0317 57.949C63.2081 57.949 60.9058 55.4187 60.9058 52.3996C60.9058 49.3805 63.143 46.785 66.0317 46.785C68.9205 46.785 71.2445 49.3153 71.1685 52.3996C71.1685 55.4838 68.9205 57.949 66.0317 57.949Z" fill="white"/>
<path d="M137.436 43.4725C139.554 43.4725 141.27 41.9629 141.27 40.1059C141.27 38.2488 139.554 36.7393 137.436 36.7393C135.318 36.7393 133.603 38.2488 133.603 40.1059C133.603 41.9629 135.318 43.4725 137.436 43.4725Z" fill="white"/>
<path d="M133.614 45.7969C136.068 46.7851 138.892 46.7851 141.346 45.7969V59.6325H133.614V45.7969Z" fill="white"/>
</g>
</g>
</g>
<defs>
<linearGradient id="paint0_linear_867_89609" x1="6.43799" y1="29.4812" x2="804.389" y2="388.941" gradientUnits="userSpaceOnUse">
<stop stop-color="#66BCFF"/>
<stop offset="0.26" stop-color="#4D7FEC"/>
<stop offset="0.77" stop-color="#3442D9"/>
</linearGradient>
<clipPath id="clip0_867_89609">
<rect x="2" y="3" width="810.5" height="430" rx="44" fill="white"/>
</clipPath>
</defs>
</svg>
