<svg width="815" height="435" viewBox="0 0 815 435" fill="none" xmlns="http://www.w3.org/2000/svg">
<g clip-path="url(#clip0_867_91298)">
<rect x="2" y="3" width="810.5" height="430" rx="44" fill="white"/>
<g clip-path="url(#clip1_867_91298)">
<rect x="2" y="3" width="810.5" height="430" rx="44" fill="white"/>
<g clip-path="url(#clip2_867_91298)">
<mask id="mask0_867_91298" style="mask-type:luminance" maskUnits="userSpaceOnUse" x="-43" y="-165" width="900" height="600">
<path d="M857 -165H-43V435H857V-165Z" fill="white"/>
</mask>
<g mask="url(#mask0_867_91298)">
<path d="M770.489 2.12402H442.583H405.26H43.5109C20.5499 2.12402 1.76294 20.911 1.76294 43.872V301.9V314.47V392.321C1.76294 415.282 20.5499 434.068 43.5109 434.068H246.911H371.729C377.402 434.526 383.004 434.823 388.484 434.995C388.534 434.997 388.586 434.998 388.636 435L389.104 434.995L479.024 434.068H770.489C773.487 434.068 776.41 433.741 779.233 433.133C798.032 429.085 812.237 412.285 812.237 392.321V297.313V225.969V43.872C812.237 20.911 793.45 2.12402 770.489 2.12402Z" fill="url(#paint0_linear_867_91298)"/>
<path d="M641.673 433.664C641.673 433.664 629.797 389.46 617.223 365.105C607.387 346.375 593.789 330.551 575.56 328.612C528.192 323.573 494.933 396.137 494.933 396.137C494.933 396.137 488.887 354.815 440.511 351.792C398.157 349.145 367.946 397.144 367.946 397.144C367.946 397.144 351.609 356.219 299.761 352.972C238.149 349.113 221.59 433.267 221.59 433.267C221.59 433.267 335.802 431.167 371.729 434.068H479.024L569.743 433.133L641.673 433.664Z" fill="#57F287"/>
<path d="M492.738 10.125C492.738 10.125 474.694 23.42 487.04 30.068C499.386 36.716 522.178 23.42 522.178 23.42C522.178 23.42 538.323 52.86 596.254 19.621C596.254 19.621 575.36 38.615 590.555 63.307C605.75 87.999 635.191 78.502 635.191 78.502C635.191 78.502 577.26 112.691 597.203 160.175C617.146 207.659 664.631 182.968 664.631 182.968C664.631 182.968 647.536 213.357 676.027 241.848C700.76 266.581 784.881 250.517 812.237 225.969V43.872C812.237 20.911 793.45 2.12402 770.489 2.12402H442.583C450.56 11.556 465.73 20.597 492.738 10.125Z" fill="#13844B"/>
<path d="M201.187 433.947C201.187 433.947 245.719 381.028 235.749 356.601C229.3 340.799 210.524 361.644 210.524 361.644C210.524 361.644 233.509 318.359 217.594 311.786C201.679 305.213 192.882 349.345 192.882 349.345C192.882 349.345 191.042 324.581 178.183 329.273C158.389 336.496 169.667 433.947 169.667 433.947H201.187Z" fill="#57F287"/>
<path d="M675.221 433.947C675.221 433.947 630.689 381.028 640.659 356.601C647.108 340.799 665.884 361.644 665.884 361.644C665.884 361.644 642.899 318.359 658.814 311.786C674.729 305.213 683.525 349.345 683.525 349.345C683.525 349.345 685.366 324.581 698.225 329.273C718.019 336.496 706.741 433.947 706.741 433.947H675.221Z" fill="#57F287"/>
<path d="M732.926 312.228C720.233 320.982 710.379 330.09 702.723 338.97C675.714 370.296 676.112 398.771 676.112 398.771C676.112 398.771 664.394 379.625 645.917 369.908C639.181 366.366 631.556 364.065 623.261 364.418C621.142 364.508 619.137 364.752 617.223 365.105C591.088 369.931 583.622 397.45 583.622 397.45C583.622 397.45 565.785 375.649 549.269 383.577C532.753 391.505 534.074 408.02 534.074 408.02C534.074 408.02 522.065 396.639 507.649 408.02C495.097 417.93 506.328 433.133 506.328 433.133H569.743H779.233C798.032 429.085 812.237 412.285 812.237 392.321V297.313C794.617 291.39 766.475 289.091 732.926 312.228Z" fill="#29CC7A"/>
<path d="M1.76294 43.872V301.9C24.5239 311.917 56.6649 316.008 88.7099 314.913C106.397 314.046 133.74 308.261 143.253 281.96C152.07 257.583 133.782 243.286 120.753 236.504H135.309C135.309 236.504 188.926 242.539 208.47 202.474C230.661 156.982 196.543 118.051 196.543 118.051C196.543 118.051 216.62 131.1 241.716 101.989C266.812 72.878 241.716 34.732 241.716 34.732C241.716 34.732 286.302 63.147 328.687 53.403C364.526 45.164 361.173 9.63602 361.173 9.63602C361.173 9.63602 384.261 24.694 398.315 16.663C404.893 12.904 405.973 7.16502 405.26 2.12402H43.5109C20.5499 2.12402 1.76294 20.911 1.76294 43.872Z" fill="#13844B"/>
<path d="M272.87 399.478C260.219 387.839 246.068 386.328 233.265 389.032C225.791 390.611 218.779 393.624 212.79 396.905C201.344 403.175 193.639 410.407 193.639 410.407C193.639 410.407 197.628 364.753 170.14 346.998C167.558 345.33 164.704 343.902 161.537 342.788C121.684 328.766 91.8699 367.377 91.8699 367.377C91.8699 367.377 94.7449 339.569 88.7099 314.913C84.5589 297.951 76.1919 282.481 59.7679 278.584C32.0149 271.999 11.7139 290.033 1.76294 301.9V314.47V392.321C1.76294 415.282 20.5499 434.068 43.5109 434.068H246.911H371.729C335.802 431.167 297.329 421.981 272.87 399.478Z" fill="#29CC7A"/>
<path d="M186.245 196.766C186.245 196.766 343.783 248.161 329.258 38.1108" stroke="#13844B" stroke-width="8" stroke-miterlimit="10"/>
<path d="M811.732 151.147C811.732 151.147 689.992 145.399 682.255 2.35986" stroke="#29CC7A" stroke-width="9" stroke-miterlimit="10"/>
<path d="M287.072 184.761C287.072 184.761 274.777 195.69 277.509 208.667C280.241 221.644 285.023 227.791 285.023 227.791C285.023 227.791 295.268 220.96 295.951 205.934C296.634 190.908 287.072 184.761 287.072 184.761Z" fill="#13844B"/>
<path d="M703.978 82.603C703.978 82.603 688.071 86.793 684.641 99.604C681.211 112.415 682.696 120.059 682.696 120.059C682.696 120.059 694.922 118.598 702.325 105.504C709.728 92.41 703.978 82.603 703.978 82.603Z" fill="#29CC7A"/>
<path d="M714.646 96.5841C714.646 96.5841 722.119 107.326 732.628 106.392C743.137 105.458 748.444 102.261 748.444 102.261C748.444 102.261 744.014 93.5241 732.209 91.5671C720.404 89.6101 714.646 96.5841 714.646 96.5841Z" fill="#29CC7A"/>
<path d="M279.085 188.173C279.085 188.173 268.277 192.374 266.533 201.802C264.789 211.23 266.193 216.589 266.193 216.589C266.193 216.589 274.587 214.618 279.068 204.687C283.549 194.756 279.085 188.173 279.085 188.173Z" fill="#13844B"/>
<path d="M494.351 296.022H165.187V275.681H494.351V296.022Z" fill="#332A26"/>
<path d="M199.407 309.371H463.018L457.693 373.269L432.136 403.088H222.568L201.1 373.801L199.407 309.371Z" fill="#96593E"/>
<path d="M298.564 360.922H244.485" stroke="#B2755D" stroke-width="2.595" stroke-linecap="round" stroke-linejoin="round"/>
<path d="M207.269 332.02H243" stroke="#B2755D" stroke-width="2.595" stroke-linecap="round" stroke-linejoin="round"/>
<path d="M404.868 334.672H456.05" stroke="#B2755D" stroke-width="2.595" stroke-linecap="round" stroke-linejoin="round"/>
<path d="M358.697 368.912H409.879" stroke="#B2755D" stroke-width="2.595" stroke-linecap="round" stroke-linejoin="round"/>
<path d="M444.03 382.668H207.482V405.694H444.03V382.668Z" fill="#BC973B"/>
<path d="M224.389 401.508H195.969L177.652 311.494H204.342L224.389 401.508Z" fill="#BC973B"/>
<path d="M219.156 401.508H190.735L169.824 311.494H199.109L219.156 401.508Z" fill="#E0B848"/>
<path d="M435.439 401.508H463.859L482.176 311.494H455.486L435.439 401.508Z" fill="#BC973B"/>
<path d="M440.673 401.508H469.093L490.005 311.494H460.719L440.673 401.508Z" fill="#E0B848"/>
<path d="M488.87 317.411H173.082C167.931 317.411 165.27 313.403 163.717 308.634L160.257 296.206C160.257 291.379 164.471 287.431 169.622 287.431H492.33C497.481 287.431 501.695 291.379 501.695 296.206L498.235 308.634C495.944 313.83 494.021 317.411 488.87 317.411Z" fill="#FFD85A"/>
<path d="M464.563 420.544H196.35C191.199 420.544 188.538 416.267 186.985 411.178L183.525 397.915C183.525 392.764 187.739 388.55 192.89 388.55H468.023C473.174 388.55 477.388 392.764 477.388 397.915L473.928 411.178C471.636 416.723 469.714 420.544 464.563 420.544Z" fill="#FFD85A"/>
<path d="M473.385 272.687H178.035L184.001 203.965L212.635 171.895H447.435L471.487 203.393L473.385 272.687Z" fill="#96593E"/>
<path d="M468.034 236.541H413.956" stroke="#B2755D" stroke-width="2.595" stroke-linecap="round" stroke-linejoin="round"/>
<path d="M305.797 218.675H251.717" stroke="#B2755D" stroke-width="2.595" stroke-linecap="round" stroke-linejoin="round"/>
<path d="M379.19 219.64H414.921" stroke="#B2755D" stroke-width="2.595" stroke-linecap="round" stroke-linejoin="round"/>
<path d="M187.981 240.403H223.712" stroke="#B2755D" stroke-width="2.595" stroke-linecap="round" stroke-linejoin="round"/>
<path d="M350.219 181.978H401.401" stroke="#B2755D" stroke-width="2.595" stroke-linecap="round" stroke-linejoin="round"/>
<path d="M201.984 184.875H253.166" stroke="#B2755D" stroke-width="2.595" stroke-linecap="round" stroke-linejoin="round"/>
<path d="M189.187 264.452H199.231C199.231 264.452 192.842 251.24 198.724 209.479C201.628 188.865 213.219 172.986 213.219 172.986L218.241 171.551C218.241 171.551 216.089 167.606 213.219 166.53C210.35 165.454 201.382 169.399 194.208 190.92C187.035 212.442 189.187 264.452 189.187 264.452Z" fill="#BC973B"/>
<path d="M192.415 264.81C192.415 264.81 188.828 243.289 192.056 214.953C194.428 194.132 204.252 171.551 210.708 167.247C210.708 167.247 192.415 167.247 179.503 176.215C175.336 179.108 160.133 211.366 165.872 265.169L192.415 264.81Z" fill="#E0B848"/>
<path d="M470.22 264.452H460.177C460.177 264.452 466.565 251.24 460.683 209.479C457.779 188.865 446.188 172.986 446.188 172.986L441.167 171.551C441.167 171.551 443.319 167.606 446.188 166.53C449.057 165.454 458.025 169.399 465.198 190.92C472.372 212.442 470.22 264.452 470.22 264.452Z" fill="#BC973B"/>
<path d="M466.992 264.81C466.992 264.81 470.579 243.289 467.35 214.953C464.979 194.132 455.156 171.551 448.699 167.247C448.699 167.247 466.992 167.247 479.905 176.215C484.072 179.108 499.274 211.366 493.535 265.169L466.992 264.81Z" fill="#E0B848"/>
<path d="M493.045 283.675H168.907C164.15 283.675 160.257 279.782 160.257 275.025V265.033C160.257 260.276 164.15 256.383 168.907 256.383H493.045C497.803 256.383 501.695 260.276 501.695 265.033V275.025C501.695 279.782 497.803 283.675 493.045 283.675Z" fill="#FFD85A"/>
<path d="M348.114 266.852H324.379C319.621 266.852 315.729 262.959 315.729 258.202V173.621C315.729 168.864 319.621 164.971 324.379 164.971H348.114C352.872 164.971 356.764 168.864 356.764 173.621V258.202C356.764 262.959 352.872 266.852 348.114 266.852Z" fill="#E0B848"/>
<path d="M389.91 287.702C389.91 317.397 366.312 341.47 337.202 341.47C308.091 341.47 284.492 317.397 284.492 287.702C284.492 258.006 308.091 233.933 337.202 233.933C366.312 233.933 389.91 258.006 389.91 287.702Z" fill="#BC973B"/>
<path d="M385.065 287.702C385.065 314.136 363.636 335.565 337.202 335.565C310.767 335.565 289.338 314.136 289.338 287.702C289.338 261.268 310.767 239.839 337.202 239.839C363.636 239.839 385.065 261.268 385.065 287.702Z" fill="#FFD85A"/>
<path d="M306.76 315.344C306.226 312.961 305.944 310.48 305.944 307.931C305.944 289.667 320.423 274.86 338.284 274.86C356.144 274.86 370.623 289.667 370.623 307.931C370.623 310.16 370.407 312.337 369.996 314.442L355.277 314.818C355.497 313.589 355.613 312.32 355.613 311.019C355.613 300.36 347.855 291.72 338.284 291.72C328.712 291.72 320.953 300.36 320.953 311.019C320.953 312.506 321.105 313.954 321.391 315.344H306.76Z" fill="#AFAFAF"/>
<path d="M374.656 313.417C375.272 316.658 375.597 320.032 375.597 323.499C375.597 348.342 363.627 368.482 338.284 368.482C313.828 368.482 300.969 348.342 300.969 323.499C300.969 320.468 301.218 317.507 301.692 314.644L374.656 313.417Z" fill="#635D5A"/>
<path d="M349.217 332.276C349.217 337.96 344.609 342.568 338.926 342.568C333.242 342.568 328.634 337.96 328.634 332.276C328.634 326.592 333.242 321.984 338.926 321.984C344.609 321.984 349.217 326.592 349.217 332.276Z" fill="black"/>
<path d="M352.314 353.758H325.853L334.503 337.647H343.664L352.314 353.758Z" fill="black"/>
<path d="M338.007 301.168C332.258 301.168 327.555 296.465 327.555 290.716V273.296C327.555 267.547 332.258 262.843 338.007 262.843C343.756 262.843 348.46 267.547 348.46 273.296V290.716C348.46 296.465 343.756 301.168 338.007 301.168Z" fill="#BC973B"/>
<path d="M526.434 232.32C526.434 232.32 523.804 256.743 515.906 269.559C512.422 275.213 507.444 279.656 501.674 282.886C494.895 286.68 486.962 288.386 484.08 296.488C481.444 303.898 483.765 311.81 487.971 318.15C498.457 333.956 520.392 337.263 542.119 319.346C563.846 301.429 575.379 257.551 568.328 231.327C563.321 212.707 548.886 207.084 541.833 209.637C526.222 215.287 526.434 232.32 526.434 232.32Z" fill="#4E5AE8"/>
<path d="M554.495 343.983C554.495 343.983 554.462 361.99 554.446 370.994C554.43 379.535 554.399 396.616 554.399 396.616C554.399 396.616 540.692 407.951 545.8 418.545C550.909 429.138 580.689 431.923 599.108 424.902C612.403 419.834 611.371 407.912 609.274 396.066C608.328 390.723 607.797 382.012 607.361 374.961C606.767 365.362 606.612 354.389 606.186 346.132C605.41 331.089 606.259 323.867 594.424 315.034C578.022 302.793 554.278 320.937 554.495 343.983Z" fill="#4E5AE8"/>
<path d="M532.901 208.631C532.901 208.631 505.734 268.249 526.114 315.889C540.946 350.562 613.299 355.676 645.235 345.386C684.705 332.669 683.846 290.159 675.993 249.863C668.141 209.567 653.308 187.078 653.308 187.078C653.308 187.078 538.136 189.889 532.901 208.631Z" fill="#698EFF"/>
<path d="M646.412 176.076C653.273 195.117 634.395 219.358 604.247 230.22C574.099 241.082 544.098 234.452 537.238 215.411C530.378 196.371 549.256 172.129 579.403 161.267C609.551 150.406 639.552 157.035 646.412 176.076Z" fill="#4E5AE8"/>
<path d="M653.754 245.057C653.754 245.057 676.312 254.78 686.225 266.11C690.599 271.108 693.374 277.175 694.756 283.641C696.379 291.238 695.667 299.32 702.557 304.466C708.859 309.171 717.105 309.29 724.404 307.143C742.602 301.791 752.235 281.809 741.531 255.761C738.546 248.497 733.398 241.395 726.936 234.907C710.229 218.13 684.741 205.461 665.172 204.736C645.904 204.023 636.269 216.155 636.626 223.648C637.416 240.231 653.754 245.057 653.754 245.057Z" fill="#698EFF"/>
<path d="M598.258 348.328C598.258 348.328 601.403 368.981 602.975 379.308C604.065 386.468 606.245 400.788 606.245 400.788C606.245 400.788 592.872 408.114 597.534 423.268C601.762 437.007 633.657 434.92 651.167 431.193C666.492 427.933 661.827 411.167 661.099 399.16C660.727 393.025 659.035 384.38 657.265 375.388C655.37 365.765 653.386 355.744 652.832 347.978C651.76 332.953 648.984 324.54 635.69 321.741C621.238 318.698 597.589 325.29 598.258 348.328Z" fill="#698EFF"/>
<path d="M491.571 191.521L502.99 190.099C516.904 188.367 526.921 174.884 525.25 160.136L522.318 134.256C520.647 119.508 507.898 108.86 493.984 110.592L482.564 112.014C468.65 113.746 458.633 127.23 460.304 141.978L463.236 167.857C464.907 182.605 477.657 193.253 491.571 191.521Z" fill="#698EFF"/>
<path d="M488.334 171.682L501.751 170.012C504.116 169.718 505.82 167.426 505.535 164.919L501.393 128.347C501.108 125.833 498.934 124.018 496.562 124.313L483.157 125.982C477.612 126.673 473.619 132.046 474.285 137.924L477.041 162.25C477.707 168.129 482.789 172.373 488.334 171.682Z" fill="#B7CDFF"/>
<path d="M581.5 54.1641C581.5 54.1641 591.566 41.8761 595.826 36.7493C602.384 28.858 616.292 21.8755 629.82 29.8847C641.301 36.6815 644.687 48.7645 635.485 62.0853C626.416 75.2152 619.782 75.5584 619.782 75.5584L556.239 83.3045L581.5 54.1641Z" fill="#55F186"/>
<path d="M606.612 61.2044C605.597 61.331 604.539 60.9782 603.762 60.1485C602.423 58.7188 602.43 56.4118 603.776 54.9971C620.056 37.8902 620.914 12.9061 620.921 12.6554C620.976 10.6449 622.555 9.06912 624.457 9.12807C626.354 9.19142 627.848 10.8719 627.794 12.8824C627.763 14.0235 626.829 41.0462 608.623 60.1767C608.058 60.7706 607.346 61.1128 606.612 61.2044Z" fill="#008C43"/>
<path d="M628.71 75.0171C628.71 75.0171 610.114 63.3485 587.083 38.1788C570.258 19.7909 560.56 9.80644 542.809 16.6622C528.065 22.3565 520.521 36.4728 531.119 55.9165C543.19 78.064 572.375 87.7326 572.375 87.7326L628.71 75.0171Z" fill="#25CB79"/>
<path d="M571.151 68.1805C570.374 68.2773 569.561 68.0952 568.856 67.6025C554.06 57.2722 547.173 41.3259 546.887 40.6519C546.107 38.8157 546.878 36.6609 548.61 35.84C550.337 35.02 552.373 35.84 553.154 37.6736C553.216 37.8197 559.558 52.3961 572.629 61.5227C574.217 62.6313 574.658 64.8899 573.617 66.5686C573.038 67.5022 572.123 68.06 571.151 68.1805Z" fill="#008C43"/>
<path d="M660.7 203.309C634.3 207.906 562.739 216.782 539.182 216.841C515.752 216.899 488.438 199.511 486.027 170.936L483.45 126.414C479.634 84.5373 497.934 71.0176 532.742 64.1917C569.921 56.9005 637.455 50.5233 650.066 49.6048C684.651 47.0849 703.697 67.544 706.107 96.1187L711.344 146.741C714.006 178.289 693.619 197.579 660.7 203.309Z" fill="#698EFF"/>
<path d="M716.763 165.831L705.344 167.253C691.43 168.985 678.68 158.337 677.009 143.589L674.077 117.709C672.407 102.961 682.424 89.4781 696.337 87.7457L707.757 86.3239C721.671 84.5915 734.421 95.2403 736.091 109.988L739.023 135.867C740.694 150.615 730.677 164.099 716.763 165.831Z" fill="#698EFF"/>
<path d="M715.477 145.75L702.061 147.421C699.696 147.715 697.528 145.904 697.244 143.397L693.101 106.826C692.816 104.312 694.524 102.013 696.896 101.718L710.301 100.049C715.846 99.3581 720.928 103.602 721.594 109.481L724.35 133.807C725.016 139.685 721.022 145.059 715.477 145.75Z" fill="#B7CDFF"/>
<path d="M616.914 183.391C616.914 183.391 619.939 183.196 625.731 180.557C631.391 177.977 632.711 176.327 631.932 177.476C631.932 177.476 626.764 182.57 616.914 183.391Z" fill="#FFACD6"/>
<path d="M605.028 184.925C605.028 184.925 623.362 184.651 633.213 176.442" stroke="#080201" stroke-width="3.51938" stroke-linecap="round" stroke-linejoin="round"/>
<path d="M595.134 176.176L554.399 180.98C539.088 182.786 525.133 170.985 523.39 154.757L520.775 130.409C519.75 120.872 526.274 112.199 535.273 111.138L595.043 104.09C603.682 103.071 611.556 109.729 612.54 118.886L615.75 148.775C617.207 162.336 607.93 174.667 595.134 176.176Z" fill="#B7CDFF"/>
<path d="M587.527 159.413L577.996 160.599C574.727 161.007 571.73 158.504 571.338 155.039L571.308 154.771C570.915 151.306 573.269 148.137 576.539 147.73L586.069 146.544C589.339 146.137 592.334 148.639 592.727 152.104L592.758 152.372C593.15 155.837 590.796 159.005 587.527 159.413Z" fill="#698EFF"/>
<path d="M552.754 163.743L543.223 164.93C539.954 165.337 536.958 162.834 536.565 159.369L536.535 159.101C536.142 155.636 538.496 152.467 541.765 152.06L551.296 150.874C554.565 150.467 557.561 152.969 557.954 156.434L557.984 156.702C558.377 160.167 556.023 163.335 552.754 163.743Z" fill="#698EFF"/>
<path d="M516.655 146.008C517.365 152.276 513.146 157.954 507.233 158.69C501.32 159.427 495.95 154.942 495.24 148.674C494.53 142.406 498.749 136.728 504.662 135.991C510.576 135.255 515.945 139.74 516.655 146.008Z" fill="#080201"/>
<path d="M644.979 129.911C645.689 136.179 641.47 141.857 635.557 142.594C629.643 143.33 624.273 138.845 623.563 132.577C622.853 126.309 627.072 120.63 632.985 119.894C638.899 119.157 644.269 123.643 644.979 129.911Z" fill="#080201"/>
<mask id="mask1_867_91298" style="mask-type:luminance" maskUnits="userSpaceOnUse" x="-43" y="-165" width="900" height="600">
<path d="M-43 -165H857V435H-43V-165Z" fill="white"/>
</mask>
<g mask="url(#mask1_867_91298)">
<path d="M105.91 40.0098H118.204C121.168 40.0098 123.699 40.4224 125.719 41.3347C127.598 42.1057 129.194 43.4524 130.345 45.1357C131.355 46.819 131.931 48.7086 131.855 50.6091C131.855 52.5748 131.355 54.4753 130.269 56.1586C129.118 57.9179 127.38 59.2428 125.426 60.0899C123.254 61.0782 120.517 61.556 117.335 61.556H105.91V40.0098ZM117.259 56.0174C119.279 56.0174 120.799 55.5287 121.885 54.5404C122.971 53.487 123.547 52.0752 123.471 50.5331C123.547 49.1322 123.036 47.8072 122.026 46.819C121.082 45.9067 119.648 45.4072 117.693 45.4072H113.86V55.9414H117.259V56.0174Z" fill="white"/>
<path d="M150.361 61.4802C148.775 61.0567 147.179 60.4376 145.734 59.5906V54.4646C146.962 55.3769 148.406 56.0068 149.85 56.3543C151.512 56.843 153.173 57.0602 154.911 57.1253C155.487 57.1253 156.073 57.0602 156.649 56.8538C157.007 56.6475 157.224 56.4303 157.224 56.1479C157.224 55.8656 157.148 55.5832 156.931 55.3769C156.573 55.0945 156.138 54.9533 155.704 54.8882L151.946 54.0411C149.774 53.5524 148.265 52.8465 147.32 51.9994C146.375 51.0872 145.876 49.8274 145.952 48.5677C145.952 47.4491 146.386 46.3196 147.179 45.4726C148.124 44.4843 149.275 43.7893 150.578 43.4417C152.24 42.953 153.977 42.6707 155.78 42.7358C157.441 42.7358 159.038 42.877 160.623 43.3006C161.927 43.5829 163.143 44.0716 164.305 44.7015V49.5451C163.219 48.9152 162.068 48.4916 160.917 48.2093C159.613 47.8618 158.234 47.7206 156.931 47.7206C154.976 47.7206 153.977 48.079 153.977 48.7088C153.977 48.9912 154.107 49.2627 154.401 49.4039C154.911 49.6102 155.498 49.7623 156.073 49.9034L159.244 50.4573C161.264 50.8048 162.861 51.4347 163.871 52.2818C164.881 53.1289 165.391 54.4646 165.391 56.1479C165.391 57.9724 164.446 59.6557 162.861 60.568C161.199 61.6214 158.81 62.1861 155.704 62.1861C153.901 62.1209 152.098 61.9037 150.361 61.4802Z" fill="white"/>
<path d="M172.775 60.8611C171.114 60.09 169.659 58.8954 168.649 57.3533C167.704 55.8764 167.28 54.117 167.28 52.3577C167.28 50.5984 167.715 48.926 168.725 47.449C169.735 45.9069 171.179 44.7774 172.917 44.0064C175.013 43.1593 177.261 42.6815 179.498 42.7466C182.68 42.7466 185.275 43.3765 187.371 44.7123V50.3269C186.578 49.8382 185.721 49.4147 184.776 49.1323C183.766 48.8499 182.68 48.6436 181.594 48.6436C179.639 48.6436 178.129 48.9911 176.967 49.697C175.382 50.5441 174.871 52.4337 175.74 53.9759C176.033 54.4646 176.457 54.8881 176.967 55.1705C178.053 55.8764 179.563 56.2239 181.659 56.2239C182.745 56.2239 183.766 56.0827 184.776 55.8003C185.721 55.518 186.578 55.1705 187.371 54.6818V60.09C184.917 61.491 182.169 62.186 179.346 62.1209C177.109 62.186 174.795 61.7733 172.775 60.8611Z" fill="white"/>
<path d="M195.255 60.8502C193.518 60.0792 192.074 58.8846 191.064 57.3424C190.119 55.8655 189.619 54.117 189.619 52.3577C189.619 50.5984 190.054 48.9151 191.064 47.4381C192.074 45.9612 193.518 44.7774 195.255 44.0715C199.371 42.4534 204.074 42.4534 208.19 44.0715C209.851 44.7774 211.296 45.9612 212.306 47.4381C213.251 48.9151 213.75 50.6744 213.75 52.3577C213.75 54.117 213.251 55.8655 212.306 57.3424C211.296 58.8846 209.851 60.0792 208.19 60.8502C203.998 62.5335 199.371 62.5335 195.255 60.8502ZM204.791 55.3768C205.583 54.6057 206.029 53.4763 205.953 52.4229C206.029 51.3043 205.583 50.2509 204.791 49.4798C203.922 48.7087 202.771 48.3504 201.609 48.3504C200.447 48.2852 199.306 48.7087 198.437 49.4798C197.645 50.2509 197.199 51.3043 197.275 52.4229C197.199 53.5414 197.645 54.6057 198.437 55.3768C199.306 56.1478 200.447 56.5605 201.609 56.4954C202.836 56.5605 203.998 56.1478 204.791 55.3768Z" fill="white"/>
<path d="M232.69 43.8544V50.5333C231.745 49.9685 230.67 49.697 229.584 49.7622C227.922 49.7622 226.63 50.24 225.685 51.2283C224.816 52.2166 224.306 53.7587 224.306 55.8655V61.4801H216.574V43.5068H224.165V49.1975C224.599 47.0906 225.24 45.5485 226.185 44.5603C227.13 43.572 228.433 43.0181 229.801 43.0833C230.811 43.0833 231.821 43.3657 232.69 43.8544Z" fill="white"/>
<path d="M258.407 39.3691V61.491H250.674V57.4836C250.099 58.8846 249.013 60.1552 247.71 60.9262C246.189 61.7733 244.538 62.186 242.801 62.1208C241.215 62.186 239.619 61.7082 238.25 60.8611C236.947 60.014 235.861 58.8194 235.21 57.4185C234.493 55.8763 234.124 54.1822 234.124 52.4989C234.048 50.7396 234.493 48.9911 235.21 47.449C235.937 45.972 237.099 44.7883 238.468 43.9412C239.912 43.0941 241.574 42.6706 243.235 42.6706C246.917 42.6706 249.371 44.2236 250.674 47.3078V39.3691H258.407ZM249.523 55.2356C250.316 54.4645 250.75 53.4111 250.674 52.3577C250.674 51.3043 250.24 50.2617 249.523 49.5558C247.72 48.0789 245.114 48.0789 243.235 49.5558C242.442 50.3269 241.997 51.3043 242.073 52.3577C241.997 53.4111 242.442 54.4645 243.235 55.2356C244.104 56.0067 245.179 56.365 246.341 56.365C247.568 56.4302 248.654 56.0067 249.523 55.2356Z" fill="white"/>
<path d="M77.4465 34.667C73.6889 33.0488 69.7033 31.8651 65.5874 31.1592C65.0118 32.1474 64.5122 33.1248 64.0778 34.1783C59.7447 33.5484 55.2486 33.5484 50.9155 34.1783C50.4811 33.1248 49.9815 32.1474 49.406 31.1592C45.3552 31.8651 41.3804 33.0597 37.5468 34.743C30.1077 45.4835 28.0769 55.9417 29.0869 66.3347C33.4961 69.495 38.4156 71.8842 43.6176 73.4263C44.7687 71.8842 45.8547 70.266 46.7235 68.5827C45.062 67.9529 43.4004 67.1818 41.8148 66.3347C42.2492 66.0524 42.6076 65.77 43.042 65.4876C52.2187 69.7013 62.8398 69.7013 72.0925 65.4876C72.4509 65.77 72.8853 66.1284 73.3197 66.3347C71.7341 67.247 70.1486 68.018 68.411 68.5827C69.2798 70.266 70.3658 71.8842 71.5169 73.4263C76.7189 71.8842 81.6384 69.495 86.0476 66.3347C87.1988 54.3236 83.9516 43.9305 77.4465 34.667ZM47.9507 59.949C45.1271 59.949 42.7488 57.4187 42.7488 54.3996C42.7488 51.3805 44.9968 48.785 47.8856 48.785C50.7743 48.785 53.0875 51.3153 53.0875 54.3996C53.0875 57.4838 50.8395 59.949 47.9507 59.949ZM67.0317 59.949C64.2081 59.949 61.9058 57.4187 61.9058 54.3996C61.9058 51.3805 64.143 48.785 67.0317 48.785C69.9205 48.785 72.2445 51.3153 72.1685 54.3996C72.1685 57.4838 69.9205 59.949 67.0317 59.949Z" fill="white"/>
<path d="M138.436 45.4725C140.554 45.4725 142.27 43.9629 142.27 42.1059C142.27 40.2488 140.554 38.7393 138.436 38.7393C136.318 38.7393 134.603 40.2488 134.603 42.1059C134.603 43.9629 136.318 45.4725 138.436 45.4725Z" fill="white"/>
<path d="M134.614 47.7969C137.068 48.7851 139.892 48.7851 142.346 47.7969V61.6325H134.614V47.7969Z" fill="white"/>
</g>
</g>
</g>
</g>
</g>
<defs>
<linearGradient id="paint0_linear_867_91298" x1="72.0919" y1="44.855" x2="770.576" y2="415.699" gradientUnits="userSpaceOnUse">
<stop stop-color="#16AF63"/>
<stop offset="0.5" stop-color="#54D788"/>
<stop offset="1" stop-color="#91FFAD"/>
</linearGradient>
<clipPath id="clip0_867_91298">
<rect x="2" y="3" width="810.5" height="430" rx="44" fill="white"/>
</clipPath>
<clipPath id="clip1_867_91298">
<rect x="2" y="3" width="810.5" height="430" rx="44" fill="white"/>
</clipPath>
<clipPath id="clip2_867_91298">
<rect width="900" height="600" fill="white" transform="translate(-43 -165)"/>
</clipPath>
</defs>
</svg>
