<svg width="815" height="435" viewBox="0 0 815 435" fill="none" xmlns="http://www.w3.org/2000/svg">
<g clip-path="url(#clip0_867_93740)">
<rect x="2" y="3" width="810.5" height="430" rx="44" fill="white"/>
<g clip-path="url(#clip1_867_93740)">
<mask id="mask0_867_93740" style="mask-type:luminance" maskUnits="userSpaceOnUse" x="-43" y="-167" width="900" height="600">
<path d="M857 -167H-43V433H857V-167Z" fill="white"/>
</mask>
<g mask="url(#mask0_867_93740)">
<path d="M43.5099 1.75C20.549 1.75 1.76294 20.537 1.76294 43.498V391.947C1.76294 414.908 20.549 433.695 43.5099 433.695H770.489C793.45 433.695 812.237 414.908 812.237 391.947V43.498C812.237 20.537 793.45 1.75 770.489 1.75H43.5099Z" fill="url(#paint0_linear_867_93740)"/>
<g opacity="0.25">
<path d="M774.217 433.512C586.691 433.512 279.786 434.079 279.786 434.079C279.786 434.079 310.576 394.309 361.891 382.763C413.207 371.217 395.247 402.007 395.247 402.007C395.247 402.007 506.859 307.072 569.721 305.789C632.583 304.507 645.412 357.105 645.412 357.105C645.412 357.105 717.254 305.789 778.833 328.882C794.034 334.582 804.984 342.073 812.194 349.898L812.117 395.645C812.117 395.645 811.952 399.925 809.883 405.58C806.058 416.039 796.101 431.55 774.217 433.512Z" fill="white"/>
<path d="M157.62 289.097H522.578C525.865 289.097 528.097 285.702 526.729 282.712C524.372 277.563 518.902 269.947 506.209 262.331C492.268 253.967 481.813 254.896 475.931 256.769C473.28 257.614 470.52 255.974 470.033 253.234C468.722 245.859 464.11 233.597 448.216 226.643C435.018 220.869 426.396 223.789 421.334 227.533C418.707 229.477 414.935 228.02 414.256 224.824C411.207 210.479 400.743 184.693 364.944 186.494C312.109 189.152 295.314 227.301 291.517 238.465C290.899 240.283 289.202 241.5 287.281 241.521C269.276 241.714 182.937 244.599 153.988 281.834C151.692 284.787 153.879 289.097 157.62 289.097Z" fill="white"/>
<path d="M22.3339 180.011H217.253C218.3 180.011 219.062 179.014 218.769 178.009C217.389 173.261 212.587 161.541 198.426 159.18C187.808 157.411 181.926 158.272 178.902 159.261C177.771 159.631 176.669 158.688 176.856 157.512C177.788 151.628 177.354 139.474 158.253 138.35C136.309 137.059 116.605 153.686 111.77 158.113C111.149 158.681 110.205 158.659 109.612 158.062C106.231 154.658 94.4589 144.805 73.4429 147.277C52.8519 149.7 29.3019 169.871 21.2569 177.288C20.2029 178.26 20.8999 180.011 22.3339 180.011Z" fill="white"/>
<path d="M75.0299 404.208H171.851C172.893 404.208 173.606 403.172 173.245 402.194C172.223 399.416 169.563 394.633 163.183 393.569C159.095 392.888 156.381 392.97 154.631 393.268C153.545 393.453 152.645 392.416 152.978 391.366C154.353 387.034 155.168 379.514 144.095 379.813C129.826 380.198 119.49 389.171 115.802 392.894C115.122 393.58 113.983 393.448 113.486 392.62C112.038 390.207 108.305 386.437 99.3499 387.49C89.8089 388.613 79.0249 397.196 74.0379 401.608C73.0099 402.517 73.6579 404.208 75.0299 404.208Z" fill="white"/>
</g>
<mask id="mask1_867_93740" style="mask-type:luminance" maskUnits="userSpaceOnUse" x="-43" y="-167" width="900" height="600">
<path d="M-43 -167H857V433H-43V-167Z" fill="white"/>
</mask>
<g mask="url(#mask1_867_93740)">
<path d="M881.41 636.847C861.694 635.75 838.008 629.487 833.117 587.287C827.418 538.104 825.381 461.512 863.538 436.366C893.944 416.329 929.455 431.247 934.147 474.967C937.211 503.527 940.746 544.332 935.628 584.741C931.996 613.412 918.114 638.89 881.41 636.847Z" fill="#698EFF"/>
</g>
<path d="M516.776 29.8266L529.624 32.1128C531.336 32.4174 532.49 34.0876 532.189 35.8249L532.09 36.397C531.789 38.1343 530.142 39.3069 528.431 39.0023L515.583 36.7162C513.872 36.4116 512.718 34.7405 513.018 33.0039L513.118 32.4313C513.419 30.6948 515.065 29.522 516.776 29.8266Z" fill="#6CC780"/>
<path d="M503.843 48.9416C503.843 48.9416 460.436 33.4744 449.893 49.4302C439.349 65.3867 455.706 73.8445 455.706 73.8445C377.914 91.0792 389.466 144.196 389.466 144.196C355.093 153.199 357.558 184.91 357.558 184.91C355.751 184.675 348.458 187.407 345.868 197.374C343.279 207.339 347.16 215.579 347.16 215.579C347.16 215.579 700.597 227.266 711.322 223.979C722.046 220.693 731.42 214.115 729.633 201.212C727.845 188.309 717.891 182.007 714.714 179.499C711.538 176.992 710.998 173.305 710.998 173.305C707.506 96.6276 650.542 108.3 650.542 108.3C638.097 60.2743 581.742 60.1085 581.742 60.1085C581.742 60.1085 599.828 38.7664 572.522 23.3764C568.376 21.0399 563.91 20.0025 559.31 19.9222C533.61 19.4753 503.843 48.9416 503.843 48.9416Z" fill="url(#paint1_linear_867_93740)"/>
<path d="M662.549 144.632C662.549 144.632 664.773 153.499 667.165 163.921C669.455 173.905 671.788 184.145 672.262 185.7C672.735 187.255 674.28 188.331 679.342 187.506C684.403 186.68 691.891 182.246 690.899 173.837C689.908 165.428 685.909 146.445 683.109 142.262C680.31 138.079 675.997 136.559 670.164 136.924C664.331 137.289 660.809 138.568 662.549 144.632Z" fill="#EFD9AD"/>
<path d="M394.45 178.801C394.45 178.801 395.164 187.923 396.217 198.572C397.225 208.772 398.273 219.229 398.319 220.855C398.366 222.483 397.246 224.01 392.194 224.892C387.142 225.774 378.647 224.04 376.91 215.757C375.175 207.474 372.921 188.196 374.24 183.317C375.559 178.438 379.156 175.582 384.791 174.011C390.427 172.439 394.168 172.491 394.45 178.801Z" fill="#EFD9AD"/>
<path d="M519.204 74.0713L516.927 87.1105C516.624 88.8472 514.975 90.0175 513.265 89.7103L512.702 89.6095C510.991 89.3023 509.839 87.6304 510.143 85.8937L512.419 72.8547C512.722 71.1171 514.37 69.9477 516.081 70.254L516.645 70.3555C518.356 70.6626 519.507 72.3345 519.204 74.0713Z" fill="#FFFEFA"/>
<path d="M576.847 83.0085L564.275 86.5491C562.601 87.0204 560.852 86.016 560.388 84.3162L560.236 83.7564C559.771 82.0568 560.763 80.2808 562.436 79.8096L575.008 76.2691C576.683 75.7969 578.432 76.8021 578.896 78.5009L579.049 79.0607C579.512 80.7605 578.522 82.5372 576.847 83.0085Z" fill="#E180B8"/>
<path d="M457.765 92.0868L444.914 94.3649C443.202 94.6689 441.557 93.495 441.259 91.7583L441.161 91.186C440.863 89.4484 442.019 87.7787 443.731 87.4747L456.582 85.1966C458.294 84.8934 459.938 86.0663 460.237 87.8041L460.335 88.3764C460.633 90.1131 459.477 91.7836 457.765 92.0868Z" fill="#6CC780"/>
<path d="M637.037 82.5348L626.409 90.2215C624.995 91.2456 623.013 90.9081 622.005 89.4718L621.672 88.9986C620.664 87.5631 620.999 85.5496 622.413 84.5254L633.039 76.8392C634.454 75.8152 636.438 76.1531 637.445 77.5893L637.777 78.0622C638.785 79.4985 638.452 81.5108 637.037 82.5348Z" fill="#6CC780"/>
<path d="M430.664 168.1C430.664 168.1 434.088 165.002 438.722 161.951C443.357 158.899 446.801 158.347 449.073 158.05C451.345 157.753 453.056 156.205 451.455 153.866C449.855 151.528 438.689 147.384 430.808 150.961C422.926 154.539 420.817 163.272 421.374 167.684C421.931 172.095 425.343 172.872 426.882 171.55C428.422 170.227 430.664 168.1 430.664 168.1Z" fill="#DEA85F"/>
<path d="M632.37 140.616C632.37 140.616 629.651 139.37 624.947 138.322C620.243 137.274 616.411 137.64 614.45 138.083C612.489 138.526 610.654 137.181 611.304 134.835C611.955 132.49 617.751 127.2 627.235 127.416C634.785 127.588 639.021 134.25 639.828 137.937C640.634 141.623 638.041 143.264 636.389 142.67C634.737 142.076 632.37 140.616 632.37 140.616Z" fill="#DEA85F"/>
<path d="M485.408 129.18C466.188 139.647 461.603 157.765 462.347 177.929C463.091 198.093 470.197 219.905 470.197 219.905L616.561 227.017C616.561 227.017 615.929 185.129 614.393 165.457C612.858 145.783 608.005 123.159 580.9 118.14C575.973 117.227 570.322 116.666 564.25 116.42C536.916 115.315 501.135 120.617 485.408 129.18Z" fill="url(#paint2_linear_867_93740)"/>
<path d="M529.343 62.3404C530.218 62.0061 541.773 60.0271 553.729 52.1156C565.685 44.2041 570.703 38.3336 574.229 40.8392C577.754 43.3457 562.421 57.5145 551.173 60.5929C539.926 63.6721 529.343 62.3404 529.343 62.3404Z" fill="#D69847"/>
<path d="M450.776 77.6362C450.776 77.6362 449.699 89.3442 461.635 92.4291C473.569 95.514 493.331 87.2293 497.765 70.4914C502.199 53.7526 463.431 51.9691 463.431 51.9691L457.788 75.5458L450.776 77.6362Z" fill="#F0AA4B"/>
<path d="M580.596 181.453L557.914 184.171C554.241 184.611 550.884 181.921 550.452 178.193C550.02 174.465 552.672 171.055 556.344 170.615L579.026 167.897C582.699 167.457 586.056 170.147 586.488 173.875C586.92 177.603 584.269 181.013 580.596 181.453Z" fill="#F5DDAB"/>
<path d="M522.241 197.883L499.406 198.262C495.708 198.323 492.634 195.304 492.576 191.55C492.518 187.796 495.496 184.675 499.193 184.614L522.027 184.235C525.725 184.173 528.799 187.194 528.857 190.948C528.915 194.701 525.938 197.821 522.241 197.883Z" fill="#F5DDAB"/>
<path d="M484.175 119.772L472.934 113.057C471.438 112.164 470.935 110.188 471.817 108.668L472.107 108.167C472.989 106.647 474.935 106.134 476.431 107.029L487.672 113.743C489.169 114.638 489.673 116.613 488.791 118.134L488.5 118.633C487.618 120.154 485.673 120.666 484.175 119.772Z" fill="#E180B8"/>
<path d="M479.892 40.929L491.729 46.4907C493.305 47.2309 493.996 49.1466 493.266 50.7478L493.025 51.2745C492.295 52.8758 490.407 53.5787 488.83 52.8387L476.994 47.2769C475.418 46.5359 474.726 44.6203 475.457 43.0199L475.697 42.4933C476.427 40.893 478.316 40.188 479.892 40.929Z" fill="#E180B8"/>
<path d="M564.002 222.807C564.002 222.807 577.424 210.83 601.172 205.254C624.921 199.678 649.495 209.385 649.495 209.385C649.495 209.385 675.308 188.321 695.959 221.155L564.002 222.807Z" fill="#F5D9A3"/>
<path d="M382.965 221.27C383.206 220.546 393.585 207.512 416.756 202.685C439.926 197.857 466.717 208.236 472.51 224.407L382.965 221.27Z" fill="#F5D9A3"/>
<path d="M437.558 413.266C438.131 413.552 507.314 413.376 533.973 413.298C560.632 413.376 629.815 413.552 630.388 413.266C666.939 394.99 681.008 361.486 686.865 331.066H381.081C386.938 361.486 401.007 394.99 437.558 413.266Z" fill="#EB459F"/>
<path d="M724.711 219.3C723.293 213.272 716.554 214.337 716.554 214.337H541.101H526.845H351.391C351.391 214.337 344.653 213.272 343.235 219.3C341.816 225.328 346.428 226.393 351.391 231.358C356.356 236.322 374.795 254.406 376.567 288.092C377.18 299.747 377.983 314.975 381.081 331.066H686.865C689.962 314.975 690.765 299.747 691.378 288.092C693.151 254.406 711.59 236.322 716.554 231.358C721.519 226.393 726.129 225.328 724.711 219.3Z" fill="#D11583"/>
<path d="M476.477 225.336L476.444 225.335L476.428 225.332L476.425 225.331H476.427H476.394M634.088 221.884H661.113H677.553" stroke="#FF73D0" stroke-width="6.67086" stroke-linecap="round"/>
<path d="M436.672 210.65C436.672 210.65 449.222 211.856 456.463 224.649C463.704 237.441 474.564 243.234 487.116 240.82C499.666 238.406 507.872 228.269 500.149 215.718C492.426 203.168 455.498 201.719 436.672 210.65Z" fill="#F5D9A3"/>
<path d="M719.017 411.117C717.712 406.984 714.013 407.855 714.013 407.855H568.688H566.313H353.344C353.344 407.855 349.647 406.984 348.341 411.117C347.036 415.25 352.04 416.991 359.001 417.861C365.961 418.731 389.671 423.081 407.944 426.126C426.215 429.172 436.657 431.782 440.355 434.176H539.316H595.687H627.004C630.701 431.782 641.142 429.172 659.414 426.126C677.686 423.081 701.396 418.731 708.357 417.861C715.318 416.991 720.322 415.25 719.017 411.117Z" fill="#423D80"/>
<path d="M346.552 241.957C325.551 257.029 326.459 292.495 327.372 315.024C327.767 324.763 329.819 344.855 337.114 360.387C356.527 401.717 407.601 396.088 431.561 390.446C439.93 388.474 444.997 385.969 443.371 377.835C442.169 371.831 436.765 369.628 425.756 370.83C418.166 371.658 383.999 371.956 371.517 359.778C359.035 347.6 354.468 322.027 354.772 305.587C355.076 289.146 355.381 265.095 373.648 256.571C391.914 248.046 411.533 250.603 420.725 251.247C430.589 251.94 436.16 250.732 436.818 244.672C437.684 236.712 432.353 234.102 422.663 232.52C401.764 229.109 365.908 228.066 346.552 241.957Z" fill="#FF78B9"/>
<path d="M346.552 241.957C325.551 257.029 326.459 292.495 327.372 315.024C327.767 324.763 329.819 344.855 337.114 360.387C356.527 401.717 407.601 396.088 431.561 390.446C439.93 388.474 444.997 385.969 443.371 377.835C442.169 371.831 436.765 369.628 425.756 370.83C418.166 371.658 383.999 371.956 371.517 359.778C359.035 347.6 354.468 322.027 354.772 305.587C355.076 289.146 355.381 265.095 373.648 256.571C391.914 248.046 411.533 250.603 420.725 251.247C430.589 251.94 436.16 250.732 436.818 244.672C437.684 236.712 432.353 234.102 422.663 232.52C401.764 229.109 365.908 228.066 346.552 241.957Z" fill="#FF78B9"/>
<path d="M341.504 261.352L345.426 261.24C345.932 261.225 346.388 260.952 346.635 260.51C347.476 259.001 349.692 255.328 353 252.02L356.217 248.803C357.197 247.822 356.358 246.158 354.986 246.366C353.832 246.542 352.509 246.885 351.16 247.523C347.728 249.149 343.179 253.809 340.193 259.243C339.663 260.208 340.404 261.384 341.504 261.352Z" fill="#EEFCFF"/>
<mask id="mask2_867_93740" style="mask-type:luminance" maskUnits="userSpaceOnUse" x="-43" y="-167" width="900" height="600">
<path d="M-43 -167H857V433H-43V-167Z" fill="white"/>
</mask>
<g mask="url(#mask2_867_93740)">
<path d="M105.91 38.0098H118.204C121.168 38.0098 123.699 38.4224 125.719 39.3347C127.598 40.1057 129.194 41.4524 130.345 43.1357C131.355 44.819 131.931 46.7086 131.855 48.6091C131.855 50.5748 131.355 52.4753 130.269 54.1586C129.118 55.9179 127.38 57.2428 125.426 58.0899C123.254 59.0782 120.517 59.556 117.335 59.556H105.91V38.0098ZM117.259 54.0174C119.279 54.0174 120.799 53.5287 121.885 52.5404C122.971 51.487 123.547 50.0752 123.471 48.5331C123.547 47.1322 123.036 45.8072 122.026 44.819C121.082 43.9067 119.648 43.4072 117.693 43.4072H113.86V53.9414H117.259V54.0174Z" fill="white"/>
<path d="M150.361 59.4802C148.775 59.0567 147.179 58.4376 145.734 57.5906V52.4646C146.962 53.3769 148.406 54.0068 149.85 54.3543C151.512 54.843 153.173 55.0602 154.911 55.1253C155.487 55.1253 156.073 55.0602 156.649 54.8538C157.007 54.6475 157.224 54.4303 157.224 54.1479C157.224 53.8656 157.148 53.5832 156.931 53.3769C156.573 53.0945 156.138 52.9533 155.704 52.8882L151.946 52.0411C149.774 51.5524 148.265 50.8465 147.32 49.9994C146.375 49.0872 145.876 47.8274 145.952 46.5677C145.952 45.4491 146.386 44.3196 147.179 43.4726C148.124 42.4843 149.275 41.7893 150.578 41.4417C152.24 40.953 153.977 40.6707 155.78 40.7358C157.441 40.7358 159.038 40.877 160.623 41.3006C161.927 41.5829 163.143 42.0716 164.305 42.7015V47.5451C163.219 46.9152 162.068 46.4916 160.917 46.2093C159.613 45.8618 158.234 45.7206 156.931 45.7206C154.976 45.7206 153.977 46.079 153.977 46.7088C153.977 46.9912 154.107 47.2627 154.401 47.4039C154.911 47.6102 155.498 47.7623 156.073 47.9034L159.244 48.4573C161.264 48.8048 162.861 49.4347 163.871 50.2818C164.881 51.1289 165.391 52.4646 165.391 54.1479C165.391 55.9724 164.446 57.6557 162.861 58.568C161.199 59.6214 158.81 60.1861 155.704 60.1861C153.901 60.1209 152.098 59.9037 150.361 59.4802Z" fill="white"/>
<path d="M172.775 58.8611C171.114 58.09 169.659 56.8954 168.649 55.3533C167.704 53.8764 167.28 52.117 167.28 50.3577C167.28 48.5984 167.715 46.926 168.725 45.449C169.735 43.9069 171.179 42.7774 172.917 42.0064C175.013 41.1593 177.261 40.6815 179.498 40.7466C182.68 40.7466 185.275 41.3765 187.371 42.7123V48.3269C186.578 47.8382 185.721 47.4147 184.776 47.1323C183.766 46.8499 182.68 46.6436 181.594 46.6436C179.639 46.6436 178.129 46.9911 176.967 47.697C175.382 48.5441 174.871 50.4337 175.74 51.9759C176.033 52.4646 176.457 52.8881 176.967 53.1705C178.053 53.8764 179.563 54.2239 181.659 54.2239C182.745 54.2239 183.766 54.0827 184.776 53.8003C185.721 53.518 186.578 53.1705 187.371 52.6818V58.09C184.917 59.491 182.169 60.186 179.346 60.1209C177.109 60.186 174.795 59.7733 172.775 58.8611Z" fill="white"/>
<path d="M195.255 58.8502C193.518 58.0792 192.074 56.8846 191.064 55.3424C190.119 53.8655 189.619 52.117 189.619 50.3577C189.619 48.5984 190.054 46.9151 191.064 45.4381C192.074 43.9612 193.518 42.7774 195.255 42.0715C199.371 40.4534 204.074 40.4534 208.19 42.0715C209.851 42.7774 211.296 43.9612 212.306 45.4381C213.251 46.9151 213.75 48.6744 213.75 50.3577C213.75 52.117 213.251 53.8655 212.306 55.3424C211.296 56.8846 209.851 58.0792 208.19 58.8502C203.998 60.5335 199.371 60.5335 195.255 58.8502ZM204.791 53.3768C205.583 52.6057 206.029 51.4763 205.953 50.4229C206.029 49.3043 205.583 48.2509 204.791 47.4798C203.922 46.7087 202.771 46.3504 201.609 46.3504C200.447 46.2852 199.306 46.7087 198.437 47.4798C197.645 48.2509 197.199 49.3043 197.275 50.4229C197.199 51.5414 197.645 52.6057 198.437 53.3768C199.306 54.1478 200.447 54.5605 201.609 54.4954C202.836 54.5605 203.998 54.1478 204.791 53.3768Z" fill="white"/>
<path d="M232.69 41.8544V48.5333C231.745 47.9685 230.67 47.697 229.584 47.7622C227.922 47.7622 226.63 48.24 225.685 49.2283C224.816 50.2166 224.306 51.7587 224.306 53.8655V59.4801H216.574V41.5068H224.165V47.1975C224.599 45.0906 225.24 43.5485 226.185 42.5603C227.13 41.572 228.433 41.0181 229.801 41.0833C230.811 41.0833 231.821 41.3657 232.69 41.8544Z" fill="white"/>
<path d="M258.407 37.3691V59.491H250.674V55.4836C250.099 56.8846 249.013 58.1552 247.71 58.9262C246.189 59.7733 244.538 60.186 242.801 60.1208C241.215 60.186 239.619 59.7082 238.25 58.8611C236.947 58.014 235.861 56.8194 235.21 55.4185C234.493 53.8763 234.124 52.1822 234.124 50.4989C234.048 48.7396 234.493 46.9911 235.21 45.449C235.937 43.972 237.099 42.7883 238.468 41.9412C239.912 41.0941 241.574 40.6706 243.235 40.6706C246.917 40.6706 249.371 42.2236 250.674 45.3078V37.3691H258.407ZM249.523 53.2356C250.316 52.4645 250.75 51.4111 250.674 50.3577C250.674 49.3043 250.24 48.2617 249.523 47.5558C247.72 46.0789 245.114 46.0789 243.235 47.5558C242.442 48.3269 241.997 49.3043 242.073 50.3577C241.997 51.4111 242.442 52.4645 243.235 53.2356C244.104 54.0067 245.179 54.365 246.341 54.365C247.568 54.4302 248.654 54.0067 249.523 53.2356Z" fill="white"/>
<path d="M77.4465 32.667C73.6889 31.0488 69.7033 29.8651 65.5874 29.1592C65.0118 30.1474 64.5122 31.1248 64.0778 32.1783C59.7447 31.5484 55.2486 31.5484 50.9155 32.1783C50.4811 31.1248 49.9815 30.1474 49.406 29.1592C45.3552 29.8651 41.3804 31.0597 37.5468 32.743C30.1077 43.4835 28.0769 53.9417 29.0869 64.3347C33.4961 67.495 38.4156 69.8842 43.6176 71.4263C44.7687 69.8842 45.8547 68.266 46.7235 66.5827C45.062 65.9529 43.4004 65.1818 41.8148 64.3347C42.2492 64.0524 42.6076 63.77 43.042 63.4876C52.2187 67.7013 62.8398 67.7013 72.0925 63.4876C72.4509 63.77 72.8853 64.1284 73.3197 64.3347C71.7341 65.247 70.1486 66.018 68.411 66.5827C69.2798 68.266 70.3658 69.8842 71.5169 71.4263C76.7189 69.8842 81.6384 67.495 86.0476 64.3347C87.1988 52.3236 83.9516 41.9305 77.4465 32.667ZM47.9507 57.949C45.1271 57.949 42.7488 55.4187 42.7488 52.3996C42.7488 49.3805 44.9968 46.785 47.8856 46.785C50.7743 46.785 53.0875 49.3153 53.0875 52.3996C53.0875 55.4838 50.8395 57.949 47.9507 57.949ZM67.0317 57.949C64.2081 57.949 61.9058 55.4187 61.9058 52.3996C61.9058 49.3805 64.143 46.785 67.0317 46.785C69.9205 46.785 72.2445 49.3153 72.1685 52.3996C72.1685 55.4838 69.9205 57.949 67.0317 57.949Z" fill="white"/>
<path d="M138.436 43.4725C140.554 43.4725 142.27 41.9629 142.27 40.1059C142.27 38.2488 140.554 36.7393 138.436 36.7393C136.318 36.7393 134.603 38.2488 134.603 40.1059C134.603 41.9629 136.318 43.4725 138.436 43.4725Z" fill="white"/>
<path d="M134.614 45.7969C137.068 46.7851 139.892 46.7851 142.346 45.7969V59.6325H134.614V45.7969Z" fill="white"/>
</g>
</g>
</g>
</g>
<defs>
<linearGradient id="paint0_linear_867_93740" x1="36.4309" y1="43.11" x2="759.655" y2="392.07" gradientUnits="userSpaceOnUse">
<stop stop-color="#FF8C19"/>
<stop offset="0.33" stop-color="#FFB93A"/>
<stop offset="0.67" stop-color="#FFE75C"/>
</linearGradient>
<linearGradient id="paint1_linear_867_93740" x1="505.629" y1="64.0899" x2="518.197" y2="192.477" gradientUnits="userSpaceOnUse">
<stop offset="0.02" stop-color="#F1AA4B"/>
<stop offset="0.09" stop-color="#F2B868"/>
<stop offset="0.16" stop-color="#F4C585"/>
<stop offset="0.58" stop-color="#FAE2C2"/>
<stop offset="1" stop-color="white"/>
</linearGradient>
<linearGradient id="paint2_linear_867_93740" x1="531.486" y1="130.228" x2="539.652" y2="184.473" gradientUnits="userSpaceOnUse">
<stop stop-color="#F4BE74"/>
<stop offset="0.33" stop-color="#F8D7AA"/>
<stop offset="0.7" stop-color="#FCF0E0"/>
</linearGradient>
<clipPath id="clip0_867_93740">
<rect x="2" y="3" width="810.5" height="430" rx="44" fill="white"/>
</clipPath>
<clipPath id="clip1_867_93740">
<rect width="900" height="600" fill="white" transform="translate(-43 -167)"/>
</clipPath>
</defs>
</svg>
