<svg width="408" height="48" viewBox="0 0 408 48" fill="none" xmlns="http://www.w3.org/2000/svg">
<g clip-path="url(#clip0_523_14911)">
<rect width="408" height="48" rx="4" fill="url(#paint0_linear_523_14911)"/>
<g opacity="0.3">
<path d="M334.154 35.7419V39.2055C334.154 39.29 334.238 39.3494 334.329 39.3338L344.172 37.6004C344.328 37.5723 344.328 37.3689 344.172 37.3407L334.329 35.6074C334.238 35.598 334.154 35.6606 334.154 35.7419Z" fill="#8CD9FF"/>
<path d="M339.15 26.9793V31.5035C339.15 31.613 339.26 31.6944 339.379 31.6725L352.235 29.4103C352.441 29.3728 352.441 29.1069 352.235 29.0724L339.379 26.8103C339.26 26.7915 339.15 26.8729 339.15 26.9793Z" fill="#FFF2A6"/>
<path d="M331.05 18.7623V23.7746C331.05 23.8935 331.159 23.9842 331.278 23.9623L344.134 21.4562C344.341 21.4155 344.341 21.1214 344.134 21.0807L331.278 18.5746C331.159 18.5527 331.05 18.6434 331.05 18.7623Z" fill="#91FFAD"/>
<path d="M330.737 46.6549C330.477 46.6549 330.268 46.4453 330.268 46.1856V18.2174C330.268 17.9577 330.477 17.748 330.737 17.748C330.997 17.748 331.206 17.9577 331.206 18.2174V46.1856C331.206 46.4453 330.997 46.6549 330.737 46.6549Z" fill="#2727AF"/>
<path d="M334.153 46.0135C333.894 46.0135 333.684 45.8039 333.684 45.5442V35.2974C333.684 35.0378 333.894 34.8281 334.153 34.8281C334.413 34.8281 334.623 35.0378 334.623 35.2974V45.5442C334.623 45.8039 334.413 46.0135 334.153 46.0135Z" fill="#2727AF"/>
<path d="M339.1 54.8746C338.84 54.8746 338.631 54.665 338.631 54.4053V26.4371C338.631 26.1774 338.84 25.9678 339.1 25.9678C339.36 25.9678 339.569 26.1774 339.569 26.4371V54.4053C339.569 54.665 339.36 54.8746 339.1 54.8746Z" fill="#2727AF"/>
<path d="M360.36 17.2112C359.218 16.4697 358.448 15.2745 358.248 13.9259L357.92 11.6263C357.876 11.5293 357.788 11.4605 357.685 11.4386C357.572 11.4354 357.472 11.5168 357.45 11.6263L357.122 13.9259C356.9 15.2651 356.136 16.454 355.01 17.2112L354.681 17.3989C354.622 17.4427 354.587 17.5115 354.587 17.5866C354.591 17.6742 354.625 17.7556 354.681 17.8213L355.01 18.009C356.133 18.7474 356.9 19.9207 357.122 21.2473L357.45 23.547C357.45 23.6878 357.544 23.7347 357.685 23.7347C357.798 23.7378 357.898 23.6565 357.92 23.547L358.248 21.2473C358.448 19.9113 359.218 18.7318 360.36 18.009L360.642 17.8213C360.736 17.7806 360.792 17.6868 360.782 17.5866C360.782 17.4928 360.736 17.4458 360.642 17.3989L360.36 17.2112Z" fill="white"/>
<path d="M354.084 7.03855C353.208 6.47849 352.61 5.57427 352.441 4.55116L352.206 2.81468C352.206 2.71143 352.122 2.62695 352.019 2.62695C351.925 2.62695 351.878 2.72082 351.831 2.81468L351.596 4.55116C351.443 5.58366 350.842 6.49414 349.954 7.03855L349.719 7.22627C349.672 7.22627 349.672 7.2732 349.672 7.36706C349.669 7.41713 349.685 7.47032 349.719 7.50786L349.954 7.64866C350.845 8.21184 351.446 9.13796 351.596 10.183L351.831 11.9195C351.878 12.0133 351.925 12.0602 352.019 12.0602C352.112 12.0602 352.206 12.0133 352.206 11.9195L352.441 10.183C352.61 9.14422 353.204 8.22748 354.084 7.64866L354.318 7.50786C354.365 7.46093 354.412 7.414 354.412 7.36706C354.412 7.2732 354.365 7.22627 354.318 7.22627L354.084 7.03855Z" fill="#EF913C"/>
<path d="M322.133 33.6997C321.241 33.1366 320.64 32.2104 320.49 31.1654L320.255 29.4289C320.208 29.3351 320.161 29.2412 320.068 29.2412C319.964 29.2412 319.88 29.3257 319.88 29.4289L319.645 31.1654C319.476 32.2042 318.882 33.1209 318.003 33.6997L317.768 33.8405C317.721 33.8405 317.674 33.9344 317.674 33.9813C317.674 34.0283 317.721 34.1221 317.768 34.1221L318.003 34.2629C318.882 34.8417 319.476 35.7585 319.645 36.7972L319.88 38.5337C319.88 38.6276 319.974 38.6745 320.068 38.6745C320.161 38.6745 320.208 38.6276 320.255 38.5337L320.49 36.7972C320.64 35.7522 321.241 34.8261 322.133 34.2629L322.367 34.1221C322.414 34.1221 322.414 34.0283 322.414 33.9813C322.414 33.9344 322.414 33.8405 322.367 33.8405L322.133 33.6997Z" fill="#FFF2A6"/>
<path d="M371.211 14.9364V18.5063C371.211 18.5908 371.245 18.6565 371.286 18.6409L375.503 16.8575C375.572 16.8293 375.572 16.6197 375.503 16.5915L371.286 14.8081C371.248 14.7862 371.211 14.8488 371.211 14.9364Z" fill="#91FFAD"/>
<path d="M371.079 26.9095C370.82 26.9095 370.61 26.6999 370.61 26.4402V14.651C370.61 14.3913 370.82 14.1816 371.079 14.1816C371.339 14.1816 371.549 14.3913 371.549 14.651V26.4402C371.549 26.6968 371.339 26.9095 371.079 26.9095Z" fill="#2727AF"/>
<mask id="mask0_523_14911" style="mask-type:luminance" maskUnits="userSpaceOnUse" x="0" y="-48" width="432" height="108">
<path d="M10.4727 -47.2861H421.527C427.31 -47.2861 432 -42.8026 432 -37.274V49.7063C432 55.2348 427.31 59.7184 421.527 59.7184H10.4727C4.68982 59.7184 0 55.2348 0 49.7063V-37.274C0 -42.8026 4.68982 -47.2861 10.4727 -47.2861Z" fill="white"/>
</mask>
<g mask="url(#mask0_523_14911)">
<path d="M430.091 32.2946V19.5667C430.091 19.2789 429.857 19.0442 429.569 19.0442H427.294V-18.4136H429.372C429.622 -18.4136 429.854 -18.5544 429.976 -18.7734C432.322 -22.9942 430.633 -25.832 429.988 -26.6768C429.86 -26.8457 429.66 -26.9396 429.45 -26.9396H427.294V-31.0195H428.249C428.324 -31.0195 428.386 -31.0821 428.38 -31.1572C428.308 -32.7028 427.031 -33.9355 425.467 -33.9355C423.903 -33.9355 422.626 -32.7028 422.554 -31.1572C422.551 -31.0821 422.614 -31.0195 422.686 -31.0195H423.64V-26.9364H421.484C421.275 -26.9364 421.074 -26.8395 420.946 -26.6736C420.301 -25.8289 418.612 -22.991 420.958 -18.7703C421.081 -18.5513 421.309 -18.4105 421.562 -18.4105H423.64V19.0442H421.365C421.077 19.0442 420.843 19.2789 420.843 19.5667V28.4087H409.748C409.501 28.4087 409.301 28.6089 409.301 28.8561V30.0888C409.301 30.4925 408.972 30.821 408.569 30.821H399.561C399.138 30.821 398.747 31.0463 398.534 31.4123L394.514 38.3895C394.042 39.2093 393.169 39.713 392.224 39.713H381.855L380.563 34.6037C380.516 34.4222 380.713 34.2783 380.872 34.3722L381.483 34.7288C381.648 34.8258 381.855 34.7069 381.855 34.5161V29.9168C381.855 29.5601 381.686 29.2222 381.401 29.0094L371.076 21.2219L360.751 29.0094C360.467 29.2253 360.298 29.5601 360.298 29.9168V34.5161C360.298 34.7069 360.504 34.8258 360.67 34.7288L361.28 34.3722C361.44 34.2783 361.634 34.4254 361.59 34.6037L360.298 39.713C359.156 39.713 356.821 39.713 353.937 39.713C350.799 39.713 348.615 42.069 347.751 43.1922C347.47 43.5614 347.031 43.7742 346.568 43.7742H90C52.1886 43.7742 51.1753 36.6794 38 15C24.8247 -6.67937 -4 -11 -4 -11V59.7185H419.078H420.846H430.091H432V32.2946H430.091Z" fill="#2727AF"/>
</g>
</g>
</g>
<defs>
<linearGradient id="paint0_linear_523_14911" x1="0" y1="0" x2="408" y2="0" gradientUnits="userSpaceOnUse">
<stop stop-color="#8547C6"/>
<stop offset="0.502368" stop-color="#B845C1"/>
<stop offset="1" stop-color="#AB5D8A"/>
</linearGradient>
<clipPath id="clip0_523_14911">
<rect width="408" height="48" rx="4" fill="white"/>
</clipPath>
</defs>
</svg>
