<svg width="111" height="110" viewBox="0 0 111 110" fill="none" xmlns="http://www.w3.org/2000/svg">
<path d="M61.202 28.3569C68.28 28.3569 74.017 22.6195 74.017 15.542C74.017 8.4645 68.28 2.72705 61.202 2.72705C54.125 2.72705 48.387 8.4645 48.387 15.542C48.387 22.6195 54.125 28.3569 61.202 28.3569Z" fill="#57F287"/>
<path d="M75.858 25.6299C82.936 25.6299 88.673 19.8924 88.673 12.8149C88.673 5.73745 82.936 0 75.858 0C68.781 0 63.043 5.73745 63.043 12.8149C63.043 19.8924 68.781 25.6299 75.858 25.6299Z" fill="#57F287"/>
<path d="M84.844 34.9849C91.921 34.9849 97.658 29.2474 97.658 22.1699C97.658 15.0924 91.921 9.35498 84.844 9.35498C77.766 9.35498 72.029 15.0924 72.029 22.1699C72.029 29.2474 77.766 34.9849 84.844 34.9849Z" fill="#57F287"/>
<path d="M10.9739 9.13232H85.507L110.474 50.3758L106.055 60.6867H31.4484L6.55499 19.4432L10.9739 9.13232Z" fill="#FF78B9"/>
<path d="M33.9522 9.13232H27.6184C27.7725 9.85298 28.173 10.4974 28.7511 10.9544C29.3292 11.4115 30.0486 11.6527 30.7853 11.6364C31.5186 11.6389 32.2311 11.3926 32.8064 10.9378C33.3816 10.483 33.7856 9.84646 33.9522 9.13232Z" fill="#FFBADB"/>
<path d="M43.6737 17.5293C42.8665 17.5261 42.0678 17.6952 41.3311 18.0255C40.5945 18.3557 39.9368 18.8394 39.4021 19.4442H47.872C47.351 18.8413 46.707 18.358 45.982 18.0275C45.258 17.6969 44.4702 17.527 43.6737 17.5293Z" fill="#FFBADB"/>
<path d="M18.9277 17.5293C18.1204 17.5261 17.3218 17.6952 16.5851 18.0255C15.8484 18.3557 15.1908 18.8394 14.6561 19.4442H23.1257C22.6054 18.8413 21.9608 18.358 21.2362 18.0275C20.5116 17.6969 19.7241 17.527 18.9277 17.5293Z" fill="#FFBADB"/>
<path d="M77.11 9.13232C77.264 9.85298 77.665 10.4974 78.243 10.9544C78.821 11.4115 79.541 11.6527 80.277 11.6364C81.011 11.6389 81.723 11.3926 82.298 10.9378C82.874 10.483 83.278 9.84646 83.444 9.13232H77.11Z" fill="#FFBADB"/>
<path d="M58.698 9.13232H52.364C52.518 9.85298 52.919 10.4974 53.497 10.9544C54.075 11.4115 54.795 11.6527 55.531 11.6364C56.265 11.6389 56.977 11.3926 57.552 10.9378C58.128 10.483 58.532 9.84646 58.698 9.13232Z" fill="#FFBADB"/>
<path d="M68.42 17.5293C67.612 17.5261 66.814 17.6952 66.077 18.0255C65.34 18.3557 64.683 18.8394 64.148 19.4442H72.618C72.097 18.8413 71.453 18.358 70.728 18.0275C70.004 17.6969 69.216 17.527 68.42 17.5293Z" fill="#FFBADB"/>
<path d="M39.476 9.13232H53.101L48.682 19.4432H35.057L39.476 9.13232Z" fill="#57F287"/>
<path d="M6.55499 19.4434H81.088L106.055 60.6869H31.4484L6.55499 19.4434Z" fill="black"/>
<path d="M85.506 9.13232L81.087 19.4432L106.054 60.6867L110.473 50.3758L85.506 9.13232Z" fill="#EB459F"/>
<path d="M95.155 42.644L98.764 48.6096V47.9468C98.778 46.7996 98.44 45.6757 97.794 44.7272C97.149 43.7787 96.228 43.0515 95.155 42.644Z" fill="#FFBADB"/>
<path d="M106.055 60.6857L107.896 56.4141C107.62 55.8893 107.207 55.4485 106.702 55.1376C106.197 54.8267 105.617 54.6571 105.024 54.6465C104.237 54.6483 103.478 54.9363 102.888 55.4566L106.055 60.6857Z" fill="#FFBADB"/>
<path d="M87.496 23.2003C87.496 23.9416 87.643 24.6755 87.929 25.3594C88.215 26.0434 88.633 26.6637 89.161 27.1845C89.689 27.7052 90.314 28.1159 91.002 28.3929C91.69 28.6698 92.425 28.8074 93.167 28.7976C94.456 28.8116 95.709 28.368 96.702 27.5456L90.883 17.9712C89.87 18.4169 89.009 19.1496 88.407 20.0788C87.805 21.008 87.488 22.0931 87.496 23.2003Z" fill="#FFBADB"/>
<path d="M96.922 27.9126L102.961 38.0025L98.542 48.3134L92.429 38.2235L96.922 27.9126Z" fill="#29CC7A"/>
<path d="M18.9278 27.3242C21.2109 46.7676 30.3434 58.7724 30.3434 58.7724" stroke="#5865F2" stroke-width="19" stroke-miterlimit="10" stroke-linecap="round"/>
<path d="M61.497 28.4297C57.151 32.1122 55.384 32.1122 55.384 32.1122L70.482 32.9959C70.553 32.2828 70.478 31.5628 70.263 30.8792C70.048 30.1956 69.696 29.5628 69.23 29.0189C68.763 28.4685 68.192 28.0163 67.55 27.6884C66.907 27.3604 66.206 27.1633 65.486 27.1085C64.767 27.0537 64.044 27.1423 63.359 27.3691C62.674 27.5959 62.041 27.9564 61.497 28.4297Z" fill="#57F287"/>
<path d="M43.8948 31.3735L60.908 32.4046C60.834 32.4046 58.33 32.11 52.88 25.3343C52.011 24.3198 50.8 23.6598 49.476 23.4796C48.153 23.2993 46.809 23.6114 45.701 24.3565C44.592 25.1016 43.7956 26.2279 43.4627 27.5215C43.1299 28.815 43.2836 30.1858 43.8948 31.3735Z" fill="#29CC7A"/>
<path d="M28.6398 41.9475L30.8454 42.0786C31.3524 42.1087 31.8266 42.339 32.1638 42.7187C32.501 43.0985 32.6735 43.5967 32.6434 44.1036L31.7305 59.4692C31.7154 59.7266 31.6485 59.9782 31.5338 60.2091C31.4191 60.4399 31.259 60.6453 31.063 60.8127C30.867 60.9802 30.6393 61.1064 30.3934 61.1837C30.1474 61.2611 29.8885 61.288 29.6319 61.2628L27.4263 61.1318C26.2174 61.0599 25.0865 60.5108 24.2825 59.6052C23.4784 58.6996 23.0671 57.5117 23.1389 56.3027L23.7373 46.2306C23.8091 45.0217 24.3583 43.8908 25.2639 43.0868C26.1695 42.2827 27.3574 41.8713 28.5663 41.9432L28.6398 41.9475Z" fill="#7196FF"/>
<path d="M73.921 33.206L38.043 31.0744C32.4397 30.7415 27.6275 35.0141 27.2946 40.6174L26.3542 56.4461C26.0213 62.0494 30.2938 66.8617 35.8971 67.1946L71.775 69.3261C77.378 69.659 82.19 65.3865 82.523 59.7832L83.463 43.9544C83.796 38.3511 79.524 33.5389 73.921 33.206Z" fill="#7196FF"/>
<path d="M33.8787 48.2402C35.587 48.2402 36.9719 46.8553 36.9719 45.147C36.9719 43.4386 35.587 42.0537 33.8787 42.0537C32.1703 42.0537 30.7854 43.4386 30.7854 45.147C30.7854 46.8553 32.1703 48.2402 33.8787 48.2402Z" fill="black"/>
<path d="M76.82 44.7993L85.863 45.3366C87.053 45.4072 88.165 45.9475 88.956 46.8385C89.747 47.7295 90.152 48.8983 90.081 50.0877L89.474 60.3069C89.404 61.4963 88.863 62.6089 87.972 63.4C87.081 64.1911 85.913 64.5958 84.723 64.5251L75.68 63.9879L76.82 44.7993Z" fill="#7196FF"/>
<path d="M81.61 47.3022L84.184 47.4551C84.729 47.4876 85.24 47.7356 85.603 48.1445C85.966 48.5535 86.152 49.09 86.12 49.636L85.652 57.5026C85.62 58.0485 85.372 58.5592 84.963 58.9223C84.554 59.2855 84.018 59.4712 83.472 59.4388L80.898 59.2859L81.61 47.3022Z" fill="#B8CDFF"/>
<path d="M68.052 50.5239C69.882 50.5239 71.366 49.0401 71.366 47.2097C71.366 45.3793 69.882 43.8955 68.052 43.8955C66.221 43.8955 64.737 45.3793 64.737 47.2097C64.737 49.0401 66.221 50.5239 68.052 50.5239Z" fill="black"/>
<path d="M39.6128 39.7995L59.022 40.9526C59.447 40.9779 59.862 41.0865 60.245 41.2724C60.628 41.4583 60.971 41.7178 61.253 42.036C61.536 42.3542 61.753 42.725 61.892 43.1271C62.031 43.5292 62.09 43.9549 62.065 44.3797L61.593 52.3198C61.467 54.4451 60.501 56.4333 58.909 57.8468C57.317 59.2604 55.229 59.9836 53.103 59.8573L42.1488 59.2065C41.2316 59.152 40.3341 58.9174 39.5076 58.516C38.6811 58.1147 37.9417 57.5545 37.3316 56.8674C36.7216 56.1803 36.2529 55.3798 35.9522 54.5116C35.6516 53.6433 35.5249 52.7244 35.5794 51.8072L36.1079 42.9113C36.1238 42.4735 36.2283 42.0435 36.4152 41.6472C36.602 41.2509 36.8672 40.8967 37.1948 40.6058C37.5224 40.3149 37.9056 40.0935 38.3212 39.9549C38.7368 39.8164 39.1762 39.7635 39.6128 39.7995Z" fill="#B8CDFF"/>
<path d="M41.6855 55.0149H40.2862C40.099 55.016 39.9136 54.9775 39.7424 54.9019C39.5711 54.8263 39.4178 54.7152 39.2926 54.5761C39.1673 54.4369 39.073 54.2728 39.0158 54.0946C38.9585 53.9163 38.9397 53.728 38.9605 53.5419C38.9593 53.3547 38.9978 53.1694 39.0735 52.9981C39.1491 52.8269 39.2602 52.6736 39.3993 52.5483C39.5385 52.4231 39.7026 52.3287 39.8808 52.2715C40.0591 52.2143 40.2474 52.1954 40.4335 52.2162H41.8328C42.02 52.2151 42.2053 52.2536 42.3766 52.3292C42.5479 52.4048 42.7011 52.5159 42.8264 52.655C42.9516 52.7942 43.046 52.9583 43.1032 53.1365C43.1604 53.3148 43.1793 53.5031 43.1585 53.6892C43.1596 53.8764 43.1211 54.0617 43.0455 54.233C42.9699 54.4043 42.8588 54.5576 42.7197 54.6828C42.5805 54.808 42.4164 54.9024 42.2382 54.9596C42.0599 55.0169 41.8716 55.0357 41.6855 55.0149Z" fill="#7196FF"/>
<path d="M50.818 55.6056L48.167 55.3847C47.979 55.3858 47.794 55.3473 47.623 55.2717C47.451 55.1961 47.298 55.085 47.173 54.9459C47.048 54.8067 46.953 54.6426 46.896 54.4644C46.839 54.2861 46.82 54.0978 46.841 53.9117C46.85 53.7279 46.896 53.5477 46.975 53.3815C47.054 53.2153 47.165 53.0664 47.302 52.9432C47.439 52.8201 47.599 52.7251 47.772 52.6638C47.946 52.6025 48.13 52.5761 48.314 52.586L50.965 52.7333C51.149 52.7427 51.329 52.7883 51.495 52.8675C51.662 52.9467 51.811 53.0579 51.934 53.1947C52.057 53.3315 52.152 53.4913 52.213 53.6649C52.274 53.8385 52.301 54.0225 52.291 54.2063C52.256 54.5781 52.087 54.9246 51.816 55.1818C51.546 55.439 51.191 55.5895 50.818 55.6056Z" fill="#7196FF"/>
<path d="M97.88 54.4258H0V109.574H97.88V54.4258Z" fill="url(#paint0_linear_301_177)"/>
<path d="M97.806 54.4258H73.649V109.574H97.806V54.4258Z" fill="#EB459F"/>
<path d="M44.1157 82.9299C47.248 82.9299 49.787 80.3909 49.787 77.2589C49.787 74.1269 47.248 71.5879 44.1157 71.5879C40.9837 71.5879 38.4447 74.1269 38.4447 77.2589C38.4447 80.3909 40.9837 82.9299 44.1157 82.9299Z" fill="#FFBADB"/>
<path d="M55.974 83.9593C55.312 83.9448 54.661 84.1286 54.105 84.4871C53.549 84.8456 53.113 85.3623 52.853 85.9708C52.593 86.5793 52.521 87.2517 52.647 87.9014C52.772 88.5511 53.089 89.1483 53.557 89.6162C54.025 90.0841 54.623 90.4012 55.272 90.5267C55.922 90.6523 56.594 90.5804 57.203 90.3205C57.811 90.0606 58.328 89.6245 58.687 89.0683C59.045 88.5121 59.229 87.8614 59.214 87.1999C59.214 86.7743 59.13 86.3529 58.968 85.9597C58.805 85.5666 58.566 85.2094 58.265 84.9084C57.964 84.6075 57.607 84.3688 57.214 84.206C56.821 84.0431 56.399 83.9593 55.974 83.9593Z" fill="#FFBADB"/>
<path d="M55.973 59.2139C55.114 59.2139 54.289 59.5553 53.682 60.163C53.074 60.7707 52.732 61.595 52.732 62.4544C52.732 63.3139 53.074 64.1381 53.682 64.7458C54.289 65.3536 55.114 65.695 55.973 65.695C56.832 65.695 57.657 65.3536 58.264 64.7458C58.872 64.1381 59.214 63.3139 59.214 62.4544C59.214 61.595 58.872 60.7707 58.264 60.163C57.657 59.5553 56.832 59.2139 55.973 59.2139Z" fill="#FFBADB"/>
<path d="M44.1157 107.674C47.248 107.674 49.787 105.135 49.787 102.003C49.787 98.8715 47.248 96.3325 44.1157 96.3325C40.9837 96.3325 38.4447 98.8715 38.4447 102.003C38.4447 105.135 40.9837 107.674 44.1157 107.674Z" fill="#FFBADB"/>
<path d="M44.1152 58.1092C45.269 58.1075 46.394 57.7542 47.342 57.0962C48.289 56.4383 49.013 55.507 49.418 54.4268H38.8125C39.217 55.507 39.9413 56.4383 40.8887 57.0962C41.8362 57.7542 42.9617 58.1075 44.1152 58.1092Z" fill="#FFBADB"/>
<path d="M31.2269 65.695C33.0166 65.695 34.4674 64.2441 34.4674 62.4544C34.4674 60.6647 33.0166 59.2139 31.2269 59.2139C29.4372 59.2139 27.9863 60.6647 27.9863 62.4544C27.9863 64.2441 29.4372 65.695 31.2269 65.695Z" fill="#FFBADB"/>
<path d="M31.2269 90.4411C33.0166 90.4411 34.4674 88.9902 34.4674 87.2005C34.4674 85.4108 33.0166 83.96 31.2269 83.96C29.4372 83.96 27.9863 85.4108 27.9863 87.2005C27.9863 88.9902 29.4372 90.4411 31.2269 90.4411Z" fill="#FFBADB"/>
<path d="M68.862 58.1092C70.015 58.1075 71.141 57.7542 72.088 57.0962C73.036 56.4383 73.76 55.507 74.165 54.4268H63.559C63.964 55.507 64.688 56.4383 65.635 57.0962C66.583 57.7542 67.708 58.1075 68.862 58.1092Z" fill="#FFBADB"/>
<path d="M80.719 65.695C82.509 65.695 83.96 64.2441 83.96 62.4544C83.96 60.6647 82.509 59.2139 80.719 59.2139C78.929 59.2139 77.478 60.6647 77.478 62.4544C77.478 64.2441 78.929 65.695 80.719 65.695Z" fill="#FFBADB"/>
<path d="M93.608 58.1092C94.415 58.1125 95.214 57.9433 95.951 57.6131C96.687 57.2829 97.345 56.7992 97.88 56.1943V54.4268H88.305C88.71 55.507 89.434 56.4383 90.381 57.0962C91.329 57.7542 92.454 58.1076 93.608 58.1092Z" fill="#FFBADB"/>
<path d="M80.719 90.4411C82.509 90.4411 83.96 88.9902 83.96 87.2005C83.96 85.4108 82.509 83.96 80.719 83.96C78.929 83.96 77.478 85.4108 77.478 87.2005C77.478 88.9902 78.929 90.4411 80.719 90.4411Z" fill="#FFBADB"/>
<path d="M70.167 82.7366C73.215 82.0161 75.101 78.9611 74.381 75.9131C73.66 72.8651 70.605 70.9783 67.557 71.6988C64.509 72.4193 62.623 75.4743 63.343 78.5223C64.064 81.5703 67.119 83.4571 70.167 82.7366Z" fill="#FFBADB"/>
<path d="M72.87 105.99C75.084 103.775 75.084 100.185 72.87 97.97C70.655 95.7553 67.064 95.7553 64.85 97.97C62.635 100.185 62.635 103.775 64.85 105.99C67.064 108.205 70.655 108.205 72.87 105.99Z" fill="#FFBADB"/>
<path d="M0 75.4902V78.9517C0.1756 78.4033 0.274801 77.8333 0.294601 77.2578C0.274201 76.6583 0.1752 76.064 0 75.4902Z" fill="#FFBADB"/>
<path d="M55.973 108.707C55.153 108.717 54.365 109.032 53.764 109.59H58.183C57.581 109.032 56.794 108.717 55.973 108.707Z" fill="#FFBADB"/>
<path d="M19.3696 71.5879C18.248 71.5879 17.1516 71.9205 16.219 72.5436C15.2864 73.1668 14.5595 74.0524 14.1303 75.0887C13.7011 76.1249 13.5888 77.2652 13.8076 78.3652C14.0264 79.4653 14.5665 80.4758 15.3596 81.2689C16.1527 82.062 17.1632 82.6021 18.2632 82.8209C19.3633 83.0397 20.5035 82.9274 21.5398 82.4982C22.576 82.069 23.4617 81.3421 24.0848 80.4095C24.708 79.4769 25.0406 78.3805 25.0406 77.2589C25.0406 75.7548 24.4431 74.3124 23.3796 73.2489C22.3161 72.1854 20.8736 71.5879 19.3696 71.5879Z" fill="#FFBADB"/>
<path d="M80.719 108.707C79.899 108.717 79.111 109.032 78.51 109.59H82.929C82.327 109.032 81.54 108.717 80.719 108.707Z" fill="#FFBADB"/>
<path d="M6.48109 108.707C5.66059 108.717 4.8734 109.032 4.2717 109.59H8.6906C8.0817 109.044 7.29889 108.731 6.48109 108.707Z" fill="#FFBADB"/>
<path d="M93.608 96.3326C92.225 96.491 90.948 97.1527 90.021 98.1917C89.095 99.2308 88.582 100.574 88.582 101.967C88.582 103.359 89.095 104.703 90.021 105.742C90.948 106.781 92.225 107.442 93.608 107.601C94.408 107.6 95.199 107.436 95.933 107.12C96.668 106.803 97.33 106.34 97.88 105.76V98.2474C97.345 97.6426 96.687 97.1589 95.951 96.8287C95.214 96.4984 94.415 96.3293 93.608 96.3326Z" fill="#FFBADB"/>
<path d="M93.608 71.5879C92.225 71.7463 90.948 72.4081 90.021 73.4471C89.095 74.4861 88.582 75.8298 88.582 77.2221C88.582 78.6144 89.095 79.9581 90.021 80.9971C90.948 82.0361 92.225 82.6978 93.608 82.8562C94.415 82.8595 95.214 82.6904 95.951 82.3601C96.687 82.0299 97.345 81.5462 97.88 80.9414V73.5028C97.345 72.898 96.687 72.4143 95.951 72.084C95.214 71.7538 94.415 71.5847 93.608 71.5879Z" fill="#FFBADB"/>
<path d="M31.2272 108.707C30.4067 108.717 29.6194 109.032 29.0177 109.59H33.4366C32.835 109.032 32.0477 108.717 31.2272 108.707Z" fill="#FFBADB"/>
<path d="M19.3693 58.1092C20.5228 58.1075 21.6483 57.7542 22.5958 57.0962C23.5432 56.4383 24.2675 55.507 24.672 54.4268H14.0665C14.471 55.507 15.1953 56.4383 16.1427 57.0962C17.0902 57.7542 18.2158 58.1075 19.3693 58.1092Z" fill="#FFBADB"/>
<path d="M19.3696 96.3325C18.248 96.3325 17.1516 96.6651 16.219 97.2883C15.2864 97.9114 14.5595 98.7971 14.1303 99.8333C13.7011 100.87 13.5888 102.01 13.8076 103.11C14.0264 104.21 14.5665 105.22 15.3596 106.013C16.1527 106.807 17.1632 107.347 18.2632 107.566C19.3633 107.784 20.5035 107.672 21.5398 107.243C22.576 106.814 23.4617 106.087 24.0848 105.154C24.708 104.222 25.0406 103.125 25.0406 102.003C25.0406 100.499 24.4431 99.057 23.3796 97.9935C22.3161 96.93 20.8736 96.3325 19.3696 96.3325Z" fill="#FFBADB"/>
<path d="M6.4809 65.695C8.2706 65.695 9.72139 64.2441 9.72139 62.4544C9.72139 60.6647 8.2706 59.2139 6.4809 59.2139C4.6911 59.2139 3.2403 60.6647 3.2403 62.4544C3.2403 64.2441 4.6911 65.695 6.4809 65.695Z" fill="#FFBADB"/>
<path d="M6.4809 90.4411C8.2706 90.4411 9.72139 88.9902 9.72139 87.2005C9.72139 85.4108 8.2706 83.96 6.4809 83.96C4.6911 83.96 3.2403 85.4108 3.2403 87.2005C3.2403 88.9902 4.6911 90.4411 6.4809 90.4411Z" fill="#FFBADB"/>
<path d="M0 100.238V103.699C0.1756 103.151 0.274801 102.581 0.294601 102.005C0.274201 101.406 0.1752 100.812 0 100.238Z" fill="#FFBADB"/>
<path d="M43.8946 54.4258H29.9013V109.574H43.8946V54.4258Z" fill="#57F287"/>
<path d="M91.251 54.4258H84.549V109.574H91.251V54.4258Z" fill="#29CC7A"/>
<defs>
<linearGradient id="paint0_linear_301_177" x1="48.925" y1="109.479" x2="48.925" y2="56.3038" gradientUnits="userSpaceOnUse">
<stop stop-color="#EB459F"/>
<stop offset="1" stop-color="#FF78B9"/>
</linearGradient>
</defs>
</svg>
