<svg width="318" height="334" viewBox="0 0 318 334" fill="none" xmlns="http://www.w3.org/2000/svg">
<g clip-path="url(#clip0_1431_42911)">
<g clip-path="url(#clip1_1431_42911)">
<path opacity="0.2" d="M427 232H279C279 219.024 290.096 208.61 303.923 208.61H330.894C333.284 208.61 335.161 206.902 335.161 204.512C335.161 188.805 348.647 176 365.376 176H366.571C383.3 176 396.785 188.805 396.785 204.512V213.049C396.956 217.659 400.882 221.244 405.491 221.244H415.392C421.537 220.902 426.829 225.854 427 232Z" fill="white"/>
<path opacity="0.4" d="M288 133H373C372.867 124.683 365.961 117.925 357.328 117.925H348.297C346.836 117.925 345.641 116.755 345.641 115.326C345.508 105.189 337.008 97.0015 326.648 97.0015H325.852C315.492 96.8716 306.992 105.059 306.859 115.326V120.784C306.859 123.643 304.336 125.982 301.414 125.982H295.172C291.32 125.982 288.133 129.101 288 133Z" fill="white"/>
<path opacity="0.2" d="M31.5321 69.0827C31.5321 64.6654 28.3319 61 24.3786 61H16.9426C12.9894 61 9.78908 64.5714 9.78908 69.0827C9.78908 69.9286 9.22433 70.6805 8.37719 70.6805H6.11818C2.72965 70.6805 0 73.782 0 77.5414H41.4153C41.4153 74.5339 39.2505 71.9963 36.5208 71.9963H34.2618C32.6616 71.9963 31.438 70.6805 31.5321 69.0827C31.5321 69.1767 31.5321 69.0827 31.5321 69.0827Z" fill="white"/>
<path opacity="0.1" d="M263.341 167.17C263.341 159.426 257.623 153 250.559 153H237.273C230.209 153 224.491 159.261 224.491 167.17C224.491 168.653 223.482 169.972 221.968 169.972H217.932C211.877 169.972 207 175.409 207 182H281C281 176.727 277.132 172.278 272.255 172.278H268.218C265.359 172.278 263.173 169.972 263.341 167.17C263.341 167.335 263.341 167.17 263.341 167.17Z" fill="white"/>
<path opacity="0.2" d="M151.415 141.703H110C110.094 137.943 113.2 135.03 116.965 135.124H124.495C125.154 135.124 125.719 134.654 125.719 133.996C125.813 129.485 129.672 125.913 134.19 126.007H134.567C139.085 125.819 142.85 129.391 143.038 133.996V136.345C143.038 137.661 144.168 138.695 145.485 138.601H148.215C149.909 138.507 151.321 139.823 151.415 141.703C151.415 141.609 151.415 141.609 151.415 141.703Z" fill="white"/>
<path opacity="0.1" d="M51.4154 171.703H10C10.0941 167.943 13.2003 165.03 16.9653 165.124H24.4954C25.1543 165.124 25.719 164.654 25.719 163.996C25.8131 159.485 29.6723 155.913 34.1903 156.007H34.5668C39.0849 155.819 42.8499 159.391 43.0382 163.996V166.345C43.0382 167.661 44.1677 168.695 45.4854 168.601H48.2151C49.9093 168.507 51.3212 169.823 51.4154 171.703C51.4154 171.609 51.4154 171.609 51.4154 171.703Z" fill="white"/>
<path opacity="0.1" d="M263 56H130C130 44.8781 139.971 35.9512 152.397 35.9512H176.634C178.782 35.9512 180.469 34.4878 180.469 32.439C180.469 18.9756 192.588 8 207.622 8H208.695C223.729 8 235.848 18.9756 235.848 32.439V39.7561C236.001 43.7073 239.529 46.7805 243.671 46.7805H252.569C258.091 46.4878 262.847 50.7317 263 56Z" fill="white"/>
</g>
<path fill-rule="evenodd" clip-rule="evenodd" d="M148.677 94.7545L234.63 63.2939L220.211 91.5442C217.407 97.0819 212.601 101.336 206.833 103.422L138.423 128.543L136.02 122.042L148.677 94.7545Z" fill="#DAE2ED"/>
<path fill-rule="evenodd" clip-rule="evenodd" d="M128.976 91.864L243.206 50.0503C243.686 49.8898 244.167 50.1305 244.327 50.5318C244.407 50.7726 244.407 51.0134 244.327 51.1739L239.922 60.0824C239.441 61.1257 238.56 61.848 237.518 62.2493L234.715 63.2926L148.682 94.7532L136.025 122.04L138.348 128.541L140.11 133.437L111.352 143.951L107.187 132.554L124.009 96.3584C125.05 94.2717 126.813 92.6666 128.976 91.864Z" fill="#ECEFF6"/>
<path fill-rule="evenodd" clip-rule="evenodd" d="M136.099 122.042L148.756 94.7545L234.709 63.2939L231.825 68.9921L151.8 98.2858L140.105 123.567L141.547 127.419L138.503 128.462L136.099 122.042Z" fill="#C5CEDD"/>
<path fill-rule="evenodd" clip-rule="evenodd" d="M103.979 119.712C91.0023 147.24 102.698 180.065 130.174 193.147C157.65 206.229 190.413 194.431 203.47 166.903C216.527 139.375 204.752 106.55 177.276 93.4681C149.719 80.6271 117.036 92.3445 103.979 119.712Z" fill="#4F5D7F"/>
<path fill-rule="evenodd" clip-rule="evenodd" d="M121.361 128.057C112.95 145.954 120.56 167.303 138.423 175.729C156.287 184.156 177.595 176.532 186.006 158.635C194.417 140.738 186.807 119.389 168.943 110.962C151.16 102.616 129.932 110.24 121.361 128.057Z" fill="#7687B2"/>
<path fill-rule="evenodd" clip-rule="evenodd" d="M116.957 99.7265C116.877 108.153 138.986 128.779 153.485 140.176C166.863 140.256 200.026 138.892 207.797 131.267C208.518 130.625 208.998 129.742 209.078 128.779C209.078 128.458 208.998 128.137 208.918 127.816C204.272 111.203 193.378 98.1213 178.318 90.9785C159.333 81.9095 136.743 84.4777 117.838 97.8003C117.278 98.2016 116.957 98.9239 116.957 99.7265Z" fill="#FF7F14"/>
<path fill-rule="evenodd" clip-rule="evenodd" d="M152.523 142.987C152.523 142.987 205.393 111.205 200.026 104.624C194.498 97.8026 187.449 92.2649 179.519 88.4928C158.131 78.3002 134.499 82.7143 116.316 95.5554C103.499 104.624 152.523 142.987 152.523 142.987Z" fill="#FF903E"/>
<path fill-rule="evenodd" clip-rule="evenodd" d="M126.331 130.389C119.201 145.558 125.61 163.615 140.75 170.758C155.889 177.901 173.913 171.48 181.043 156.312C188.172 141.143 181.763 123.086 166.624 115.943C151.484 108.88 133.54 115.301 126.331 130.389Z" fill="#EBEFF7"/>
<path fill-rule="evenodd" clip-rule="evenodd" d="M130.733 132.474C124.726 145.234 130.173 160.403 142.829 166.422C155.486 172.441 170.706 166.984 176.714 154.303C182.722 141.623 177.275 126.374 164.618 120.355C151.881 114.336 136.741 119.793 130.733 132.474Z" fill="#DAE2ED"/>
<path fill-rule="evenodd" clip-rule="evenodd" d="M168.865 132.554L155.087 124.288C154.205 123.806 153.164 123.806 152.363 124.288L138.345 132.153C137.463 132.634 136.903 133.597 136.903 134.561L136.742 150.692C136.742 151.655 137.223 152.618 138.104 153.1L151.882 161.366C152.764 161.848 153.805 161.848 154.606 161.366L168.624 153.421C169.506 152.939 170.066 151.976 170.066 151.013L170.226 134.882C170.226 133.999 169.666 133.036 168.865 132.554Z" fill="#C5CEDD"/>
<path fill-rule="evenodd" clip-rule="evenodd" d="M145.715 139.616C143.632 144.03 145.555 149.246 149.96 151.333C154.366 153.42 159.573 151.494 161.656 147.079C163.738 142.665 161.816 137.449 157.49 135.362C153.084 133.356 147.798 135.201 145.715 139.616Z" fill="#B7C2CE"/>
<path fill-rule="evenodd" clip-rule="evenodd" d="M85.077 195.476H89.8834C91.0849 195.476 92.1263 196.439 92.1263 197.723V207.755C92.0462 210.484 94.129 212.811 96.9326 212.972C99.7363 213.132 101.979 210.966 102.139 208.157C102.139 207.996 102.139 207.916 102.139 207.755V165.54C102.139 162.491 99.7363 159.922 96.6122 159.922C96.6122 159.922 96.6122 159.922 96.5321 159.922H79.5498C76.5058 159.922 74.0225 162.41 74.0225 165.46C74.0225 165.46 74.0225 165.46 74.0225 165.54V184.32C73.9424 190.5 78.9089 195.476 85.077 195.476ZM73.5419 142.105H83.1545C83.1545 145.637 83.1545 149.168 83.1545 152.699H73.7021C73.7822 149.248 73.7822 145.637 73.5419 142.105Z" fill="#7196FF"/>
<path fill-rule="evenodd" clip-rule="evenodd" d="M76.9828 165.219H117.516C117.997 165.219 118.397 164.818 118.397 164.337C118.397 163.855 117.997 163.454 117.516 163.454H76.9828C76.5022 163.454 76.1017 163.052 76.1017 162.571V156.07C76.1017 155.589 75.7011 155.187 75.2205 155.187C74.7399 155.187 74.3394 155.589 74.3394 156.07V162.571C74.4195 164.016 75.5409 165.219 76.9828 165.219Z" fill="#E4E9F7"/>
<path fill-rule="evenodd" clip-rule="evenodd" d="M72.2595 160.003H78.2674C78.748 160.003 79.1485 159.602 79.1485 159.121V140.501C79.1485 140.02 78.748 139.618 78.2674 139.618H72.2595C71.7788 139.618 71.3783 140.02 71.3783 140.501V159.121C71.3783 159.602 71.6987 160.003 72.2595 160.003C72.1794 160.003 72.1794 160.003 72.2595 160.003Z" fill="black"/>
<path fill-rule="evenodd" clip-rule="evenodd" d="M73.6206 142.105H70.096C69.6154 142.105 69.2148 142.507 69.2148 142.988C69.2148 145.958 69.2148 148.927 69.2148 151.897C69.2148 152.378 69.6154 152.779 70.096 152.779H73.3803C76.0238 152.779 78.2667 150.934 78.7474 148.365C79.228 145.476 77.3055 142.747 74.4217 142.186C74.1814 142.186 73.8609 142.105 73.6206 142.105Z" fill="#7196FF"/>
<path fill-rule="evenodd" clip-rule="evenodd" d="M92.0458 160.003H98.0537C98.5344 160.003 98.9349 159.602 98.9349 159.121V140.501C98.9349 140.02 98.5344 139.618 98.0537 139.618H92.0458C91.5652 139.618 91.1647 140.02 91.1647 140.501V159.121C91.1647 159.602 91.5652 160.003 92.0458 160.003Z" fill="black"/>
<path fill-rule="evenodd" clip-rule="evenodd" d="M78.6691 146.198C83.2351 139.938 90.5247 136.166 98.2949 136.166H131.138C139.149 136.247 145.637 142.747 145.637 150.853V177.82C145.637 183.197 141.311 187.611 135.944 187.611H88.6022C80.5115 187.531 74.023 181.03 74.023 172.924V160.645C73.9429 155.428 75.6251 150.372 78.6691 146.198Z" fill="#AEC7FF"/>
<path fill-rule="evenodd" clip-rule="evenodd" d="M121.205 136.166H131.058C139.149 136.247 145.637 142.747 145.637 150.853V174.288C145.637 179.665 141.311 184.08 135.944 184.08H121.125C121.365 168.189 121.365 152.137 121.205 136.166ZM152.446 171.078L162.7 174.128C166.625 175.251 168.868 179.264 167.746 183.197C166.625 187.129 162.619 189.377 158.694 188.253C156.211 187.531 154.289 185.685 153.648 183.197L150.604 172.924C150.363 172.202 150.764 171.319 151.485 171.078C151.805 170.998 152.126 170.998 152.446 171.078Z" fill="#7196FF"/>
<path fill-rule="evenodd" clip-rule="evenodd" d="M128.653 195.477H133.459C134.661 195.477 135.702 196.44 135.702 197.724V207.756C135.622 210.485 137.705 212.812 140.508 212.973C143.232 213.053 145.555 210.966 145.715 208.157C145.715 207.997 145.715 207.916 145.715 207.756V157.676C145.715 154.626 143.232 152.058 140.188 152.058H123.205C120.161 152.058 117.678 154.626 117.678 157.676V184.321C117.518 190.501 122.485 195.477 128.653 195.477Z" fill="#7196FF"/>
<path fill-rule="evenodd" clip-rule="evenodd" d="M96.8484 165.217H137.382C137.862 165.217 138.263 164.816 138.263 164.335C138.263 163.853 137.862 163.452 137.382 163.452H96.8484C96.3678 163.452 95.9673 163.051 95.9673 162.569V156.068C96.0474 155.587 95.6468 155.185 95.1662 155.105C94.6856 155.025 94.2851 155.426 94.205 155.908C94.205 155.988 94.205 155.988 94.205 156.068V162.569C94.205 164.014 95.4065 165.137 96.8484 165.217Z" fill="#E4E9F7"/>
<path fill-rule="evenodd" clip-rule="evenodd" d="M92.0458 160.003H98.0537C98.5344 160.003 98.9349 159.602 98.9349 159.121V140.501C98.9349 140.02 98.5344 139.618 98.0537 139.618H92.0458C91.5652 139.618 91.1647 140.02 91.1647 140.501V159.121C91.1647 159.602 91.5652 160.003 92.0458 160.003Z" fill="black"/>
<path fill-rule="evenodd" clip-rule="evenodd" d="M91.8044 142.105H111.59C114.875 142.105 117.518 139.457 117.518 136.166H129.935V162.009H117.598C116.477 155.508 110.789 152.699 103.98 152.699H91.9646C89.3211 152.699 87.0782 150.853 86.5975 148.285C86.1169 145.396 88.0394 142.667 90.9232 142.105C91.1635 142.186 91.484 142.105 91.8044 142.105Z" fill="#7196FF"/>
<path fill-rule="evenodd" clip-rule="evenodd" d="M137.304 136.487H92.1244C84.0337 136.487 77.4651 129.906 77.4651 121.8V94.5127C77.5452 86.4068 84.0337 79.8257 92.1244 79.8257H137.304C145.394 79.8257 151.883 86.4068 151.963 94.5127V121.8C151.883 129.906 145.394 136.487 137.304 136.487Z" fill="#80A7FF"/>
<path fill-rule="evenodd" clip-rule="evenodd" d="M127.772 136.485H82.5928C74.5021 136.485 67.9335 129.904 67.9335 121.718V94.4309C68.0136 86.3249 74.5021 79.8242 82.5928 79.7439H127.772C135.863 79.7439 142.431 86.3249 142.431 94.4309V121.718C142.431 129.904 135.863 136.485 127.772 136.485Z" fill="#9CB8FF"/>
<path fill-rule="evenodd" clip-rule="evenodd" d="M147.557 118.43H136.742V91.9451H147.557C152.924 91.9451 157.33 96.3592 157.33 101.736V108.639C157.33 114.016 152.924 118.43 147.557 118.43Z" fill="#9CB8FF"/>
<path fill-rule="evenodd" clip-rule="evenodd" d="M136.742 112.49V97.8034C136.742 97.2416 137.143 96.8403 137.704 96.8403H147.477C150.2 96.8403 152.363 99.0073 152.363 101.736V108.638C152.363 111.367 150.2 113.534 147.477 113.534H137.704C137.223 113.534 136.742 113.052 136.742 112.49C136.742 112.571 136.742 112.49 136.742 112.49Z" fill="#80A7FF"/>
<path fill-rule="evenodd" clip-rule="evenodd" d="M119.759 109.84C117.115 109.84 114.953 107.673 114.953 105.025C114.953 102.376 117.115 100.209 119.759 100.209C122.402 100.209 124.565 102.376 124.565 105.025C124.565 107.673 122.402 109.84 119.759 109.84Z" fill="black"/>
<path fill-rule="evenodd" clip-rule="evenodd" d="M67.5297 94.5109H100.773C103.978 94.5109 106.621 97.1594 106.621 100.37V107.272C106.621 115.378 100.052 121.959 91.9618 122.039H76.3413C68.2506 122.039 61.682 115.458 61.682 107.352V100.45C61.682 97.1594 64.3255 94.5109 67.5297 94.5109Z" fill="#CBDAF7"/>
<path fill-rule="evenodd" clip-rule="evenodd" d="M85.1529 122.042H76.3413C68.2506 122.042 61.682 115.461 61.682 107.355V100.453C61.682 97.2431 64.3255 94.5946 67.5297 94.5946H93.8843C97.0886 94.5946 99.732 97.2431 99.732 100.453V107.355C99.732 115.381 93.2435 121.962 85.1529 122.042Z" fill="#CBDAF7"/>
<path fill-rule="evenodd" clip-rule="evenodd" d="M81.233 110.884H87.5613C88.9231 110.964 89.9645 112.088 89.8844 113.452C89.8043 114.736 88.843 115.699 87.5613 115.779H81.233C79.8712 115.699 78.8299 114.575 78.91 113.211C78.9901 111.927 79.9513 110.964 81.233 110.884ZM69.6979 110.884H72.101C73.4628 110.964 74.5042 112.088 74.4241 113.452C74.344 114.736 73.3827 115.699 72.101 115.779H69.6979C68.3361 115.699 67.2947 114.575 67.3748 113.211C67.4549 111.927 68.4963 110.964 69.6979 110.884Z" fill="#9CB8FF"/>
<path fill-rule="evenodd" clip-rule="evenodd" d="M83.8746 127.818H79.9494C79.0682 127.818 78.3473 127.095 78.3473 126.213C78.3473 125.33 79.0682 124.607 79.9494 124.607H83.8746C84.7557 124.607 85.4767 125.33 85.4767 126.213C85.4767 127.095 84.7557 127.818 83.8746 127.818Z" fill="#80A7FF"/>
<path opacity="0.4" fill-rule="evenodd" clip-rule="evenodd" d="M64.9686 85.7631C64.9686 85.7631 50.8701 106.871 66.01 131.188L74.5813 136.164L129.854 133.757L143.312 115.779L129.854 79.7439H82.5918L64.9686 85.7631Z" fill="#4871E5"/>
<path fill-rule="evenodd" clip-rule="evenodd" d="M109.025 65.8598C141.227 65.8598 159.01 87.6896 159.01 105.747C159.01 123.805 137.943 125.41 132.976 112.649L122.563 84.9609L76.582 90.9801L65.0469 85.7634C69.2925 78.7009 85.1533 65.8598 109.025 65.8598Z" fill="#EBEFF7"/>
<path fill-rule="evenodd" clip-rule="evenodd" d="M136.422 115.779L107.263 131.188H66.009L70.0143 137.93H137.223L143.07 124.607L136.422 115.779Z" fill="#EBEFF7"/>
<path fill-rule="evenodd" clip-rule="evenodd" d="M143.155 94.5921L151.806 97.3208L155.571 81.9918C156.052 80.0657 154.85 78.1395 152.928 77.7382C151.245 77.3369 149.483 78.2198 148.842 79.8249L143.155 94.5921Z" fill="#DAE2ED"/>
<path fill-rule="evenodd" clip-rule="evenodd" d="M154.209 87.4502L151.806 97.4021L143.155 94.6733L146.84 85.1228C149.243 85.9254 151.726 86.7279 154.209 87.4502Z" fill="#B7C2CE"/>
<path fill-rule="evenodd" clip-rule="evenodd" d="M138.025 167.305L171.669 175.09L174.553 162.249L140.908 154.464L138.025 167.305Z" fill="#B7C2CE"/>
<path fill-rule="evenodd" clip-rule="evenodd" d="M165.982 177.338L208.198 191.864C208.999 192.185 209.88 192.025 210.601 191.463C212.363 190.098 215.648 186.728 217.41 178.863C219.172 170.997 217.73 166.503 216.689 164.577C216.288 163.855 215.567 163.293 214.686 163.212L170.388 157.755C169.507 157.675 168.706 158.237 168.466 159.119L164.861 175.331C164.701 176.214 165.181 177.017 165.982 177.338Z" fill="#C5CEDD"/>
<path fill-rule="evenodd" clip-rule="evenodd" d="M177.677 165.218C177.436 166.341 178.157 167.465 179.199 167.706C180.32 167.946 181.442 167.224 181.682 166.181C181.922 165.057 181.201 163.933 180.16 163.693C179.038 163.372 177.917 164.094 177.677 165.218ZM187.449 166.582C187.209 167.706 187.93 168.829 188.972 169.07C190.093 169.311 191.214 168.588 191.455 167.545C191.695 166.421 190.974 165.298 189.933 165.057C188.811 164.736 187.69 165.458 187.449 166.582C187.369 166.582 187.369 166.582 187.449 166.582Z" fill="#B7C2CE"/>
<path fill-rule="evenodd" clip-rule="evenodd" d="M138.423 165.138L165.499 186.245L173.509 175.892L146.434 154.705L138.423 165.138Z" fill="#D0D9EA"/>
<path fill-rule="evenodd" clip-rule="evenodd" d="M159.495 185.843L191.777 216.903C192.418 217.464 193.219 217.785 194.1 217.545C196.263 217.063 200.669 215.378 205.555 209.037C210.441 202.697 211.002 197.962 210.922 195.795C210.922 194.912 210.442 194.19 209.721 193.708L171.831 170.033C171.11 169.551 170.068 169.712 169.588 170.434L159.495 183.596C158.774 184.238 158.854 185.281 159.495 185.843Z" fill="#EBEFF7"/>
<path fill-rule="evenodd" clip-rule="evenodd" d="M175.192 179.825C174.471 180.708 174.631 181.992 175.592 182.714C176.473 183.437 177.755 183.276 178.476 182.393C179.197 181.511 179.037 180.227 178.156 179.504C177.114 178.782 175.833 178.942 175.192 179.825ZM182.962 186.246C182.241 187.129 182.401 188.413 183.362 189.135C184.244 189.857 185.525 189.697 186.246 188.734C186.967 187.771 186.807 186.567 185.846 185.844C184.884 185.202 183.603 185.363 182.962 186.246Z" fill="#B7C2CE"/>
<path fill-rule="evenodd" clip-rule="evenodd" d="M130.176 111.047C131.377 120.998 139.147 128.302 147.558 127.258C155.97 126.215 161.737 117.307 160.455 107.275C159.174 97.2425 151.484 90.0996 143.153 91.0627C134.822 92.0258 128.974 101.095 130.176 111.047Z" fill="#DAE2ED"/>
<path fill-rule="evenodd" clip-rule="evenodd" d="M136.502 110.483C137.383 117.545 142.91 122.762 148.838 122.04C154.766 121.317 158.931 114.977 158.05 107.834C157.169 100.691 151.642 95.5548 145.714 96.3574C139.786 97.1599 135.621 103.42 136.502 110.483Z" fill="#B7C2CE"/>
<path fill-rule="evenodd" clip-rule="evenodd" d="M139.944 110.164C140.585 115.22 144.51 118.912 148.756 118.43C153.002 117.948 155.965 113.374 155.325 108.237C154.684 103.101 150.759 99.4895 146.513 99.971C142.267 100.453 139.303 105.027 139.944 110.164Z" fill="#FF903E"/>
<path fill-rule="evenodd" clip-rule="evenodd" d="M149.322 113.855L150.283 113.453C150.523 113.373 150.684 113.052 150.603 112.731L147.239 104.224C147.159 103.983 146.839 103.823 146.518 103.903L145.557 104.304C145.317 104.384 145.156 104.706 145.236 105.027L148.601 113.453C148.761 113.775 149.081 113.935 149.322 113.855Z" fill="#FF7F14"/>
<path fill-rule="evenodd" clip-rule="evenodd" d="M137.943 173.486H149.078V136.166H133.618V169.152C133.618 171.56 135.54 173.486 137.943 173.486Z" fill="black"/>
<path fill-rule="evenodd" clip-rule="evenodd" d="M185.766 94.7545L271.719 63.2939L257.3 91.5442C254.497 97.0819 249.69 101.336 243.923 103.422L175.513 128.462L173.109 121.962L185.766 94.7545Z" fill="#DAE2ED"/>
<path fill-rule="evenodd" clip-rule="evenodd" d="M166.058 91.864L280.208 50.0503C280.689 49.8898 281.17 50.1305 281.33 50.5318C281.41 50.7726 281.41 51.0134 281.33 51.1739L276.924 60.0824C276.443 61.1257 275.562 61.848 274.521 62.2493L271.717 63.2926L185.764 94.7532L173.108 122.04L175.511 128.541L177.273 133.437L148.515 143.951L144.35 132.554L161.172 96.3584C162.133 94.2717 163.895 92.6666 166.058 91.864Z" fill="#ECEFF6"/>
<path fill-rule="evenodd" clip-rule="evenodd" d="M173.189 122.042L185.845 94.7545L271.798 63.2939L268.914 68.9921L188.889 98.2858L177.194 123.567L178.636 127.419L175.592 128.543L173.189 122.042Z" fill="#C5CEDD"/>
<path fill-rule="evenodd" clip-rule="evenodd" d="M272.362 59.845C273.243 59.5239 273.723 58.5609 273.403 57.5978C273.083 56.715 272.121 56.2334 271.16 56.5544C270.279 56.8755 269.798 57.8385 270.119 58.8016C270.439 59.7647 271.4 60.166 272.362 59.845ZM265.473 62.4132C266.354 62.0921 266.834 61.1291 266.514 60.166C266.194 59.2832 265.232 58.8016 264.271 59.1226C263.31 59.4437 262.909 60.4068 263.23 61.3698C263.55 62.2527 264.511 62.7342 265.473 62.4132ZM167.344 98.2879C168.145 97.8064 168.465 96.763 167.984 95.9604C167.584 95.3184 166.863 94.9974 166.142 95.0776C165.261 95.3987 164.78 96.442 165.101 97.3248C165.501 98.2076 166.462 98.6089 167.344 98.2879Z" fill="#DAE2ED"/>
<path fill-rule="evenodd" clip-rule="evenodd" d="M140.024 144.193H157.888C159.41 144.193 160.611 142.909 160.611 141.464V131.834C160.611 130.309 159.41 129.105 157.888 129.105H140.024C138.502 129.105 137.301 130.389 137.301 131.834V141.464C137.301 142.989 138.502 144.193 140.024 144.193Z" fill="#FF5C5C"/>
<path fill-rule="evenodd" clip-rule="evenodd" d="M133.537 149.09H147.555C151.4 149.09 154.444 145.96 154.444 142.188V131.193C154.444 127.341 151.32 124.291 147.555 124.211H133.537C132.095 124.211 130.973 125.415 130.973 126.779V146.442C130.893 147.887 132.015 149.01 133.537 149.09C133.457 149.09 133.457 149.09 133.537 149.09Z" fill="#D0D9EA"/>
<path fill-rule="evenodd" clip-rule="evenodd" d="M93.6474 63.2106L94.4485 68.5075C90.1228 72.0388 86.2777 76.1319 83.1536 80.7065L78.3473 69.7114C82.1923 66.9024 87.4793 65.2972 93.6474 63.2106Z" fill="#FF7F14"/>
<path fill-rule="evenodd" clip-rule="evenodd" d="M83.1511 80.7109L78.3448 69.7157L74.2594 80.7109H83.1511Z" fill="#FF903E"/>
</g>
<defs>
<clipPath id="clip0_1431_42911">
<rect width="318" height="334" fill="white"/>
</clipPath>
<clipPath id="clip1_1431_42911">
<rect width="427" height="224" fill="white" transform="translate(0 8)"/>
</clipPath>
</defs>
</svg>
